<?xml version="1.0" encoding="utf-8"?>
<!-- Generator: Adobe Illustrator 22.1.0, SVG Export Plug-In . SVG Version: 6.00 Build 0)  -->
<svg version="1.1" id="Layer_1" xmlns="http://www.w3.org/2000/svg" xmlns:xlink="http://www.w3.org/1999/xlink" x="0px" y="0px"
	 viewBox="0 0 100 100" style="enable-background:new 0 0 100 100;" xml:space="preserve">
<path style="display:none;fill:#787878;" d="M3.5,22.1V75c0,1.9,1.5,3.4,3.4,3.4h85.2c1.9,0,3.4-1.5,3.4-3.4V22.1"/>
<path style="display:none;fill:none;stroke:#787878;stroke-width:0.25;stroke-miterlimit:10;" d="M3.5,22.1V75
	c0,1.9,1.5,3.4,3.4,3.4h85.2c1.9,0,3.4-1.5,3.4-3.4V22.1"/>
<path style="display:none;fill:#068DC9;" d="M95.5,15.4v6.7h-92v-1.7c0-1.9,1.5-3.4,3.4-3.4h44l9.9-5.6h30.8
	C93.7,11.5,95.5,13.2,95.5,15.4"/>
<path style="display:none;fill:none;stroke:#068DC9;stroke-width:0.25;stroke-miterlimit:10;" d="M95.5,15.4v6.7h-92v-1.7
	c0-1.9,1.5-3.4,3.4-3.4h44l9.9-5.6h30.8C93.7,11.5,95.5,13.2,95.5,15.4z"/>
<path style="fill:#068DC9;" d="M47.9,16.2c-0.8,1.3-1.5,3.2-1.7,5c-0.1,0.5-0.2,3.7-0.4,7.2l-0.3,6.3l-0.9,0.7
	c-0.5,0.4-6.2,5.1-12.6,10.4C16.4,58.8,17.7,57.7,17.5,58.2c-0.2,0.5,0.4,5.5,0.7,6.3c0.2,0.6,0.8,1,1.5,1.1
	c0.5,0.1,1.2-0.2,13.1-5.1c6.9-2.9,12.6-5.2,12.7-5.2c0,0,0,13.6-0.1,14.9c0,0.1-1.6,1.2-3.6,2.6l-3.6,2.4L38,75.7
	c-0.3,0.7-1.3,8-1.2,8.6c0.3,0.9,1.1,1.5,2,1.3c0.2,0,1.9-0.7,3.6-1.6c1.8-0.8,3.3-1.6,3.3-1.6c0.1,0,0.2,0.1,0.3,0.4
	c0.4,1.6,1.4,3.1,2.5,3.6c1.7,0.7,3.2-0.2,4.2-2.7c0.3-0.6,0.5-1.1,0.6-1.1c0.1,0,1.5,0.7,3.2,1.6c1.7,0.9,3.3,1.7,3.5,1.7
	c1.1,0.4,2.3-0.6,2.3-1.8c0-0.5-0.6-6.3-0.8-7.5c-0.1-0.4-0.2-0.8-0.3-0.9c-0.1-0.2-1.8-1.4-3.6-2.7c-2.8-2.1-3.4-2.5-3.4-2.7
	c0-0.1,0.1-3.5,0.2-7.6l0.2-7.3l0.5,0.2c4.1,2,24.4,11.1,24.7,11.1c0.9,0.1,1.6-0.4,1.9-1.1c0.1-0.2,0.3-1.6,0.6-3.1
	c0.3-2.2,0.4-2.7,0.2-3.2C82.2,58.8,82,58.6,69,47.1c-7.3-6.4-13.3-11.8-13.5-11.9c-0.3-0.2-0.3-0.7-0.4-6.7c-0.1-6.9-0.1-8-0.5-9.5
	c-0.4-1.7-0.8-2.5-1.7-3.5c-1-1.1-1.7-1.4-2.6-1.2C49.6,14.5,48.5,15.3,47.9,16.2"/>
</svg>
