<svg xmlns="http://www.w3.org/2000/svg" viewBox="0 0 514.51 312.87"><defs><style>.cls-1,.cls-3{opacity:0.5;}.cls-2,.cls-3{fill:#d39d8b;}</style></defs><title>Asset 1</title><g id="Layer_2" data-name="Layer 2"><g id="Capa_1" data-name="Capa 1"><g class="cls-1"><path class="cls-2" d="M113.14,296.62v-.75h2.62v1h-.19Zm2.8,10.74,2.43.28v.75h-5.23v-.75l2.43-.28Zm-1-5.7c0-1.92,0-3.87-.06-5.79h1.79c-.06,1.89-.06,3.83-.06,5.79v1.14c0,1.9,0,3.66.06,5.58h-1.79c.06-1.89.06-3.83.06-5.79Zm2.69,1.77h-1.85v-.86h2.13c2.3,0,3.19-1.21,3.19-3s-1-2.86-3.27-2.86h-2.05v-.86h2.41c3.1,0,4.69,1.53,4.69,3.72S121.41,303.44,117.6,303.44Z"/><path class="cls-2" d="M130.3,307.92l-.08-2h1l.5,2.2-.92-.43V307a3.55,3.55,0,0,0,2.3.77c1.44,0,2.11-.58,2.11-1.44s-.56-1.21-1.74-1.64l-.86-.32c-1.36-.5-2.26-1.23-2.26-2.5s1.14-2.6,3.21-2.6a4.76,4.76,0,0,1,2.6.77l-.07,1.89h-.93l-.37-1.89.67.3v.49a3.05,3.05,0,0,0-1.9-.71c-1.16,0-1.76.5-1.76,1.29s.47,1.16,1.74,1.63l.56.21c1.87.69,2.58,1.57,2.58,2.73,0,1.38-1.21,2.65-3.6,2.65A5.69,5.69,0,0,1,130.3,307.92Z"/><path class="cls-2" d="M145.53,308.39c0-.84.06-2.76.06-3.92v-.88c0-1,0-1.61-.06-2.35l-1.53-.17v-.65l2.82-1.12.28.19L147,302v2.47c0,1.16,0,3.08.06,3.92Zm2.88-.65v.65h-4.3v-.65l2.05-.37h.37ZM145.07,296a1.23,1.23,0,1,1,1.23,1.18A1.16,1.16,0,0,1,145.07,296Z"/><path class="cls-2" d="M157.41,303.81c0,2.35,1.25,3.64,3,3.64A3,3,0,0,0,163,306l.45.22a3.35,3.35,0,0,1-3.46,2.41c-2.56,0-4.17-1.79-4.17-4.65a4.37,4.37,0,0,1,4.28-4.69,3.19,3.19,0,0,1,3.29,2.41.77.77,0,0,1-.84.69,1,1,0,0,1-1-.84l-.47-1.64.86.69a3.88,3.88,0,0,0-1.79-.47C158.57,300.14,157.41,301.42,157.41,303.81Z"/><path class="cls-2" d="M171,304c0-3.1,2.11-4.71,4.26-4.71a4.34,4.34,0,0,1,4.26,4.71,4.27,4.27,0,1,1-8.52,0Zm6.83,0c0-2.5-1-3.87-2.58-3.87s-2.58,1.36-2.58,3.87.92,3.79,2.58,3.79S177.87,306.5,177.87,304Z"/><path class="cls-2" d="M189.6,294.57l.26.15-.07,2.65v7.1q0,2,.06,3.92h-1.61q.06-2,.06-3.92v-8.22l-1.55-.19v-.65Zm1.74,13.17v.65h-4.59v-.65l2.11-.37h.37Z"/><path class="cls-2" d="M198.71,304c0-3.1,2.11-4.71,4.26-4.71a4.34,4.34,0,0,1,4.26,4.71,4.27,4.27,0,1,1-8.52,0Zm6.84,0c0-2.5-1-3.87-2.58-3.87s-2.58,1.36-2.58,3.87.92,3.79,2.58,3.79S205.54,306.5,205.54,304Z"/><path class="cls-2" d="M221.9,310.11c0-.84-.52-1.47-1.89-1.47h-2.2a7.44,7.44,0,0,1-.93-.06v-.06c-1-.21-1.44-.69-1.44-1.48s.43-1.36,1.7-2.46l.41.28a2.21,2.21,0,0,0-.8,1.57c0,.5.21.84,1.08.84h2.46c2,0,3,.88,3,2.39s-1.53,3.21-4.56,3.21c-2.69,0-3.87-.93-3.87-2.28,0-.92.58-1.61,2.46-2.41l.09.11a2.69,2.69,0,0,0-1,2c0,1.23,1,1.72,2.41,1.72C220.8,312,221.9,311.17,221.9,310.11Zm-3.29-10.81c1.91,0,3.32,1,3.32,3.06s-1.46,3.06-3.34,3.06-3.34-1-3.34-3.06S216.71,299.29,218.61,299.29Zm-1.91,3.08c0,1.36.67,2.3,1.83,2.3s1.94-1,1.94-2.37-.67-2.26-1.85-2.26S216.71,301,216.71,302.38Zm6.35-3.08.28.19v1.16h-2.75v-.5Z"/><path class="cls-2" d="M231.92,304.47v-.88c0-1,0-1.61-.06-2.35l-1.49-.17v-.65l2.82-1.12.28.19-.06,2.52v2.47c0,1.16,0,3.08.06,3.92h-1.61C231.9,307.55,231.92,305.63,231.92,304.47Zm-1.46,3.27,2.05-.37h.37l1.87.37v.65h-4.3Zm3-12.74c.35-.56.67-.75,1-.75a.66.66,0,0,1,.69.69c0,.24-.09.52-.6,1-.75.69-1.49,1.36-2.28,2.05l-.47-.35C232.37,296.75,232.91,295.88,233.49,295Z"/><path class="cls-2" d="M245.33,303.5a20.35,20.35,0,0,1,2.9-.78v.67a17,17,0,0,0-2.5.75c-1.68.65-1.87,1.36-1.87,1.91,0,1,.65,1.38,1.51,1.38.65,0,1-.24,2.2-1.08l.37-.28.26.39-.54.54c-1.12,1.12-1.76,1.64-2.9,1.64a2.28,2.28,0,0,1-2.5-2.33C242.27,305.25,242.83,304.41,245.33,303.5Zm2.15,3.18v-4.26c0-1.83-.52-2.28-1.76-2.28a4.34,4.34,0,0,0-1.68.34l.75-.58-.49,1.61c-.17.54-.45.84-1,.84a.76.76,0,0,1-.84-.75c.36-1.42,1.74-2.3,3.61-2.3s2.86.88,2.86,3.23v4c0,.84.26,1.14.69,1.14a.92.92,0,0,0,.73-.41l.37.41a1.74,1.74,0,0,1-1.59,1A1.7,1.7,0,0,1,247.48,306.67Z"/><path class="cls-2" d="M278,306.54v1l-1.16.26.47-2.76h1.14l-.07,2.71a7.86,7.86,0,0,1-3.77.9c-3.77,0-6.31-2.73-6.31-6.54a6.24,6.24,0,0,1,6.29-6.54,7.21,7.21,0,0,1,3.6.9l.08,2.71h-1.14l-.47-2.76,1.16.26v1.14a4.36,4.36,0,0,0-3-1.31c-2.52,0-4.56,2-4.56,5.6s1.83,5.6,4.43,5.6A5.18,5.18,0,0,0,278,306.54Z"/><path class="cls-2" d="M288.53,294.57l.26.15-.07,2.65v7.1q0,2,.06,3.92h-1.61q.06-2,.06-3.92v-8.22l-1.55-.19v-.65Zm1.74,13.17v.65h-4.59v-.65l2.11-.37h.37Z"/><path class="cls-2" d="M298.89,304.47v-.88c0-1,0-1.61-.06-2.35l-1.49-.17v-.65l2.82-1.12.28.19-.06,2.52v2.47c0,1.16,0,3.08.06,3.92h-1.61C298.87,307.55,298.89,305.63,298.89,304.47Zm-1.46,3.27,2.05-.37h.37l1.87.37v.65h-4.3Zm3-12.74c.35-.56.67-.75,1-.75a.66.66,0,0,1,.69.69c0,.24-.09.52-.6,1-.75.69-1.49,1.36-2.28,2.05l-.47-.35C299.34,296.75,299.88,295.88,300.46,295Z"/><path class="cls-2" d="M310.52,308.39c0-.84.06-2.76.06-3.92v-.88c0-1,0-1.61-.06-2.35l-1.49-.17v-.65l2.54-1.12.28.19.22,2.17v2.82c0,1.16,0,3.08.06,3.92Zm2.91-.65v.65h-4.3v-.65l2.05-.37h.37Zm4.31-5v1.72c0,1.2,0,3.08.06,3.92H316.2c0-.84.06-2.73.06-3.92V302.9c0-1.74-.45-2.3-1.57-2.3a4.09,4.09,0,0,0-2.76,1.29h-.39v-.84h1l-.8.34a5.06,5.06,0,0,1,3.7-2.09C317,299.29,317.75,300.28,317.75,302.75Zm-.5,4.61,1.87.37v.65h-4.3v-.65l2.05-.37Z"/><path class="cls-2" d="M327.8,308.39c0-.84.06-2.76.06-3.92v-.88c0-1,0-1.61-.06-2.35l-1.53-.17v-.65l2.82-1.12.28.19-.06,2.52v2.47c0,1.16,0,3.08.06,3.92Zm2.88-.65v.65h-4.3v-.65l2.05-.37h.37ZM327.33,296a1.23,1.23,0,1,1,1.23,1.18A1.16,1.16,0,0,1,327.33,296Z"/><path class="cls-2" d="M339.67,303.81c0,2.35,1.25,3.64,3,3.64a3,3,0,0,0,2.61-1.46l.45.22a3.35,3.35,0,0,1-3.46,2.41c-2.56,0-4.17-1.79-4.17-4.65a4.37,4.37,0,0,1,4.28-4.69,3.19,3.19,0,0,1,3.29,2.41.77.77,0,0,1-.84.69,1,1,0,0,1-1-.84l-.47-1.64.86.69a3.88,3.88,0,0,0-1.79-.47C340.83,300.14,339.67,301.42,339.67,303.81Z"/><path class="cls-2" d="M356.36,303.5a20.35,20.35,0,0,1,2.9-.78v.67a17,17,0,0,0-2.5.75c-1.68.65-1.87,1.36-1.87,1.91,0,1,.65,1.38,1.51,1.38.65,0,1-.24,2.2-1.08l.37-.28.26.39-.54.54c-1.12,1.12-1.76,1.64-2.9,1.64a2.28,2.28,0,0,1-2.5-2.33C353.3,305.25,353.86,304.41,356.36,303.5Zm2.15,3.18v-4.26c0-1.83-.52-2.28-1.76-2.28a4.34,4.34,0,0,0-1.68.34l.75-.58-.49,1.61c-.17.54-.45.84-1,.84a.76.76,0,0,1-.84-.75c.36-1.42,1.74-2.3,3.61-2.3s2.86.88,2.86,3.23v4c0,.84.26,1.14.69,1.14a.92.92,0,0,0,.73-.41l.37.41a1.74,1.74,0,0,1-1.59,1A1.7,1.7,0,0,1,358.51,306.67Z"/></g><g class="cls-1"><path class="cls-2" d="M80.63,242.5c-1.21-.1-1.72.2-2.32,1.72-1.92,4.85-3.84,9.6-5.76,14.55a157.55,157.55,0,0,1-9.09,19.09,17.62,17.62,0,0,1-1.51,2.32,10.13,10.13,0,0,1-.71-5.86c.5-6.06,1.21-12.12,1.82-18.08.4-3.13.81-6.06,1.11-9.09.61-.1,1.11-.1,1.61-.2,1.52-.5,2.12-1.41,1.41-3a5.57,5.57,0,0,0-1.31-1.82,1.73,1.73,0,0,1-.61-2c1.41-7.27,2.73-14.85,4.24-22.12,2.42-11.11,4.95-22.22,6-33.54.2-3,.3-5.86-.81-8.69a9.2,9.2,0,0,0-15.25-2.63,75.87,75.87,0,0,0-5.15,6.46,67.56,67.56,0,0,0-7.37,13.84c-2.52,5.86-4.65,11.92-7.07,17.68-3.23,7.78-6.57,15.56-9.9,23.33l-.5.91a39.57,39.57,0,0,1-3.74-3.43,6.6,6.6,0,0,0-5.76-1.82c-1.41.1-2.12,1-1.41,2.42A12.11,12.11,0,0,0,21,235.84c1.62,1.41,3.43,2.42,5.15,3.74a7.53,7.53,0,0,0,1.21.71,1.3,1.3,0,0,1-.1.71c-2.53,6.06-5.15,12.12-7.78,18.18a43.09,43.09,0,0,1-6.77,11.11c-.91.81-1.92,1.51-3.13,2.63-.3-1.51-.71-2.63-.91-3.84,0-3.23-.1-6.46.2-9.7.51-8,2.93-15.25,6.16-22.32a19.28,19.28,0,0,1,2-2.73c1-1.11,1-1.72-.3-2.52C14,230.08,10,229.47,7.49,232.9a26.43,26.43,0,0,0-3.23,5.66,49.17,49.17,0,0,0-4,24.65c.3,3.23,1,6.36,3,9,3.54,5.25,10.2,5.56,14.14,1,.5-.71,1.21-1.41,1.72-2.22,1.11-2.12,2.53-4.14,3.54-6.36,2.93-7,5.86-13.94,9-21,.2-.4.4-.91.71-1.42h.71a36.26,36.26,0,0,0,15.46.5,11.4,11.4,0,0,1,2.63,0v.81A100.53,100.53,0,0,0,50,259.87,78.74,78.74,0,0,0,51.33,276c1.11,6,5.25,9.29,10.91,9.09a5.4,5.4,0,0,0,4.65-2.83c1-1.92,1.92-3.54,2.83-5.46l12-31.62a3.22,3.22,0,0,0,.3-.91C82.24,243.21,81.84,242.7,80.63,242.5ZM53.76,227.85c-.6,3-1.21,6.36-1.72,9.39l-.61.2a34.93,34.93,0,0,0-12.12.3c-.71,0-1.41.1-2.12.1l-3-.4c.2-.61.3-1.11.5-1.62,3.33-8.69,6.57-17.48,10.61-26,3.54-7.68,7.17-15.25,11.11-22.83a49.22,49.22,0,0,1,7.07-10.3,12.78,12.78,0,0,0,1.31-1.11.61.61,0,0,0,.4.1l-1.11,5.86c-1.41,6.06-3,12.32-4.44,18.38Z"/><path class="cls-2" d="M366.29,233.31c-1.92-.4-2.42,0-3,1.82a7.64,7.64,0,0,1-1.11,2.63c-4.14,5.35-8.38,10.81-12.42,16.36-2.73,3.54-5.25,7.07-8.08,10.61-.81,1.11-2,2.12-2.93,3.23h0a1.34,1.34,0,0,1-.5-.3,24.43,24.43,0,0,1,1-7.07,94.68,94.68,0,0,1,11.92-23.13,28,28,0,0,1,6.36-6.57,52.4,52.4,0,0,1,4.65-2.53,3.31,3.31,0,0,1,3.94,1.31,7.39,7.39,0,0,0,2.83,1.92,1.79,1.79,0,0,0,2.42-.51,1.85,1.85,0,0,0,.1-2.42,12.27,12.27,0,0,0-2.83-3.23,29.84,29.84,0,0,0-6.16-3.23,12.42,12.42,0,0,0-10.2.71,25.42,25.42,0,0,0-7.78,5.86,61.9,61.9,0,0,0-14.24,27.17c-.07.32-.13.64-.19,1-1.43,3.13-2.87,6.25-4.36,9.34a96.87,96.87,0,0,1-6,10.5,28.3,28.3,0,0,1-3.23,3.84h0c-.1,0-.3-.2-.5-.2,0-.81-.2-1.62-.2-2.53a64.82,64.82,0,0,1,1.62-13c1.82-8.59,3.64-17.37,5.66-26a25,25,0,0,0,.4-8.69,4.42,4.42,0,0,0-.91-1.82c-1.62-1.72-6.16-2.42-8.18-1.21a4.68,4.68,0,0,0-1.51,1.62,47,47,0,0,0-3.13,7.68q-1.6,6.83-3.06,13.69c-.12.35-.24.71-.37,1.06-3.33,9.29-6.77,18.59-10.3,28-.71,1.92-1.72,3.84-2.53,5.76h0c-.2,0-.3,0-.4-.1a35.45,35.45,0,0,1,0-11.31c1.11-8,2.32-15.86,3.64-23.74a100.87,100.87,0,0,0,1.42-16.46,22.75,22.75,0,0,0-1.52-7.88c-2.32-6.06-10.81-8.18-15.45-2.83a36.76,36.76,0,0,0-5.35,7.78,114.74,114.74,0,0,0-8.49,20.91c-1.41,4.85-3,9.6-4.54,14.55a4.17,4.17,0,0,1-.71,1.31c.1-3.84.61-7.47.71-11,.4-6.87,1-13.64,1.11-20.51a28.13,28.13,0,0,0-.81-7.07,3.76,3.76,0,0,0-3-3.13,8.4,8.4,0,0,0-3.23-.71c-2.12-.2-3.13.5-3.64,2.63a7.68,7.68,0,0,0-.3,2.12c-.56,5.85-1.2,11.69-1.79,17.54a34.54,34.54,0,0,1-6.5,6,19.84,19.84,0,0,1-2.83,1.51l-.3-.3c.3-.5.51-1.21.81-1.82,3.13-7.78,5.86-15.56,6.26-24a21.45,21.45,0,0,0-3.23-13.13c-4.85-7-11.61-9.8-20-8.49-5.76.81-10.4,3.94-14.14,8.38a24.48,24.48,0,0,0-5.35,16.26,5.13,5.13,0,0,1-.3,2.22,40.28,40.28,0,0,0-4.64,20.51c0,.17,0,.33,0,.5-2.41,7.31-4.92,14.61-7.61,21.72-1.11,2.93-2.53,5.76-3.74,8.59-.5.71-1,1.31-1.72,2.33h0a13.48,13.48,0,0,1-.2-5.25,16.05,16.05,0,0,0,.61-3.74c.81-10.4,2.93-20.71,4.65-31.11a172.63,172.63,0,0,0,2.43-17.88,20.75,20.75,0,0,0-.71-5.66,6.59,6.59,0,0,0-1.52-2.73,7.48,7.48,0,0,0-10.5.81,55.77,55.77,0,0,0-4.85,6.87,116.52,116.52,0,0,0-9.7,22c-1,3.13-2.12,6.26-3.23,9.5l-.5,1.11a5,5,0,0,1-.2-1.72l1.21-8.49a159.26,159.26,0,0,0,2-19.5,17,17,0,0,0-1.31-7.37,7.42,7.42,0,0,0-8.59-3.94,3.63,3.63,0,0,0-2,1.11,32.08,32.08,0,0,0-3.54,4.55A111.87,111.87,0,0,0,145,240.27c-3.13,8.28-6.57,16.36-9.8,24.55a21.47,21.47,0,0,1-1.11,2.12,2.64,2.64,0,0,1-.4-1.52l.4-10.61a116.38,116.38,0,0,1,1.82-15.56c.6-3.54,1-7.07,1.41-10.61a2.37,2.37,0,0,0-1.31-2.52,7.59,7.59,0,0,0-5.15-1,2.73,2.73,0,0,0-2.32,1.52c-.5,1.62-1.21,3.13-1.82,4.75A98.73,98.73,0,0,0,123,248.92l-4.57,9.34c-.71,1.51-1.11,3-1.82,4.44-3.23,7.07-6.36,14.34-9.7,21.21-2.12,4.44-4.55,8.48-7,12.63a18.51,18.51,0,0,1-4.64,5.25,22.67,22.67,0,0,1,.4-7.47c1.41-8.38,3.23-16.77,5.25-24.95a71,71,0,0,0,2.12-16.57c-.2-3.64-1-7.17-3.84-9.9-1.31-1.21-2.83-2.52-4.34-3.74-1-1-2.32-1.72-3.43-2.63a10.28,10.28,0,0,1-4.14-8.28,40.35,40.35,0,0,1,1.31-9.9c.4-1.72.1-2.53-1.41-3.23-3.54-1.62-6-.91-8.08,1.92a32.72,32.72,0,0,0-2.93,5.56,11.38,11.38,0,0,0,.1,9.59A14.91,14.91,0,0,0,80,237.14a37.5,37.5,0,0,0,5.66,4.24,9.3,9.3,0,0,1,4.95,9.6c-.51,3.54-.91,7-1.41,10.3-1.31,6.87-2.83,13.43-4,20.3a117.84,117.84,0,0,0-1.41,11.82,19.9,19.9,0,0,0,.71,7.68,8,8,0,0,0,7.27,5.35,12.37,12.37,0,0,0,11-5.25,43.8,43.8,0,0,0,4.24-7.37c2.93-6.36,5.66-12.83,8.59-19.29l6.92-15.38a20.06,20.06,0,0,0,2.17,8.81,11.8,11.8,0,0,0,3.44,4.24c3.84,2.53,8.18,1.72,10.61-2.12a22.56,22.56,0,0,0,2.42-5c2.52-6.77,5-13.74,7.47-20.61a78.37,78.37,0,0,1,6.67-14.85l1-1.31a3.83,3.83,0,0,1,.1,1.82c-.81,5.66-1.72,11.31-2.42,17-.51,4.44-1,9-.1,13.43a21.28,21.28,0,0,0,1.51,5.66c2.43,4.55,9.19,4.85,11.72,1.21a21.63,21.63,0,0,0,1.92-2.63c.91-1.92,1.82-4,2.63-6.06l6.77-18.69c1.41-3.33,3-6.77,4.55-10.1a3.69,3.69,0,0,1,1.41-1.92v1c-1.11,6.57-2.12,13.13-3.33,19.7a131.33,131.33,0,0,0-3,30.1,57.28,57.28,0,0,0,.91,7,5.7,5.7,0,0,0,3.94,4.44c2.93,1,8.28.51,10.61-3.64a36.77,36.77,0,0,0,3.13-7.37q2.84-8.92,5.52-17.92a19.69,19.69,0,0,0,4.69,7.72A15.07,15.07,0,0,0,218.1,274a18.39,18.39,0,0,0,15.35-7.17,53.4,53.4,0,0,0,5.15-7.37,4,4,0,0,1,2.63-2.12,15.71,15.71,0,0,0,4.14-1.52,21.33,21.33,0,0,0,5.19-3.48c-.08.86-.16,1.71-.23,2.57a40.76,40.76,0,0,0,.5,12.63,20.86,20.86,0,0,0,4,8.39c1.92,2.22,7.58,2.93,9.7-.91a21,21,0,0,0,2.53-5.25c1.31-3.33,2.42-6.77,3.43-10.3a170.76,170.76,0,0,1,7.07-20.61,70.16,70.16,0,0,1,7.17-12.93,5,5,0,0,1,1.92-1.41v3.74c-.5,4.34-.91,8.79-1.41,13a236.14,236.14,0,0,0-2.63,25.46c-.2,4.95-.4,10,.5,14.95a19.94,19.94,0,0,0,2.32,6.77,5.62,5.62,0,0,0,3.74,2.53c2.83.3,5.46-.2,7.37-2.63a18.4,18.4,0,0,0,2.83-4.65c1.41-3.54,2.53-7.37,3.64-10.91.47-1.35.71-2.75,1.12-4.07a35.35,35.35,0,0,0,2.62,10.74,8.88,8.88,0,0,0,14.95,2.32,42.79,42.79,0,0,0,5.35-8.69l2.9-6.76a21.55,21.55,0,0,0,.74,2.72c1.41,4.24,8.48,7.37,12.63,2.63a90.39,90.39,0,0,0,6.16-7.78c2.73-3.54,5.15-7.27,7.68-10.91a7.66,7.66,0,0,0,.81-1.11,44.06,44.06,0,0,1-1.92,7.17,117.21,117.21,0,0,0-4.24,17.58,13.3,13.3,0,0,0,1,9.19,7.71,7.71,0,0,0,7.47,4.44,5.88,5.88,0,0,0,2.93-.91c1.11-.71,1-2-.3-2.63a12.64,12.64,0,0,0-2.32-.81c.1-.81.1-1.72.2-2.52,1.41-5,2.73-9.8,4.24-14.75,2.32-7.17,4.75-14.55,6-22a18.18,18.18,0,0,0,.3-8.38A5.89,5.89,0,0,0,366.29,233.31ZM222.45,270c-2.53,1.11-4,.71-6-1.41a12.58,12.58,0,0,1-3-7.68,38.58,38.58,0,0,1,.4-10.2,1.09,1.09,0,0,0,.4-.5h0a32.64,32.64,0,0,0,19.19,8.08C230.42,263.2,227.7,267.85,222.45,270ZM241,237.25a70.82,70.82,0,0,1-5.45,17l-.81,1.31a23.68,23.68,0,0,1-18.48-11.41,2.79,2.79,0,0,1-.5-2.42l2.12-6.36c.3-1,.71-2,1-3,.61-1.42.3-2.12-1.11-2.83A16.82,16.82,0,0,0,216,229l-2.12-.4h0c1.82-7.68,5.66-13.43,12.53-16.87a5.94,5.94,0,0,1,6.67.3c4.95,2.93,7.07,7.47,8.18,12.83C242.14,229,241.74,233,241,237.25Z"/></g><path class="cls-3" d="M332,258.4l1.38-1.14A4,4,0,0,0,332,258.4Z"/><path class="cls-3" d="M510,136.32c-2.2,0-3.89.6-5,3.06l-1.24-4-1.45,2.9-3.25-3.56c2.74-.41,4.13-2.61,4.86-6-3.52-.18-6.1.88-6.83,5.38l-1-6.77-.58-.06-1.92,4.24-1-2.63c-2.9,1.86-3.68,4.38-2.65,8.16a2.08,2.08,0,0,1-.12,1.47c-2.8,3.65-6.1,6.43-10.56,7.5a17.87,17.87,0,0,1,.82-1.84c2-3.39,3.93-6.83,4.1-11.31.08-2-.27-4.11-.35-6.17-.05-1.19,0-2.37.05-3.76,2.1,1.14,3.48.36,4.48-1.77L487.31,120l2.21-1.76-3.14-1.63c2-.78,2.25-3,2.28-5.65-1.9.05-2.73,1.48-3.33,3.28l-1.25-2.11h-.48l-.32,4.91-1.71-2.12c-.14,2.77-.48,5.17,1.56,7.11a1.17,1.17,0,0,1,.33.71c0,3.67-.07,7.34-.13,11a4.63,4.63,0,0,1-.27.89l-3-3.46-.25.24a12.6,12.6,0,0,0,1.74,2.61c1.47,1.29,1.34,2.52.58,4-.27.51-.48,1.07-.86,1.91l-.11-4-.38-.34-3.36,4.2-.31-.2a15.52,15.52,0,0,0,1.73-3.76,25.71,25.71,0,0,0,0-4.95l-.54-.24-2,3a7.58,7.58,0,0,0-3.51-6.65c-1.12,3.14-.25,5.76,2.78,8.78l-4.57.29-.06.58,2.75,3-1.7.7c1,4.22,2.67,5,7.7,3.3l-3.3,10L473.51,149l-.74,5.38c.18-3-1.27-4.73-3.48-6.3l-.09,3.3q-2.53-2.52-5.36-1.27c1.11,2.85,2.85,3.92,5.43,3.54l-2.8,3.49,3.48,0c-.33,1.53-1.26,2.09-2.36,2.82a91,91,0,0,0-7.33,5.94c-.13-1-.38-2.23-.43-3.43-.22-5.8.55-11.19,3.13-15.93a27,27,0,0,0,3-13.66c-.08-3.3.86-6,1.8-9,2.64-8.18,8.55-11.89,14.17-16,1.12-.82,2.89-.61,4.38-.55,1.85.08,3.73.66,5.58.72s3.94-.23,6-.37a18.71,18.71,0,0,0,1.77,3.69c.86,1.15,2.12,1.86,3.58,3.08l0-3.68c.58.73,1.1,1.43,1.66,2.07a7,7,0,0,0,2.25,1.81l-1-6.7c.89.84,2,2.47,3.41,3.09s3.16.39,4.92.53c-1.48-3.82-3.52-5.29-6.91-5.34l2.19-3.7c-3.3-1.17-5-.45-6.62,2.55-.19.34-.77.33-1.24.51l2.85-6.33c-3.76-.56-6,1.45-6.52,5.27-.08.59-.49,1.4-.9,1.51a14.79,14.79,0,0,1-5.14.89,55.55,55.55,0,0,1-7.52-1.77l1.67-2.35c3.58,1.11,4.72.57,6.08-2.93l-1.52-.75,2.62-2.68L489.21,96c2.22-1.07,2.63-3.58,2.17-6.88-2.09.82-3.23,2.37-3.35,5.07l-1.9-2.23-.58.07.3,5.87-2-2.08-.64.5,2,7-7.63,4.82c.5-4.42.73-8.36,1.5-12.08.28-1.33,1.74-2.4,2.88-3.1,3-1.85,6.29-3.28,9.28-5.21a7.93,7.93,0,0,0,2.43-3.62,36.34,36.34,0,0,0,1.42-5.43,4.93,4.93,0,0,0-.07-1.32c-.11,2.66-2,2.9-3.51,3.58l.95-4.68-.39-.56L487.7,79c2.08-3.55.8-6.79-1.42-10-1.78,2.9-1.73,5.68.06,8.9l-3.62-1.21-.35.62a23.49,23.49,0,0,0,2.53,4.37c.9,1,2.28,1.33,3.31,2.31L483,83.07l-.34.68,4,5.11L482.84,91l-1.55-6.57-1.85,2-.4-5.21-.54-.41-3.21,5.37c1-4.48-1.08-7.31-4.17-9.57-.88,3.65-.13,6.2,3,9.39l-3.95-1.14-.79.74-.8-4.67-1.34,1.61-3.29-3.6-.65.51L465,84.5l-1.88,1,2,1.75-.87.81c1,2.21,2.53,3,4.24,2.65,1.78,3.52,3.77,6.83,5.18,10.42,1.91,4.88,2.27,7.71-1,11-2.49,2.47-4.92,5-7.36,7.52-.65-2.77-1.3-5.45-1.92-8.15q-1.61-7-3.19-14.07c-.92-4.1-.82-7.88,1.15-11.29a7.59,7.59,0,0,0,.68-3.74,4.51,4.51,0,0,1,1.57-4c2.74-2.2,5.42-4.52,8.21-6.65,4.74-3.61,6.56-9.36,7.24-16a1.42,1.42,0,0,0-.14-.51l-3,9.86-3.12-8.75c2.34-1.78,2-4.56,1.07-7.9l-1.6,2.21-1.05-5.54-.81-.32-.56,3.2-1.9-3.14,2-8.54c3,1.18,4.4-1.4,5.95-4.75l-5,.54-.69-.3c.31-.17.6-.5.92-.49,2.87.06,3.36-2.54,4.07-5.46l-3.27.81a8.56,8.56,0,0,0-1.05-7.91c-2.12,2.53-2.22,5-.35,9.23a21.39,21.39,0,0,0-2.17-2.12,18,18,0,0,0-2.65-1.3L467.14,29l-1.67-.47a6.43,6.43,0,0,0,2.43,6.76,2,2,0,0,1,1,2.38c-.45,2.17-1,4.32-1.44,6.48l-2.24-.84c-.1.16-.24.3-.22.35.85,2.28-.1,3.56-1.26,5-1.51,1.85-2.75,4-4.32,6.37-.26-1.33-.87-2.84-.72-4.13a39.21,39.21,0,0,1,1.56-7c1.82-5.93,1.87-5.9,1.18-12.84,2.72-1.86,3.34-4.15,2.19-8.43a25.35,25.35,0,0,0-1.77,1.9c-.52.68-.95,1.49-1.41,2.24l-.42-.27a10.28,10.28,0,0,0,1-2.13,8.53,8.53,0,0,0,.21-2.88,27,27,0,0,0-1-3.61l-1.92,3a19.08,19.08,0,0,0-1.86-3.44,19,19,0,0,0-3.26-2.52c.49,4.11,1.15,7.31,4.6,8.22l-4.81.69-.05.52,2.9,2.35,0,.59-2.45-.06-1.44,2a7.2,7.2,0,0,0-.67-5.89L450.2,24.9c-1.06-1.15-2.12-2.28-3.14-3.44a2.31,2.31,0,0,1-.56-1c-.28-1.54-.49-3.1-.75-4.8,2.85-1.38,2.42-4.58,1.75-8.14l-3.2,4c1.09-2.55,1.77-5.25-.13-8.46l-1.89,2.8c-.49-3.22-2.36-4.75-4.74-5.81,0,4.39,1,6.11,4.2,7.92L437,8.51l-.08.88,3.53,2.08-1.92,1c1.46,3.3,3.14,4.26,6.63,3.7,1.7,5.85-.34,11.62,1.17,17.53A23.06,23.06,0,0,1,435.32,23a12,12,0,0,0-1.89-2.69,11.12,11.12,0,0,1-2.89-4.26c-.78-2.26-2.84-3-5-3.52l1.1,3.75L421.49,14l-.37.67,1.46,3.3c-2.48-.51-4.24.67-5.58,2.89,2.8,2,4.74,1.64,7.16-1.07l-.84,5.41.5.32,2.79-2.41.17,2.17c2.88,0,4.31-1.9,4.58-6.42a34.26,34.26,0,0,1,3.38,4.4,24.54,24.54,0,0,0,9.81,10.26c1.36.75,2.65,1.76,4,2.65,4,2.69,5.73,7.09,7.08,12,1.44,5.24,3.28,10.37,4.93,15.55,1,3.14.59,6.53-1.08,8.49l-7.72-12.8c1.85-2.94,1.78-4.92-.58-9.1l-1.86,5.66A3.61,3.61,0,0,1,449,54.7c.66-3,.22-4.54-2.25-7.21l-.83,3.71a5.92,5.92,0,0,0-6.08-3.63c1.27,3.68,3,6.08,6.27,5.75l-4.56,2.81,2.06,1.1-1.16,2.6c-.69-3.33-2.35-5.11-4.75-6-.26,3.85,1,6.23,4.48,8l-4.29-.1-2-8.57c2.5-2.34,1.36-5.43-.23-9.15l-2.28,6.08c.1-2,.46-3.4.17-4.7a20.19,20.19,0,0,0-1.88-4.09l-.51.07L430.31,45a5.93,5.93,0,0,0-5.8-4c.44,3.48,2.27,5.38,5.9,6.17l-3.79,1.71-2.2-2.43c0,2.46,0,4.39,0,6.33l-.19.07A18.25,18.25,0,0,0,423,48.81a16,16,0,0,0-2.83-3l-.48.25.34,3.76a5.2,5.2,0,0,0-6.44-.87c2,3.32,3.74,4,7.15,3.08l-3,4-3.1-1.79c.44,3.89,1.2,7,4.73,7.86l-4.81.85,0,.63,3.18,2.29L416,67l1.52,2.1-1.15,6.74c-.27-.57-.69-1.09-.61-1.36,1-3.53-.92-5.57-3.29-8.21l-.26,5.33-1.44-3.32c-.7-1.63-1.34-3.29-2.12-4.87a5.07,5.07,0,0,1-.64-3.77c.55-2.3-1.13-5-4.16-6.77l.67,6-.34.17a12.38,12.38,0,0,0-.63-2.51,7.82,7.82,0,0,0-1.67-2.28,19.54,19.54,0,0,0-2.77-1.77l1.07,4.55a4.9,4.9,0,0,0-6-.67c-.52.26-1.34-.23-2.43-.46l.37,4.84-.16-.16c-.9-2.51-2.11-4.72-5-5.21l.51,3.37a13.22,13.22,0,0,0-3.27-.75,13.87,13.87,0,0,0-3.46,1.06L383,61.2l-1.41,5.68c-.22-.57-.64-1.18-.54-1.43,1.4-3.31-.34-5.63-2.42-8.47l-.88,4.71c-1.64-3.29-3.66-4.57-6.63-4.11,1,4,2.7,5.57,7,6.32l-4.16,2-4.14-3.81-.11,3.32-3-3.61a15.62,15.62,0,0,0,1.13-1.49c1.11-1.7,1.9-3.57,2.89-5.48a18.52,18.52,0,0,0,4.09.36c1.44-.15,2.72-.89,4.54-1.54l-3.16-1.88c.93-.13,1.8-.22,2.65-.38a7.17,7.17,0,0,0,2.75-1l-6.27-2.59c1.19-.34,3.19-.5,4.46-1.38s2-2.57,3.07-4c-4.05-.68-6.4.34-8.24,3.29l-2-3.84c-2.76,2.28-3,4.11-1.34,7.12.19.34-.13.84-.23,1.35l-3.9-5.78c-2.47,3-2,6,1,8.44.46.37.93,1.15.81,1.56a15.49,15.49,0,0,1-2,5,45.17,45.17,0,0,1-4.87,5,5.8,5.8,0,0,0-.9,0l-.86-2.05c2.85-2.56,3-3.84.72-6.84l-1.44.94-.9-3.69L356,56.4c.26-2.5-1.67-4.16-4.73-5.47-.41,2.26.31,4.06,2.56,5.56l-2.91.51-.25.54,5.18,2.78L353,61l.09.82,7,1.87v1c-.27.07-.54.14-.82.24.29.58.57,1.08.84,1.52,0,2,0,4.11,0,6.38-3.51-2.73-6.76-5-9.54-7.58-1-.93-1.13-2.77-1.12-4.13,0-3.63.54-7.21.47-10.84a7.92,7.92,0,0,0-1.8-4,35.64,35.64,0,0,0-3.89-4.06,4.81,4.81,0,0,0-1.16-.63c2.21,1.48,1.44,3.22,1.2,4.93l-3.5-3.25-.69.06.56,5.55c-1.93-3.66-5.38-4.22-9.32-3.95,1.53,3.06,3.94,4.47,7.64,4.56l-3,2.54.34.63a23.36,23.36,0,0,0,5.08,0c1.33-.28,2.35-1.31,3.73-1.7l-3.56,4.11.4.65,6.52-.89-.24,4.45-6.44-2.05.74,2.67-4.66-2.35-.64.26,2.89,5.6c-3.31-3.17-6.82-2.84-10.4-1.31,2.65,2.67,5.23,3.32,9.6,2.29l-3.07,2.87.21,1.07-4.41-1.72.67,2-4.83,1,.09.83,5.26,1.12-.14,2.17,2.57-.87.23,1.18c2.44.23,3.92-.66,4.52-2.34,4,.27,7.84.24,11.66.87,5.19.86,7.8,2,8.83,6.56.79,3.46,1.68,6.91,2.52,10.34-2.71-.86-5.35-1.69-8-2.54q-6.87-2.23-13.72-4.5c-4-1.32-7.18-3.37-9-6.87a7.44,7.44,0,0,0-2.84-2.54,4.46,4.46,0,0,1-2.62-3.46c-.42-3.55-1-7.09-1.32-10.64-.57-6-4.52-10.59-9.81-14.63a1.4,1.4,0,0,0-.51-.14L322.48,52l-9.14-1.81c-.28-3-2.84-4.11-6.19-5l1,2.55-5.29-2-.7.55,2.44,2.15-3.7,0-6.25-6.17c2.62-2,1.15-4.58-.9-7.67l-2.21,4.69-.62.45c0-.36-.11-.79.07-1.06,1.57-2.49-.39-4.26-2.5-6.4l-1,3.28a8.39,8.39,0,0,0-7.32-3.18,8.4,8.4,0,0,0,.66,1.52l-1.88,1.21a5.55,5.55,0,0,0-3.9-4.46c-1.12,2.53-.29,4.47,2.34,5.87l-4.8-.21-.28.58,3.14,2-2.09.26a5.08,5.08,0,0,0,1.25,2.15l-.7-.18,1.51,3.22a18.94,18.94,0,0,0-3.93-.15,19.36,19.36,0,0,0-3.88,1.55c3.77,1.7,6.86,2.78,9.47.23l-2,4.57.42.32,3.55-1.32.49.33L278.2,52l.92,2.29a7.05,7.05,0,0,0-5.39-2.47l.76,1.87c-1.55.33-3.07.67-4.61,1a2.3,2.3,0,0,1-1.16,0c-1.47-.55-2.91-1.17-4.5-1.83.34-3.21-2.63-4.49-6-5.76l1.69,4.86c-1.57-2.22-3.46-4.18-7.05-4.26-.46-.4-1-.81-1.6-1.25l-.44,3.76a6.27,6.27,0,0,0-.74.09,5,5,0,0,0-.79-2c-.78-1-2.19-1.7-3.79-2.87v3.76a8,8,0,0,0-7.84-.82C239.49,51,241.56,51.6,246,51l-3.91,3.41.33.44,4.5-.39-1.14,1.64c3.47,1.21,6.17.65,7.91-1.6a8.4,8.4,0,0,0,1.07-1.72l.75-.41-2,4.41.71.53,3.65-2-.2,2.18c3.6.43,5.32-.54,6.69-3.89,5.9,1.54,9.75,6.32,15.61,8.06a23.38,23.38,0,0,1-15,4.16,12,12,0,0,0-3.3.26,11.11,11.11,0,0,1-5.17.32c-2.35-.48-4,.94-5.67,2.57l3.79,1-4.72,3.29.37.67,3.59.43c-1.76,1.91-1.68,4.06-.49,6.38,3.19-1.43,3.92-3.3,2.89-6.83l4.18,3.54.54-.27-.58-3.69,1.94,1c1.49-2.55.67-4.76-3.06-7.34a34.38,34.38,0,0,1,5.56-.68,24.81,24.81,0,0,0,14-3.27c1.37-.8,2.91-1.41,4.37-2.11,4.41-2.09,9.1-1.34,14,0,5.25,1.45,10.61,2.5,15.92,3.74a10.16,10.16,0,0,1,5.55,3.32l-1-.41.26,1.88-2.5.59-10.63.09c-1.53-3.14-3.26-4.11-8.09-4.21l3.85,4.56c-.44-.14-1-.17-1.2-.4-2.18-2.11-3.77-2.55-7.36-1.76l2.73,2.65a6.08,6.08,0,0,0-6.33,3.44c3.82.8,6.78.53,8.24-2.52l0,5.45,2-1.23,1.61,2.36c-3.22-1.12-5.62-.59-7.65,1.05,3.16,2.22,5.87,2.33,9.24.23l-2.36,3.7-8.4-2.67c-.67-3.41-3.92-4-8-4.54l4,5.15c-1.62-1.1-2.66-2.16-3.93-2.59a20,20,0,0,0-4.5-.47l-.21.48,2.66,2.64a6.07,6.07,0,0,0-6.48,3c3.21,1.42,5.81.8,8.41-2l-.55,4.21-3.24.66,5.39,3.31,0,.2a17.93,17.93,0,0,0-4.15-1,16.21,16.21,0,0,0-4,.95l0,.55,3.4,1.65a5.42,5.42,0,0,0-4.16,5.19c3.88,0,5.44-1.18,6.43-4.66l1.82,4.64-3.18,1.79c3.56,1.63,6.65,2.6,9.23-.07l-1.82,4.66.56.29,3.65-1.6c0,.79,0,1.41,0,2.18l2.6-.24,5.16,4.5c-.63-.06-1.3,0-1.48-.17-2.48-2.71-5.26-2.08-8.76-1.38l4.42,3-3.6-.46c-1.76-.23-3.53-.53-5.29-.67a5,5,0,0,1-3.56-1.39c-1.67-1.68-4.84-1.59-8,.13l5.49,2.53,0,.38a12.13,12.13,0,0,0-2.49-.75,7.83,7.83,0,0,0-2.83.28,20.07,20.07,0,0,0-3,1.51l4.46,1.42a5.12,5.12,0,0,0-3.78,4.94c-.06.59-.91,1.06-1.68,1.89l4.67,2.35c-2.82-.6-5.58-.87-7.66,1.55l3.16,1.3a13.82,13.82,0,0,0-2.38,2.48,14.47,14.47,0,0,0-.93,3.58l3-.89,4.11,4.18c-.61-.1-1.35-.05-1.51-.27-2.09-2.94-5-2.62-8.53-2.27l3.56,3.21c-3.68-.27-5.85.84-7,3.68,3.95,1.21,6.19.52,9.14-2.88l-.49,4.68-5.46,1.65,2.78,1.82-4.72.78-.19.56,6.1,2.67c-4.21-.46-6.38,1.48-7.14,4.9,4.12.27,5.51-.3,7.39-3l1.65,3.51c2.8-1.68,3.29-3.76,1.75-6.39-.2-.34,0-.8,0-1.39l3.5,5.85c2.69-3.7,2.22-6-1.45-9.07l18.19-5,.38.54c-3,1.24-3.66,3.53-3.36,6.27,3.68-.38,5.09-2,5.4-6l3,5.06.55-.15.75-4.11,1.84,2c.93-1.64,1.63-3,4.46-2.57,2.27.31,3.7,1.38,5.42,2.32l-12.82,9.2c-3.07-2.37-5.16-2.54-9.3-.79L293.4,153l0,.24a17.92,17.92,0,0,0-4-.62,21.37,21.37,0,0,0-4.21,1.12l.27.83,3.16,1.31a12.53,12.53,0,0,0-2.22,2.41,13,13,0,0,0-.79,3.28c3.8-.22,5.46-1.91,5.75-5.86a19.3,19.3,0,0,0,1.15,2.76,20.48,20.48,0,0,0,2,2.31l1.19-3.72,1.38,1.45c2.48-1.67,2.63-3.9.49-7,4.49-2.87,8.72-6.09,13.55-8.54,5.49-2.78,11.69-4.12,18.76-1.93a51.92,51.92,0,0,0,6.8,1.1c-6.43,1.51-7.73,6.4-10.81,10.24-2.81-2.67-5.79-2.71-9-1.35l1.82,1.84-4.67,0-.31.43,5.25,3.44c-4.12-1.15-6.38.66-8.08,3.4,3.29,1.12,5.8.56,7.91-1.65l.81,3.5.65.25c.9-1.06,2.11-2,2.62-3.23s.1-2.45.4-3.61l2.1,5.35c3.08-2.92,3.31-5.28,1.06-7.73,1.52-2.11,2.94-4.3,4.61-6.32a12,12,0,0,1,8.19-4,5.56,5.56,0,0,1,2.66.45c3.45,1.51,6.66,3.4,8.71,6.32s5.55,3.62,9,5.22c-5.07,1.42-9.1,4.34-14.83,3.73a3.1,3.1,0,0,1-1.63-.63c-3.06-2.88-5.35-3.34-9.14-1.65l1.78,1.78h-4.73l-.29.45,5.15,3.4c-4-1.05-6.27.66-8.06,3.56,3.34.85,6,.52,7.91-1.71l1,3.63c3.15-1.63,4.32-3.8,2.75-7.19l.83.35c.6,1.54,1.23,3.07,1.79,4.61a1.12,1.12,0,0,1-.17.83c-1.38,2.54-2.78,5.07-4.22,7.66-4.06-.25-5.81.78-7.17,4.65l6.34-.95c-2.72,1.19-5.27,2.55-4.82,6.08l3.75-.86c-1,2.55-.18,4.8,2,6.9,2.48-2.37,2.39-4.58-.5-8.43a31.4,31.4,0,0,0,3,1.82,35.15,35.15,0,0,0,3.54,1.15l-2.39-4.22,2.6.6-.28-1.86,4.49-1.36c-1.19,2.22-.09,4.47,1.77,6.75,2.28-1.77,2.56-3.64,1.06-7l4,1.27.41-.34a19,19,0,0,0-2.59-3.82c-1-.9-2.55-1.35-3.68-2.23l6.28,1.37c-1.11-3.16-3.53-4.92-7.09-5.32-.49-1.65-1.06-3.3-1.42-5a1.67,1.67,0,0,1,.68-1.4c3.9-3.07,8.77-4.84,14-5.85,1.71-.33,4,.61,6,1.18,5.23,1.51,10.48,3,15.63,4.75a38.16,38.16,0,0,1,7.12,3.38c2.73,1.62,5.19,3.61,7.88,5.3a25.47,25.47,0,0,1,11.72,16.13A84.65,84.65,0,0,1,411.76,199c.37,4.3.72,8.54,3.63,12.53a5,5,0,0,1,.76,1.93c1.79,8.66,1.27,17.12.66,25.4-2.3-2.26-4.71-4.46-7-6.75-.43-.46-.86-.9-1.26-1.31s-.86-.92-1.27-1.4a26.4,26.4,0,0,1-4-6.67c-2.79-6.17-5.69-12.29-10.05-17.94a1.83,1.83,0,0,1-.37-1.61c1.58-3.09,1.16-4.77-2.47-7.89l-1.09,5.26-.34.3c-.13-.39-.46-.84-.36-1.16.88-2.84-1.49-4.34-4.16-6.3l-.32,3.79c-2.3-2.37-5.07-2.77-8.09-2.29,1.69,3.1,3.82,4.11,8.57,4.23l-4.44,3,.34.51,4.73.36-1.4,1.5c2.9,1.76,5.09,1.77,8.53-.07l3.83,7.09c-5.88-3.54-12.35-4.93-18.67-6.76-5.08-1.48-10.1-3.19-15.11-4.78.58-3.82-.53-5.65-4.86-7.8l.61,5.56c-.34-.3-.83-.53-.89-.8-.74-2.94-2.19-4.25-5.92-5l1,3.47c-3.47-1.71-5.71-1.79-8.39-.23,3.25,2.75,5.44,3.19,10,1.79a18.38,18.38,0,0,0-2.38,2,18.55,18.55,0,0,0-1.51,2.74l5-.87-.7,1.83c3.17,1.15,5.41.56,7.86-2.13l5.85,2.53a33.72,33.72,0,0,1-12.59,3.72,2.67,2.67,0,0,1-1.41-.69c-3.62-2.75-7.9-2.79-11.2,0,2.65,1.81,5.4,3.13,9.38,2.67l-2.54,2.25c-3.05-3.29-3.82-3.43-10-2a13.06,13.06,0,0,0,7.86,3.5c-2,.46-4.38.54-6,1.49s-2.45,2.8-3.73,4.37c4.7,1.4,8-.26,9.55-4.07l2,5.24c3.71-2.2,4.2-5.46,1.54-8.63l1-.92,4.15,6.69c2.54-3.2,2.42-6.42.27-9.05,3.64-1,7.31-2.12,11.13-2.88a12.23,12.23,0,0,1,5.6.27c5.7,1.72,11.38,3.57,16.94,5.71,4.08,1.57,6.58,4.71,8.48,8,1.22,2.14,2.08,4.39,3.19,6.56a118.88,118.88,0,0,0,5.88,11.11c.22.33.41.67.61,1,4.6,16.68,1,49.75,1,49.75l-23.62,15.59a254.91,254.91,0,0,1,36.78,3c10.23-4.2,31.43,0,31.43,0l-10.23-9.59c.92-25.9-1.31-40.91-4.8-49.34.18-2.42.36-5,.55-7.84a73.92,73.92,0,0,0,15,4.65c.55.1,1.23.51,1.34.93.86,3.28,2.28,4.23,7.06,4.13l-2.66-4.54.06-.44c.36.2.9.31,1,.61,1.21,2.64,4,2.19,7.28,1.88l-2.26-3c3.28.23,5.63-1.28,7.59-3.6-3.32-1.15-5.58-.5-9.22,2.51l1.38-5-.59-.15-3.78,2.82.05-2c-3.34.61-5,2-6.35,5.61l-7.56-2.66c6.75-1.26,12.52-4.46,18.47-7.24,4.79-2.24,9.68-4.26,14.49-6.36,2.08,3.16,4.13,3.77,8.8,2.52l-4.13-3.65c.46,0,1-.15,1.2,0,2.5,1.66,4.45,1.66,7.73-.22L491.22,224c3.73-1,5.46-2.42,6.44-5.3-4.25.12-6.19,1.22-8.68,5.21a17.65,17.65,0,0,0,.44-3,17.69,17.69,0,0,0-.67-3l-3.16,3.88L484.9,220c-3.14,1.23-4.43,3.12-4.5,6.67l-6.06,2a33.22,33.22,0,0,1,7-10.91,2.73,2.73,0,0,1,1.51-.42c4.53-.36,7.77-3.11,8.4-7.31-3.19.41-6.11,1.24-8.8,4.16l.43-3.29c4.46.41,5.13,0,8.84-5.1a13.35,13.35,0,0,0-8.21,2.57c1.21-1.65,2.93-3.24,3.49-5s0-3.63-.09-5.61c-4.45,2-5.85,5.42-4.48,9.19l-4.93-2.54c-1.33,4,.46,6.71,4.54,7.29l-.16,1.34-7.53-2.17c.21,4,2.42,6.25,5.77,6.77-2.09,3.08-4.08,6.31-6.45,9.35a12.32,12.32,0,0,1-4.38,3.45c-5.41,2.46-10.9,4.82-16.47,6.88-4.1,1.52-8,.86-11.67-.33-.55-.18-1.09-.38-1.62-.59.13-2.05.27-4.17.39-6.35,5.63-7.32,11.1-14.82,15.49-23.41a37,37,0,0,0,3.1-7.49,30.78,30.78,0,0,0,1.15-9,58.46,58.46,0,0,1,3-20.85,8.54,8.54,0,0,1,3-3.72c2-1.61,4.61-2.37,6.18-4.4,2.7-3.49,5.93-3.53,9.54-2.71s7,0,10.33-1.2c2,3,3.28,3.57,6.36,2.66l-3.18-3.74c1.9,1.65,3.79,1.86,5.86.34l-2-2.15a5.3,5.3,0,0,0,3.34-4.65c-2.12-.66-3.64.18-5,2.9-.16-.83-.26-1.48-.43-2.11s-.4-1.22-.73-2.19l-1.6,3.08-.76-1.41c-1.22-.55-2.54,3.32-2.16,6.2-4.79,2.86-10,1.43-15.08.31.91-2.75,1.69-5.6,2.81-8.21.37-.85,1.65-1,2.47-1.57,1.55-1.05,3-2.24,4.63-3.22a3.85,3.85,0,0,1,2.21-.49c3.3.21,6.6.51,9.9.85a2.27,2.27,0,0,1,1.62.73c1.59,2.56,3,3.22,5.73,2.2l-1.57-2.3,4.25-.51.11-.6-1.9-2.11C508.48,140.69,509.52,139,510,136.32ZM469.49,90.47l1.66-2.15c2.46,2.1,2.45,2.07,5.08,1.79.32,0,.73.48,1.28.88l-5.84,1.44c2.09,2.41,4.16,3.64,6.9,3.51l-2,9.4Zm-20.3-54.53c-2.1-1.42-2.82-3.46-2.8-6.06,0-.25,0-.51,0-1L447.92,30l-1.28,1.62,5.17,3L453,39.52A33.46,33.46,0,0,0,449.19,35.95Zm7.11,10.38c-1.1-4-2.21-8-3.27-12a2.31,2.31,0,0,1,0-1.35c.62-1.42,1.32-2.78,2-4.17,1.37,2,3.24,3.56,5.84,2.51C462.07,36.81,459.92,43.79,456.3,46.33Zm5.9,5.36c1.12-1.57,2.37-3,3.41-4.34l3,2.44L465,51.35l3,2-1.19,1.22c1.41,2.31,3.11,3.19,5.38,2.49.76,2.58,1.53,5,2.2,7.5.44,1.61.17,3.06-1,3.83-3.32,2.18-6.69,4.25-10.36,6.56.08-1.37.11-2.13.18-2.87a23.92,23.92,0,0,0-1.79-12.13A7.5,7.5,0,0,1,462.2,51.68ZM340.82,70.82l-1-2.57c3.1-1.06,3.08-1.08,4.23-3.52.14-.3.8-.39,1.43-.67l-1.87,5.87c3.17-.58,5.32-1.76,6.67-4.22l7,6.59Zm6.36,97.1c-4.19,1.13-5.37,2.75-4.68,6.27l2.45-.39-1.39,3-5.28-3.59,6.36-9.61.77.19Zm-2.13-6-.49-2.8,4.58-.19Zm115.11-46.06a148.37,148.37,0,0,1,1.8,15.09c.19,3-.44,6-.69,9h-.62c-1-4-3.49-6.24-6.3-8.14a9.37,9.37,0,0,1-3-2.79,69.17,69.17,0,0,1-3.06-6.87c1.32,1.46,2.2,2.92,3.34,3.56s2.76.64,4.16.92L456,126l-2.42-3.53c3.21.52,5.16-.59,6.36-3.83-3.26-1.31-6.09-1.26-7.81,2.68l.64-6.71-.52-.22-3,3.13c-.09-1,.06-2-.29-2.45-1.36-1.85-.56-3.06.32-4.3s1.89-2.65,2.86-3.94a4.88,4.88,0,0,1,1.23-1.28c2-1.21,2.59-3.52,1.48-6.54l-1.82,1.79.15-3.44,3.15-1.38C457.62,102.49,459,109.15,460.15,115.86Zm-53.4,32.21-.13-.26c-.65-1.28-1.39-2.53-2.14-3.88a5.63,5.63,0,0,0,3.58-.82c0,2.17.59,4.42.86,6.85C408.21,149.27,407.49,148.65,406.75,148.06Zm-7.58-1.37-3.8.09-.19.4,3.89,2.64a12.59,12.59,0,0,0-3.43.37,8.76,8.76,0,0,0-2.37,1.66,9.2,9.2,0,0,0-.89-4.72c1.13-1.27,2.22-2.62,3.42-3.79a1.6,1.6,0,0,1,1.52-.14,23.38,23.38,0,0,1,3.12,1.49l-2.94.21Zm-30.84-22.07c-1.1.35-2.36,1.17-3,.87-1.72-.83-3.91-1.93-4.58-3.29-2-4-3.34-8.22-5-12.56a6.51,6.51,0,0,0,6.44-1,8.84,8.84,0,0,1,1.94-1.11c1.53-.57,3.09-1.12,4.69-1.55a36.54,36.54,0,0,1,6.8-1.56,4.87,4.87,0,0,1,5.2,3c.54,1.34,1.46,2.62,1.95,4,0,.11.09.21.13.32a9.18,9.18,0,0,0-3.16-.52c.73,3.39,2.47,5.25,5.38,5.9l-2.51,2.51.12.68c1.35.22,2.75.76,4,.56a7.19,7.19,0,0,0,2.24-1.08l.4.32-2.83,3.8a12.63,12.63,0,0,0,1.62.35,42.71,42.71,0,0,1-10.42-.88,3,3,0,0,1-1.47-1.24c-1.73-2.47-4.26-3.24-7.28-2l3.83,3a6.26,6.26,0,0,0-7.14-.12Zm-29.68,2.57a4.57,4.57,0,0,1-1.1-.45,20.71,20.71,0,0,0-8.95-5.4,1.7,1.7,0,0,1-.82-.59c-1.55-2.19-3.82-2.16-6.06-1.89-3.35.4-3.59.35-5.16-2,3.3-1.2,6.48-2.29,9.59-3.49,2.06-.8,4.16-1.68,6.56-.63,2.7,1.18,5.26,2.66,7.85,4-1.47,3.17-2,5.9,1.92,8.61l-6.78-2.16Zm-13.82-5.24-.19.74a5.65,5.65,0,0,0-6.14-1.1l-.36-2.72ZM298.68,98.42l4.15-1.15-.25,1.61,7.11.66,0,.86a9.32,9.32,0,0,0-1.24-.21c-1.48-.05-3.29-.52-4.35,0-1.88.92-3.48.53-5.45-.3Zm46.91,2.5-12.47-.44a7.29,7.29,0,0,0-6.23-4.19l1.74,4.54-.45.35c-1-3.19-3.62-4-7-4.39l1.51,3.14c-3-.88-5.19-.08-7.57,1.6-.26-1.27-.92-2.44-.57-3.16,1.08-2.19,3.09-3.35,6.29-2.85a30,30,0,0,0,4.42.08c4.66,0,9.33.25,13.82,2.12C341.41,98.68,343.57,99.92,345.59,100.92Zm-4.34-4,3.89-2,1.94,4.72Zm-27.58,1.34L309,95.81l-.11-.4,7.25.15Zm-5.6,7.07,2.67,2.5-7,1.19Zm-2.81,4.2c7.79-2.58,16.26-1.52,24.87,1.22-2.49.85-5.23,1.25-7.11,2.54-5.56,3.81-12.48,1.67-18.63,2ZM318,106.68c-1.35-.12-2.71-.47-4-.71l1.79-4.19c3.09,1.21,6.25,2.28,8.63-.25l-1.62,5.1,4.25-1.55-.09,1.72c4.43,0,5.83-1.2,6.3-5.3a49.13,49.13,0,0,1,6.47-.44c3.84.22,7.82.72,10.44,3.85,2.08,2.48,4.2,5,4.85,8.07.69,3.28,1.75,6.54,2.66,9.84a1.56,1.56,0,0,1-.53.09c-.49-.06-1-.17-1.47-.28a29.74,29.74,0,0,1-11.7-5.91A48.46,48.46,0,0,0,318,106.68ZM372.4,93.82q-.43-.38-.83-.78a9.93,9.93,0,0,0,2.05-.82C373.17,92.84,372.75,93.33,372.4,93.82Zm-3-22.3.57.4-.41.79-1.27.18A5.63,5.63,0,0,0,369.44,71.52Zm8.28,2L383.4,79c-1.3-.7-2.69-1.31-4-2-1-.57-2-1.25-3.19-2A3.65,3.65,0,0,0,377.71,73.56Zm26.7-1.32c1.42,2.18,2.77,4.41,4.13,6.63-.75-.27-1.34-.51-1.94-.69s-1.25-.28-2.26-.5l1.78,3-.89,0c0-.08-.06-.15-.09-.23l-.15.22-.47,0c-.29.2-.33.56-.18,1l-2.07,3.12a8.57,8.57,0,0,0-.6-8.71l-1.72,3.26a13,13,0,0,0-.85-2.35q1.35-1.85,2.73-3.68a2.35,2.35,0,0,1,1.49-1c.38,0,.73,0,1.06-.07Zm7.47,5.92-.86.18c0-.1,0-.2,0-.31Zm5.3,34.17c1.79,1.61,2.35,3.13,1.59,4.65l-1.24-1.62-1,1.47-1.19-4.1-1.74,4.06a6.22,6.22,0,0,0-4.38-5l-.56.45,2.77,5.83-1.87,1c1.94,2.21,3.79,2.9,5.89,1.84L412,123.29l.11.63,4.93,1.31-1.54,2.56a55.1,55.1,0,0,1-5.09-4.1c-.1-.36-.19-.72-.3-1.07a45.51,45.51,0,0,1-2-14.76c.09-3.14-.27-6.34-.39-9.51a4.31,4.31,0,0,1,.25-1.55c.8-2.26,2.25-2.76,4.27-1.78l-.82,1.62,3.27,1.4.09,2.33c-1.89-1.82-3.68-2.22-5.67-1.19,1.69,2.57,3.43,4.26,5.78,3.23L412.11,106l3.41.1-.65,1.64c2.23,1.18,4.15,1.13,5.78-1.11.62,3.33,1,6.18-.35,9.3-1.37-4.21-4.43-5.28-6.76-7.44A30.32,30.32,0,0,0,417.18,112.33Zm13.74,57.46c.27,3.09.53,6.19.62,9.27a4,4,0,0,0-.56-.56A13.48,13.48,0,0,0,427.6,177c.68-1.34,1.37-2.65,2-4A24,24,0,0,0,430.92,169.8Zm.2,13.07-1.59,1.86a7.91,7.91,0,0,0,1.89.85c-.09,1.3-.24,2.6-.45,3.88a10.19,10.19,0,0,1-5.14.3c-2.1-.27-3-2-2.18-4.32.89-2.62,2.12-5,3.08-7.26Zm-5.56,9.5,5.25-1.91c-.15.81-.33,1.62-.54,2.43a67.4,67.4,0,0,1-3.32,9.47,3.81,3.81,0,0,1-2.79,1.76c-1.65.18-2.66-1.11-3.29-2.38a11.18,11.18,0,0,1-.9-2.29c-.15-.63-.29-1.27-.43-1.9,0-.22.07-.45.13-.68a5.12,5.12,0,0,1,1.93-2.86A17.06,17.06,0,0,1,425.56,192.36Zm-6.73-53.18.94,2.72c-2.27-1.25-4.65-2.35-7-3.46.47-1.18,1-2.34,1.47-3.49q1.87,1.21,3.72,2.45a18.38,18.38,0,0,1,3.11,2.65C420.4,139.79,419.66,139.55,418.83,139.19Zm-9.3-2.28c-2-.91-4.29-1.62-4.57-4.1-.05-.49-.79-1-1.45-1.75L402,134.43c-.73-.41-1.69-.68-2-1.19-1.26-1.94-2.15-2.88-3.79-3.3a13.41,13.41,0,0,0-1.42-1.14l-.22.9c-.4,0-.83,0-1.31-.05l-1.45-2.46h-.53l-.16,4.34c-.26,0-.53,0-.8,0-1.34-2.45-3.58-3.19-6.31-3.22,1,3.29,2.58,5.37,5.43,5.87l-.25.26a4.24,4.24,0,0,0-3.84,3.08,9.49,9.49,0,0,0,3.61.34,3.93,3.93,0,0,0,3.72-.58l.08,1.33c-.43.57-.86,1.14-1.29,1.7a1.07,1.07,0,0,1-.78.28c-2.82.14-5.64.25-8.53.37-1-1.88-1.91-3-3.14-3.6,0-1.06.53-2.12.35-3.12l3.37,3.06c0-1.46,0-2.44,0-3.51l1.63.93c1.42-2.56.9-4.76-2-6.6,3.12-2.75,14-3.91,18-1.64q4.84,2.78,9.56,5.73A20,20,0,0,1,409.53,136.91Zm-6.28-.3-.46.33c-.84-.61-2.77-.29-1.57-2.53Zm-5.57,2.85,2.48,3.82-4.57-2Zm-21.18-12.16,1.05-3.31,8.08,1.05c-1.59.93-2.73,2-4.2,2.34S378,127.35,376.49,127.29Zm17.3-35.18,1.66,2-.3-.18-.31.54.63,1.83-.34.17-1.7-3.73Zm5.39-10.82c-1.07.26-2.37,1.07-3.54.74l-.1,0a4.47,4.47,0,0,1,.29-.48c.43-.61.87-1.21,1.3-1.82A11.26,11.26,0,0,0,399.18,81.29ZM395.4,92.4c-.53-.75,0-1.94,0-2.94l.91-1.54a4.57,4.57,0,0,1,2.06,4.27c0,1.59,1,3.3,1.41,4.52l-1.88-1.14C397,94.52,396.15,93.48,395.4,92.4Zm9.08,2c-2-.07-2.57-.87-2.78-4.64l2.22-.88,1.63,5c-.27.35-.54.7-.83,1ZM406.08,84a9.65,9.65,0,0,0,2.59,1.74c0,.32,0,.63-.06.94a7.87,7.87,0,0,0-2.4.14l1.89,2.34a15.18,15.18,0,0,1-2,4l-1.88-4.44A6.29,6.29,0,0,0,406.08,84Zm5.86,4.82a4.76,4.76,0,0,0-2.4-1.93c.07-.29.14-.58.2-.87a11.62,11.62,0,0,0,2.61-.39A4.81,4.81,0,0,1,411.94,88.82Zm-9,19.29a9.69,9.69,0,0,0-.19-1.71,9.09,9.09,0,0,0,3.32-5.74l-4.14,1a7,7,0,0,1,.29-1.42l2.78-2.47c.58,1.22,1.77,2.67,1.84,4.08.18,4-.09,8-.19,12l-.47,0Zm2.11-12.22.18-.19c.22-.23.41-.47.61-.71l.93,2.86-.74.34Zm1.38-1.66a16.55,16.55,0,0,0,2.21-4.32L410,91.57l-2.74,4.58Zm4-11.54.35-.14,0,.07Zm-5.15,34.81a14.19,14.19,0,0,0,.48,1.54c-.41-.45-.81-.9-1.21-1.36a8.58,8.58,0,0,1-1.61-4.51,13.66,13.66,0,0,1-.08-1.85A24.06,24.06,0,0,1,405.35,117.49Zm-12.41,4.71c.28.15.57.35,1.15.7a19.37,19.37,0,0,1-2.45.74A3.91,3.91,0,0,0,392.95,122.2Zm28.22-5.52a21.2,21.2,0,0,0,0-10.45,1.73,1.73,0,0,1,.08-1c1-2.46-.13-4.38-1.49-6.16-2-2.66-2.11-2.89-1-5.44,2.67,2.2,5.19,4.35,7.77,6.39,1.71,1.35,3.51,2.69,3.85,5.28.38,2.92.44,5.87.63,8.79-3.39.39-5.94,1.35-6.22,6.1l-1.63-6.91-1.83,4.58A4.67,4.67,0,0,1,421.16,116.68Zm-2.44-13.36-.72.22a5.72,5.72,0,0,0-2.19-5.82L417.91,96Zm-2.79-15.14a21.17,21.17,0,0,1-2.62-3,3.34,3.34,0,0,0,1-.91l2,3.47Zm-4.47-5.67-.11-.17a5,5,0,0,0,1.29-.86l.44.75Zm-9.9-10.23A27.51,27.51,0,0,1,399,76.78a5.11,5.11,0,0,0-.77-1.06A7.28,7.28,0,0,0,400,72.25l-6.61,1.23c.14-.28.27-1,.5-1a4.23,4.23,0,0,0,4.09-2.68Zm-6.09,4.91a7.2,7.2,0,0,0,1.29,2.07A15.55,15.55,0,0,1,394.51,81l-1.41-3.53A10.11,10.11,0,0,0,395.47,77.2Zm-9.24,9.61.73,2.08-.26.51c-.49-.8-.89-1.67-1.44-2.42A5.78,5.78,0,0,0,386.23,86.81Zm1.53-3-.09.22a5.19,5.19,0,0,0-3.13-1.2A2.59,2.59,0,0,1,387.76,83.81ZM382.67,89l-2.18,4.16.47.36,4-.85-.31,1.85c3.14,1,4.8.62,5.94-1.92,1.24.08,2.26.52,3.1,2.48a9.05,9.05,0,0,1,.65,2.53l-1.37,0,1.46,1.19c0,.37,0,.75,0,1.12a6.11,6.11,0,0,0-2,.07l-12.11-5.29a7.64,7.64,0,0,0-.86-5.22A14.89,14.89,0,0,0,382.67,89Zm-2.41,6.28c3.52,1.77,7.13,3.32,10.62,5.2q-.45.17-.91.37l2.77,1.79q-3.5.9-3.93,4c3,.5,4.86-.46,5.91-2.92l1.5,4.26,1.73-2.81q.47.42.92.86a6.13,6.13,0,0,1,.38,2.44,92.79,92.79,0,0,0,1.18,9.5c-.93-.41-2.11-.82-3.16-1.4a41.3,41.3,0,0,1-4.68-3,11,11,0,0,0-2.18-2.11l-.07.28a24.72,24.72,0,0,1-5-6.16A25,25,0,0,0,378.49,98,8.44,8.44,0,0,0,380.26,95.29Zm-6.33,31.59c.64,2.39,2.79,2.9,4.87,3.25l-4.49,1.39C371.69,129.66,371.67,129.5,373.93,126.88Zm8.52,20.78.07.07h-.08Zm2.65-4.45a20.75,20.75,0,0,1-2.34-1.58v-.28l11.24.45.23.76-2.58,3.69c-2.12-2.08-3.71-2.8-5.35-2.24A11.28,11.28,0,0,0,385.1,143.22Zm13.2-4a3.83,3.83,0,0,1-.17-.45l1.85-1.1,1.31,1.33-2-.14c-.4,2.88,2.6,4.1,4.43,5.63l-1.32.09A16.06,16.06,0,0,1,398.29,139.19Zm10.42.36c-.09.21-.17.42-.24.62l-1.7.14,2.13-3.12.5.24A13.37,13.37,0,0,1,408.72,139.55Zm6.85.84-4.2,2.72a11.18,11.18,0,0,1,.65-2.77c.18-.47.36-.93.54-1.39Zm-4.2,2.75,2.2,1-2.24,1.13A12.72,12.72,0,0,1,411.37,143.14Zm4.12,4a5.3,5.3,0,0,0-3.34,2.27,17.1,17.1,0,0,1-.71-3.06Zm1.09,1.74L419,151l.63-.12.23-4.25.25-.12,1,.64-.88,3.25.48.33,3-1.86,0,2.28a4.69,4.69,0,0,0,3.53-1.24,7.23,7.23,0,0,1,.46,1.43c.28,1.4.58,2.81.89,4.21a77.51,77.51,0,0,0-2,9.25c-.34,2.39-1,4.21-2.59,5.42-1.27,1-2.57,1.85-4,2.87a115.69,115.69,0,0,0-6.76-20.92A4.37,4.37,0,0,0,416.58,148.84Zm22.62,4.86L437.32,152q-.69-1.42-1.42-2.83c.24-1.79.81-1.78,3.55-1.31C437.78,149.65,438.44,151.75,439.2,153.71Zm-6.53-10.33a36.5,36.5,0,0,0-4.76-6.6,40,40,0,0,0-3.19-3,19.18,19.18,0,0,0-1.81-1.92l.48.89a22.09,22.09,0,0,0-2.56-1.64c-1.34-.72-2.6-1.51-3.83-2.32.71-1.54,1.42-3.08,2.12-4.64,1.57,3.09,3.71,3.91,7.21,2.51l-4-4.07c1.14.24,2.21,1.18,3.28,1.28,1.23.11,2.45-.51,3.67-.81l-.06-.73-2.14-1.8,3.5-4.15c-.09.8-.19,1.82-.33,2.83a29.86,29.86,0,0,0,1.91,15.49,15.72,15.72,0,0,1,.7,8.94Zm1.55-12c-.2-.45-.36-.93-.51-1.4a30.43,30.43,0,0,1-1-13.07A49.48,49.48,0,0,0,428,89.53c-.59-1.22-1-2.56-1.46-3.83l4.4-.64c.55,3.27,1.26,6.53,4.58,7.25l-5.08,1.26,3.45,2.83-1.48.81c2.27,3.76,3.95,4.37,7.61,2.64a49.14,49.14,0,0,1,3.64,5.3c1.76,3.39,3.35,7.06,2.07,10.92-1,3.06-2,6.17-4.28,8.33s-4.58,4.89-6.87,7.37A1.54,1.54,0,0,1,434.23,131.36Zm-9.11-62.61,3.06,3-1.47.62,3,6.42-.73.43a9.47,9.47,0,0,0-.45-1.17c-.7-1.29-1.23-3.09-2.2-3.72-1.72-1.13-2.21-2.7-2.51-4.82Zm15.71,30.52a7.45,7.45,0,0,0,.34-7.5l-2.91,3.84-.52-.21c2.17-2.5,1.48-5.15.14-8.22L436,90.11c-.76-3-2.56-4.48-5.17-5.64.93-.88,1.57-2.05,2.35-2.12,2.37-.21,4.36.9,5.56,3.9a30.23,30.23,0,0,0,2.17,3.82c2.33,4,4.51,8.11,5.22,12.91.37,2.45.43,4.94.61,7.19Zm-8.32-23.07.28-.31,3.54,6.28-3.46-.7Zm14.42,10.71,3,3.42L447.86,92c2.17,1.87,4.12,2.4,6.13.46-1.26,1.58-3.18,2.15-3.12,5-1.32-3.06-2.06-3.84-4.28-4.41a18.67,18.67,0,0,0,.89,3.54,15,15,0,0,0,2,2.65l-2.57.21A24.43,24.43,0,0,1,446.92,86.92Zm4.7,19.71-3,4.11-.72-6.37Zm-.29-46.44c1.8,3.44,3.51,7.07,5.51,10.48,3.78,6.45,2.25,12.46.79,18.75l-2.11-3.13L454.58,88l-1.37-3.33-.48,0-1,5.24c-.06-3.56-2.15-4.63-4.26-5.54a31.91,31.91,0,0,0-1.64-14.92c3.11-1.47,2.44-4.84,2.3-7.8Zm-5.46.39,1.49.7-2.88,4-.32-.12Zm-7,6.47c1.8,2.56,3.84,3.9,6.31,2.73,2,5.73,1.91,14.07-.3,19.52C442.16,82.69,438.15,71.41,438.85,67Zm-11-16.28,2.07.56-1.49,1.58c2.23,2.32,4.45,2.92,7.2.91l1.71,12.52-.61.24-8.92-11.45ZM423,59.09c1.78.21,3.41-.75,4.4-3.29,1,1,1.91,1.89,2.69,2.88,2.28,2.87,4.51,5.79,6.74,8.71a2.16,2.16,0,0,1,.47,1.11c.08,4.79,2,9,3.51,13.4.93,2.77,1.7,5.61,2.54,8.41l-.61.32-9.16-14.95c2.59-1.68,3.19-4.2,2-8.45l-3.32,4.16c.24-1.35,1-2.53,1-3.83a21.77,21.77,0,0,0-.76-4.59l-.55,0-1.65,2.9c-.92-3.42-2.35-5.11-4.9-5.67a8.42,8.42,0,0,0,3.62,7.55l-3.95,1c.41-2.27.92-4.54-.18-7.31l-3,4Zm-4.46-2.29,3.2-.51-2,3.84Zm4.82,13.45.54,5.8-3.19-.42L419,70.59Zm.76,10.09-.74,3.58-4.51-5.33Zm-4.92-.22c6.1,5.32,9.5,13.12,11.57,21.9-2-1.68-3.7-3.82-5.72-4.76-5.51-2.56-7.4-8.69-10.33-13.6a9.54,9.54,0,0,0,.67-1.83l-.29.05Zm-7.46-6.54-1.28,1.31A6.91,6.91,0,0,0,408.81,73a3.42,3.42,0,0,0-1.29,3c-.79-1.36-1.62-2.69-2.5-3.94a3.84,3.84,0,0,0,1.86-.88A5.71,5.71,0,0,0,411.74,73.59Zm-4.12-11.09,2.59,5.93-4.45-.63,1.48-3.23-.46-.4-.49.1A7.11,7.11,0,0,0,407.62,62.49Zm-7.13-3.24-2.06,4.39.41.35,1.83-.6a5.89,5.89,0,0,0,.82,1.68l-4.1-1,.11.17c-.56-.38-1.12-.73-1.71-1.05l-.18-3.56Zm-2.07,6.49.68,1.1-4.77,1a5,5,0,0,0,.41-2.17,7.68,7.68,0,0,0,.74-1.87A25.51,25.51,0,0,1,398.42,65.75Zm-13.7-3.26L389.1,61c-1.44,1.54-2.83,2.7-2.63,5.31l3.5-1.22-.76,2.51a8,8,0,0,0,2.16.18,9.53,9.53,0,0,0,1.4,1.46l-6.32-2.64-.36.48L388.71,71l-2.77-.5C386,74,387.73,76,391.5,77a2,2,0,0,1,1.19.86c.3.81.57,1.62.8,2.43-.35-.38-.71-.78-1.07-1.11l-.51.52.66,6.17a57.57,57.57,0,0,0-8.41-15.8C386.6,68,385.48,65.05,384.72,62.48ZM384,70.59l4.72,9.17c-2.14.93-3.52-.59-4.95-1.9s-2.65-2.32-3.94-3.55c-.65-.62-1.29-1.27-1.93-1.93a3,3,0,0,0-.09-.56C379.93,73,382,72.91,384,70.59Zm-7.77-.22-.42.09a2,2,0,0,1-.33-.13L375.24,68l2.27.56Zm-1.37-2.5-.37.23c0-.1,0-.21,0-.32Zm-10.65-3a24.53,24.53,0,0,1,1.94-2.42l.79,6.11a7,7,0,0,0-2.89-3.45ZM362.4,69a7.06,7.06,0,0,0,3.14.75L363.44,73c2,1.07,3.55,1.06,4.8,0l.91.62-1.46,2.82c2.25.19,3.79-.12,4.86-1.09a4.94,4.94,0,0,0,2.51-.08,1.15,1.15,0,0,1,.78.08q4.69,2.88,9.34,5.81a4.56,4.56,0,0,1,.62.7l-4.57.85.08.34c.63,0,1.29,0,1.92,0a7,7,0,0,0-2.06,1.06c-.3-.16-.61-.32-.9-.49l-.5.35,1.46,3.33a7.54,7.54,0,0,0-7.55-.37,6.74,6.74,0,0,0,2.89,2.19l.33,3.43-.18.17a18.18,18.18,0,0,0-1.51-3.76,21.1,21.1,0,0,0-3.07-3l-.56.66.51,3.38a12,12,0,0,0-3.13-.65,3.69,3.69,0,0,0-.62.1C363,82.93,362.92,75.92,362.4,69ZM338.51,85.16c6.28,2.29,12.73,4.5,19.05,7a145,145,0,0,1,13.86,6.25c2.68,1.4,4.91,3.5,7.35,5.29l-.33.54c-4-1.23-7.19-.18-10.31,1.3a9.5,9.5,0,0,1-4,1.14,68.37,68.37,0,0,1-7.5-.88c1.95-.4,3.67-.41,4.82-1.08s2-2.09,3-3.17L364,101l-4.3.29c2.15-2.54,2.23-4.83.11-7.55C357,95.91,355.5,98.42,358,102l-5.4-4-.47.34,1.07,4.27c-.87-.41-1.66-1.08-2.25-1-2.31.23-2.91-1.1-3.51-2.51s-1.27-3-1.85-4.55a4.93,4.93,0,0,1-.44-1.74c0-2.4-1.64-4.1-4.8-4.69l.56,2.52L338,88.63Zm-1.61,5.58c-3.31-.43-4.37-.19-6,1.47a18.3,18.3,0,0,0,3.5,1.06,15.08,15.08,0,0,0,3.31-.35l-1.19,2.36a23.87,23.87,0,0,1-10.68-6.54l4.53-.88.35,2.71c2.75-.93,4.24-2.37,3.65-5.13C335,87.36,334.46,89.34,336.89,90.74Zm-10.16,1c-7.09-1.07-18.86-3.4-22.22-6.28,3.14-.25,5.37-1.34,5.69-4.11C316.18,82.58,323.25,87,326.73,91.79ZM287.87,37.52a21.69,21.69,0,0,0-3,.8,5.66,5.66,0,0,0-.85.48,12.57,12.57,0,0,0,.11-1.57l-2.75,1.1.32-3.14C283,36.47,284.9,37.16,287.87,37.52Zm-9.47,5.22c.23,0,.45,0,.69,0a3.39,3.39,0,0,1,1.19.21c0,.11.07.23.11.34.31.81.77,1.6,1.16,2.4l-.46.22a10.17,10.17,0,0,0-1.27-2A8.74,8.74,0,0,0,278.4,42.74Zm5,17.58c-2.33,1.1-4.46.68-6.67-.69l-.82-.54,1.71-.75.7,2,5.29-3,4.85,1.54A34,34,0,0,0,283.41,60.33Zm.65-4.21a2.26,2.26,0,0,1-1.13-.74c-.88-1.28-1.68-2.6-2.5-3.91,2.45-.15,4.77-1,5.25-3.81C291,49.5,295.81,55,296.06,59.48,292,58.35,288,57.25,284.06,56.11Zm17.2,3.61a38.41,38.41,0,0,1-5.14-5C292,50.07,292.06,50,285.76,47a5.55,5.55,0,0,0-3.31-5.26,4.13,4.13,0,0,0,1.2-1.53L287,41l-1.29,1.22a6.35,6.35,0,0,0,7.07,1.37,2,2,0,0,1,2.59.32c1.62,1.52,3.19,3.08,4.78,4.62l-1.91,1.53c.08.17.13.36.19.37,2.4.44,3,1.93,3.59,3.69.78,2.28,2,4.49,3.15,7.09C303.9,60.76,302.28,60.52,301.26,59.72ZM310.41,62a7.36,7.36,0,0,1-6.64-4.95c-.75-1.8-1.33-3.64-1.9-5.24l3.66-1.33L305,54.46l3.28-1.6.41,1.68c2.72,0,4.38-1.07,5-3.42,2.62.67,5.11,1.27,7.58,2,1.61.45,2.71,1.44,2.75,2.86.1,4,.08,8.06.11,12.47-1.13-.78-1.76-1.2-2.36-1.65A23.41,23.41,0,0,0,310.41,62Zm-5.14,9c2.5.14,5.06.33,7.62.47v.18l5.52.66-1,2.42,3-1.21.11,1.13a4.86,4.86,0,0,0,4.17-1.26c3.41,1.72,6.12,4.46,8.94,7.24l-3.8.22,1,1.72-3.58-.53-.27.4,3.93,3.62c-3.08-1.79-5.1-.52-7,.86a31.21,31.21,0,0,0-13.63-6.3c.4-3.49-2.84-4.65-5.45-6.06Zm-1.18,4L306,79.67l-.27.22-3-3.88ZM285,98l1.26-3.07,2.23,3.74Zm-.19-11.32,1.57-1.52.55,2.13c3.17-.75,4.86-2.38,4.6-5.83l11.61,5-.12.66L288.46,89Zm9.33,12.7-4.81-4.11c1.12-1.45,1.17-3.37-.48-5.56,1.42-.32,2.63-.69,3.89-.87,3.66-.51,7.35-.95,11-1.39a2.13,2.13,0,0,1,1.2.16c4.14,2.41,8.79,2.9,13.32,3.88,2.86.62,5.7,1.42,8.54,2.14l-.05.7-17.65.27c-.06-3.14-1.89-5-6.15-6.16l1.8,5.06c-1-.91-1.64-2.17-2.73-2.9a21.29,21.29,0,0,0-4.32-1.71l-.33.45L299,92.3c-3.41-1-5.61-.59-7.45,1.35a8.35,8.35,0,0,0,8.38.75l-1.26,4c-1.72-1.54-3.39-3.16-6.35-3.63Zm2.87,5.39,2.06-4,5.25,2.54-2,2.58Zm3.13,9.63.81,1.54h9.39l.11.59c-3.94,1.2-8.24,1-12.93,1Zm-22.62.67,2.66,4.08.52-.17.85-3.55,1.67,1.62c1.93-1.83,2.36-3.86.86-6.54l6.45.8-3.55,4.37c4.12.36,7.12-.09,8.78-3l1.21,5c-6.75-.17-13.29.48-18.57,3.63l-3.14-1.69ZM271,142.22l2.2-2.22,1,2.24h0C273.31,143.29,272.26,143.13,271,142.22Zm13.54-2.89c-1.71.53-3.39,1.12-5.12,1.61-1.49.42-3,.77-4.52,1.13,2.93-1.21,4.61-3.12,3.55-6.71l10.35.62C288.43,138.34,286.4,138.75,284.52,139.33Zm7.93-16.58,1.88,3.2c-3.18-.85-4.2-.67-7.48,1.3,2.47,2,5.45,2.13,8.78.39-.34,1.07-.34,2.63-1.25,3.49s-2.7.93-4.11,1.36l.18.72,5.63,2.62a57.14,57.14,0,0,0-18-.83c-.56-3.24-3.64-3.76-6.24-4.44l1.07-4.59c.55,2.06.8,3.88,3.14,5.06l.82-3.7,1.75,2c2.19-2.39,2.64-4.77.06-7.47a25.64,25.64,0,0,1,12-3.45c3.69-.16,7.41-.14,11.11-.26,2.61-.09,5.25-.52,7.07,2.25-2.57.19-3.84,1.58-4.75,4l6.09-.9,2.46,4.78-8-1.09c-.77-3.06-2.92-4.79-6.62-5.18l2.17,4.76A8.4,8.4,0,0,0,292.45,122.75Zm12.12,15.52,1.9.4,0,.39-4.09-.45-2.6-5a4.54,4.54,0,0,1,4.74.4c1.35.84,3.36.83,4.61,1.1l-4.84,2.59Zm5.08-8.46c-1.14,1.74-2.11,1.79-5.44,0l.42-2.4,9.21,2.1-.1.83Zm17.59,8.56-8.19-.18a8.89,8.89,0,0,0-3.19-6.58L314.13,137l-.27.06-1-6c1.35.13,3.23-.17,4.47.51,3.54,1.93,6.82,4.25,10.2,6.41Zm18.71,4c-3-1-6.06-2.11-9.16-2.87a44.51,44.51,0,0,1-13.69-5.89c-2.64-1.7-5.57-3-8.34-4.59a4.22,4.22,0,0,1-1.19-1c-1.51-1.87-1.17-3.4.75-4.66l.95,1.56,2.93-2.14,2,1.13c-2.56.71-3.85,2.08-4,4.35,3.09-.15,5.46-.79,5.84-3.39l1.6,4.36,1.9-2.93,1.06,1.42c2.19-1.34,3.18-3,2.12-5.64,3.18,1.18,5.84,2.29,7.77,5.13-4.32-1-6.87,1.14-10,2.06a30.64,30.64,0,0,0,5.19-1.22c2.33-.74,3.92-.43,4.82,1l-2,.24.74,1.61-4.14-1.08,2.55,3.63c-2.86-1.08-4.84-.14-6.63,1.23l.09.73,6.45.6-.1,2.18c2.92-.55,4.5-1.82,4.7-4.21l.22,4.25.6.23,3.73-3.64,3.68,7.18Zm16.49,9.57c-4-.54-7.36-2.08-9.51-4.88-3.63-4.72-6.72-9.72-10-14.62,3.48.22,5.31-1.23,6-5l-5.63,1.44c.81-.87,2.18-1.33,2.83-2.21s.87-2.41,1.26-3.64l-.65-.33-2.68.94-1.69-5.22c.64.5,1.46,1.11,2.24,1.75a29.21,29.21,0,0,0,14.26,6.36c5.81.92,8.87,4.87,12.4,8.33-6.64-1.86-13.17-3.71-19.7-1.74l9.41.35,0,.35-3.81,2,6.32,1.72c-1.39.25-3,0-4.18.39s-2.17,1.44-3.68,2.52l4.05.84c-2.11,2.58-2.33,3.92-1,6.36,2.88-1.55,4.93-3.38,3.4-6.7l3.91,4.14.54-.25c0-1.15,0-2.31,0-3.57l2,1.15c1.74-2.94,1.11-5.08-2.53-7.73,3.17,1,5.52,2.07,7.42,4.15l1.18,1.27a4.29,4.29,0,0,0-3.42,1.08l2.62,2.76c-2.65.43-4.09,2.33-4.73,5.32,3.24.89,5-.33,6.78-4.79a32.16,32.16,0,0,0,0,3.52,35.87,35.87,0,0,0,.83,3.62l2.31-4.23.81,2.53,1.41-1.2,3.41,3.13c-2,.11-3.28,1.56-4.19,3.63A127.57,127.57,0,0,0,362.44,151.89Zm21.51,4.69a6.86,6.86,0,0,0,1.19-1.11c0,.5.06,1,.1,1.53Zm18.58,3.94c-1.35,1.7-3.29,1.55-4.86-.33-1.77-2.14-3.18-4.47-4.57-6.46l6.34-1.41.75,2.35c2.53-1.37,3.56-3.11,3-5.62a14.62,14.62,0,0,0,.95,2.77C406.18,155.34,404.51,158,402.53,160.53Zm2.79,9.09a5.12,5.12,0,0,1-1.43-3.17,17.72,17.72,0,0,1,.71-4.32c.83-4.09,1.71-8.18,2.49-12.28.75.74,1.48,1.5,2.19,2.3,1.14,1.29,1.51,3.74,2,5.72,1.39,5.26,2.79,10.52,3.95,15.83a39.06,39.06,0,0,1,.78,7.84c0,1.13,0,2.25-.11,3.37A46.94,46.94,0,0,0,405.32,169.62Zm40.89,36.92c-1.8,1.69-3.57,3.45-5.36,5.16.21-5.36.37-10.69.44-15.73a4.42,4.42,0,0,0,1.42-.25l-.63,3.19.42.48,3.9-2.14-.08,3.33,2.55-1.52C448.81,202.22,448.08,204.78,446.21,206.54Zm-1.38-18.27.31,2.41-2.89-1.84-.32.38,1.68,4.67a7.22,7.22,0,0,0-2.29-1.48c0-2.79,0-5.46-.07-8l.16-.5a3.65,3.65,0,0,0,5.07,1.25l-1.6-2.27,3.68.2.7,7.36ZM447,175.09l-.81,2.88-.51-.22C445.75,176.72,444.51,175.23,447,175.09ZM453,191a20.37,20.37,0,0,1-3.59,10.44c.19-2,.85-4,.79-6-.11-3.74-.65-7.51-1-11.27-.2-2.4-1.09-5,1-6.71.38-.3.42-1.19.72-2.15l-3.6.44a6.55,6.55,0,0,1,0-2.35c1.52-3.22,1.49-4.44-.69-8.11L445,170.35h0l-.24-.65c.85-2.78-.16-4.95-2.09-7.07l-.24,1q-.72-1.82-1.47-3.64c1.12-.8,1.74-2.2,1.79-4.31,3.87,1.24,10.38,10,10.48,14.54C453.33,177.13,453.26,184.07,453,191ZM440.4,150.26l3.3-.82,3.21,7.46c-1.58-.88-3.06-1.29-4.08-2.38S441.13,151.59,440.4,150.26Zm18.83-6.64c-.85,1.16-1.45,2.6-2.32,3.72-3.05,3.9-4.32,8.65-3.93,14.27,0,.35,0,.69,0,1.42-4.41-3.52-6.63-8.55-8.59-13.77a3,3,0,0,1,.29-1.9,5.67,5.67,0,0,0-2-7.27l-.54,4.82a6.29,6.29,0,0,0-3.51-6.16l-.11,3.15c-.85-.76-2.18-1.41-2.24-2.1-.18-1.9-.37-4.34.42-5.62,2.35-3.79,5.17-7.12,7.94-10.8a6.46,6.46,0,0,0,4.13,5,8.58,8.58,0,0,1,1.91,1.09c1.25,1,2.49,2.06,3.67,3.21a36.16,36.16,0,0,1,4.75,5A5,5,0,0,1,459.23,143.62Zm39.78-.44c-3.55.38-7.1.4-10.83-1.53l2.24-3c1.93,3.3,4.3,4.31,7.81,3.17l-4.37-5c.31,0,.94-.27,1-.07a4.09,4.09,0,0,0,4.31,2.1Z"/><path class="cls-3" d="M323,211.1c-.43-1-1.1-1.86-1.08-2.66.08-3.14-2.5-5.33-4.27-7.81-1.53-2.14-3.09-4.26-4.53-6.23l-.16,1.39-1-1-.12,1.9L310,195.28l.51,2.5-1.86-1.1c-.09,1.53-.19,2.86-.23,4.19,0,1.15.07,2.31,0,3.45-.32,3.84-.06,7.64,2.19,11.29.91,1.47-.16,2-1.38,2.31a36.68,36.68,0,0,1-5.3,1c-1.5.17-1.75,1-1.58,1.92a14.61,14.61,0,0,0,1.34,2.9c-.82,1.67-.48,2.29,3.72,5.26a15.85,15.85,0,0,0,1.57-2.92c1.42-4.87,5.78-6.35,11.25-6.49a8.32,8.32,0,0,0,6.17-3c1.41-1.45,2.91-2.84,4.34-4.24C328.77,211,326.27,209.64,323,211.1Z"/><path class="cls-3" d="M145.69,181.1l6.49.67.28-.38a13.65,13.65,0,0,0-2.83-1.55c-1.18-.34-1.52-.93-1.57-1.78-.2-3.18-2.07-5.83-3.79-8.57-.92-1.47-2.56-2.16-3.89-3.18-.16-.13-.76.12-1.22.21l-.16-1.2h-2.33c-1,.09-.82,1.67-2.48,1.32a5.7,5.7,0,0,0-.41,1.68c.2,2.84.48,5.67.73,8.48-1.59.11-3.53-.1-5.05.45s-2.8,1.91-4.17,3.12a5,5,0,0,1,5.88,2c1.35,1.81,3.34,2.51,5.76,2.59a23,23,0,0,0,4.3-.08,12.38,12.38,0,0,1,9,1.93c3.14,2,5,1.85,8.42-.3-3.78-2.73-9.14-2.59-13.11-4.81Z"/><path class="cls-3" d="M177.23,95.92c-6.69,1-12.64,3.26-18.57,5.78-2.14.91-4.62,1.25-6.88,2-.55.18-.88.83-1.32,1.26.72.11,1.57.48,2.14.29,3.12-1,6.09-2.24,9.69-1.9a3.7,3.7,0,0,1,3.06,1.7c2.16,3,4.37,5.91,6.54,8.88a14.53,14.53,0,0,1,.77,1.33l1.44-.88,1.11,1.68,1-2.31,1.28,2.47.55-.07.39-2.29,1.44,2.17.78-.14c-.29-2.16-.53-4.33-.87-6.49-.31-2-.78-3.93-1-5.91s.91-3.15,3.11-3.66c1.64-.38,3.27-.79,4.93-1.2C184.16,95.75,181.35,95.32,177.23,95.92Z"/><path class="cls-3" d="M247,155.7l2.77,1.27.33-.35-2.47-2.16,5.84,1.51.27-.56L247,152.69l.1-.32h5.15c-3.56-.74-7.67-.35-9.51-4.35l3.94-.62c-1.37-2.67-2.55-4.37-6.87-2.45a41.8,41.8,0,0,1-6,1.91c-3,.83-4.36,2.9-5.63,5a75.37,75.37,0,0,1-3.78,6.52c-2.15,2.89-4.69,5.58-7,8.24a24.38,24.38,0,0,0,9.9-8l2.6,1.91.52-1,1.34,1.7,1.55-1.8,1.59,1.44,1.44-2,1.48,1.94,1-3.53,1.56,2.47.54-2.09,1.91,1.19.22-2.51,1.11,1.6.63-.28-.43-2.64,3.33,2Z"/></g></g></svg>