<?xml version="1.0" encoding="UTF-8" standalone="no"?><!DOCTYPE svg PUBLIC "-//W3C//DTD SVG 1.1//EN" "http://www.w3.org/Graphics/SVG/1.1/DTD/svg11.dtd"><svg width="100%" height="100%" viewBox="0 0 36 83" version="1.1" xmlns="http://www.w3.org/2000/svg" xmlns:xlink="http://www.w3.org/1999/xlink" xml:space="preserve" xmlns:serif="http://www.serif.com/" style="fill-rule:evenodd;clip-rule:evenodd;stroke-linejoin:round;stroke-miterlimit:2;"><path d="M9.546,82.826c-2.08,-0.976 -3.37,-1.154 -3.781,-1.85c-1.529,-2.595 -3.17,-5.237 -4.041,-8.083c-2.353,-7.682 -2.073,-15.514 -0.506,-23.339c2.665,-13.311 8.74,-25.087 16.202,-36.25c0.797,-1.192 1.533,-2.426 2.274,-3.654c0.046,-0.077 -0.111,-0.276 -0.265,-0.624c-2.204,0.556 -4.452,1.241 -6.75,1.656c-1.22,0.22 -2.601,0.213 -3.764,-0.152c-0.745,-0.234 -1.7,-1.305 -1.707,-2.009c-0.01,-0.938 0.65,-2.029 1.329,-2.776c0.469,-0.518 1.441,-0.619 2.212,-0.816c6.035,-1.546 12.049,-3.19 18.123,-4.565c5.208,-1.179 6.875,0.463 6.563,5.612c-0.318,5.27 -0.355,10.557 -0.58,15.833c-0.07,1.632 -0.354,3.256 -0.564,5.096c-4.248,-1.895 -4.248,-1.895 -5.747,-18.145c-6.287,6.994 -10.496,14.621 -14.414,22.404c-3.922,7.788 -6.54,16.018 -7.898,24.666c-1.394,8.873 0.349,17.411 3.314,26.996Z" style="fill:#f59415;fill-rule:nonzero;"/></svg>