<svg xmlns="http://www.w3.org/2000/svg" xmlns:xlink="http://www.w3.org/1999/xlink" viewBox="0 0 1742.74 979.78"><defs><style>.cls-1{isolation:isolate;}.cls-2{fill:#ccc;}.cls-11,.cls-17,.cls-18,.cls-3,.cls-4,.cls-5,.cls-9{mix-blend-mode:multiply;}.cls-3{fill:url(#linear-gradient);}.cls-4{fill:url(#linear-gradient-2);}.cls-5{fill:url(#linear-gradient-3);}.cls-6{fill:#f8b154;}.cls-7{fill:#f59415;}.cls-8{fill:url(#New_Gradient_Swatch_copy_5);}.cls-9{fill:url(#linear-gradient-4);}.cls-10{fill:url(#New_Gradient_Swatch_copy_5-2);}.cls-12{fill:url(#linear-gradient-5);}.cls-13{fill:url(#linear-gradient-6);}.cls-14{fill:url(#New_Gradient_Swatch_copy_5-3);}.cls-15{fill:url(#linear-gradient-7);}.cls-16{fill:url(#linear-gradient-8);}.cls-17{fill:url(#linear-gradient-9);}.cls-18{fill:url(#linear-gradient-10);}.cls-19{fill:url(#New_Gradient_Swatch_copy_5-4);}.cls-20{fill:url(#linear-gradient-11);}.cls-21{fill:url(#New_Gradient_Swatch_copy_5-5);}.cls-22{fill:url(#linear-gradient-12);}.cls-23{fill:#f58f0a;}.cls-24{fill:#dc8109;}.cls-25{fill:#fcddb6;}.cls-26{fill:#fffffc;}.cls-27{fill:#4d4d4d;}.cls-28{fill:#666;}.cls-29{fill:#ffefe4;}.cls-30{fill:#fbd29d;}.cls-31{fill:#fde9ce;}.cls-32{fill:#f69a23;}.cls-33{fill:url(#linear-gradient-13);}.cls-34{fill:#404040;}.cls-35{fill:url(#linear-gradient-14);}.cls-36{fill:url(#linear-gradient-15);}.cls-37{fill:#737373;}.cls-38{fill:#0d0d0d;}.cls-39{fill:url(#linear-gradient-16);}.cls-40{fill:#8c8c8c;}.cls-41{fill:#262626;}.cls-42{fill:#1a1a1a;}.cls-43{fill:#a6a6a6;}.cls-44{fill:#c47308;}.cls-45{fill:gray;}.cls-46{fill:#492b03;}.cls-47{fill:#999;}.cls-48{fill:url(#New_Gradient_Swatch_copy_5-6);}.cls-49{fill:url(#New_Gradient_Swatch_copy_5-7);}.cls-50{fill:#bfbfbf;}.cls-51{fill:#623904;}</style><linearGradient id="linear-gradient" x1="321.38" y1="898.79" x2="367.75" y2="805.38" gradientTransform="matrix(1.03, -0.2, 0.37, 0.56, -389.09, 527.83)" gradientUnits="userSpaceOnUse"><stop offset="0" stop-color="#fff"/><stop offset="0.16" stop-color="#e3e5e9"/><stop offset="0.34" stop-color="#cccfd6"/><stop offset="0.53" stop-color="#bbbfc9"/><stop offset="0.73" stop-color="#b1b6c1"/><stop offset="1" stop-color="#aeb3bf"/></linearGradient><linearGradient id="linear-gradient-2" x1="553.67" y1="988.14" x2="600.05" y2="894.74" gradientTransform="matrix(3.39, -0.31, 1.23, 0.88, -2293.65, 242.4)" xlink:href="#linear-gradient"/><linearGradient id="linear-gradient-3" x1="702.22" y1="1047.51" x2="748.6" y2="954.1" gradientTransform="matrix(2.21, -0.32, 0.8, 0.89, -969.43, 243.47)" xlink:href="#linear-gradient"/><linearGradient id="New_Gradient_Swatch_copy_5" x1="814.74" y1="897.81" x2="814.74" y2="500.12" gradientUnits="userSpaceOnUse"><stop offset="0" stop-color="#f69a23"/><stop offset="1" stop-color="#f59415"/></linearGradient><linearGradient id="linear-gradient-4" x1="814.74" y1="774.98" x2="814.74" y2="897.81" gradientUnits="userSpaceOnUse"><stop offset="0" stop-color="#fff"/><stop offset="0.04" stop-color="#fafafc"/><stop offset="0.24" stop-color="#e3e6ec"/><stop offset="0.46" stop-color="#d2d7e2"/><stop offset="0.7" stop-color="#c8cedb"/><stop offset="1" stop-color="#c5cbd9"/></linearGradient><linearGradient id="New_Gradient_Swatch_copy_5-2" x1="814.74" y1="395.62" x2="814.74" y2="500.12" xlink:href="#New_Gradient_Swatch_copy_5"/><linearGradient id="linear-gradient-5" x1="911.05" y1="461.79" x2="911.05" y2="395.62" xlink:href="#linear-gradient-4"/><linearGradient id="linear-gradient-6" x1="718.43" y1="461.79" x2="718.43" y2="395.62" xlink:href="#linear-gradient-4"/><linearGradient id="New_Gradient_Swatch_copy_5-3" x1="382.99" y1="405.47" x2="1246.49" y2="405.47" xlink:href="#New_Gradient_Swatch_copy_5"/><linearGradient id="linear-gradient-7" x1="464.65" y1="314.94" x2="1237.42" y2="317" gradientUnits="userSpaceOnUse"><stop offset="0" stop-color="#fac785"/><stop offset="1" stop-color="#fbd29d"/></linearGradient><linearGradient id="linear-gradient-8" x1="464.41" y1="403.56" x2="1237.18" y2="405.61" xlink:href="#linear-gradient-7"/><linearGradient id="linear-gradient-9" x1="827.12" y1="291.59" x2="827.12" y2="277.22" xlink:href="#linear-gradient-4"/><linearGradient id="linear-gradient-10" x1="697.87" y1="395.53" x2="697.87" y2="277.22" xlink:href="#linear-gradient-4"/><linearGradient id="New_Gradient_Swatch_copy_5-4" x1="1062.31" y1="572.94" x2="1222.63" y2="412.62" xlink:href="#New_Gradient_Swatch_copy_5"/><linearGradient id="linear-gradient-11" x1="1102.92" y1="532.33" x2="1222.63" y2="412.61" xlink:href="#linear-gradient-7"/><linearGradient id="New_Gradient_Swatch_copy_5-5" x1="406.85" y1="572.94" x2="567.18" y2="412.62" xlink:href="#New_Gradient_Swatch_copy_5"/><linearGradient id="linear-gradient-12" x1="447.46" y1="532.33" x2="567.17" y2="412.61" xlink:href="#linear-gradient-7"/><linearGradient id="linear-gradient-13" x1="635.03" y1="172.11" x2="635.03" y2="117.37" gradientUnits="userSpaceOnUse"><stop offset="0" stop-color="#dc8109"/><stop offset="1" stop-color="#ff672e"/></linearGradient><linearGradient id="linear-gradient-14" x1="680.27" y1="59.15" x2="694.87" y2="59.15" gradientUnits="userSpaceOnUse"><stop offset="0" stop-color="#f3b4ce"/><stop offset="1" stop-color="#f8d1d9"/></linearGradient><linearGradient id="linear-gradient-15" x1="738.35" y1="59.15" x2="752.95" y2="59.15" xlink:href="#linear-gradient-14"/><linearGradient id="linear-gradient-16" x1="758.97" y1="262.96" x2="758.97" y2="261.07" gradientUnits="userSpaceOnUse"><stop offset="0" stop-color="#6400c4"/><stop offset="1" stop-color="#bb73ff"/></linearGradient><linearGradient id="New_Gradient_Swatch_copy_5-6" x1="1377.47" y1="460.77" x2="1393.64" y2="444.59" xlink:href="#New_Gradient_Swatch_copy_5"/><linearGradient id="New_Gradient_Swatch_copy_5-7" x1="1436.31" y1="461.83" x2="1452.61" y2="445.53" xlink:href="#New_Gradient_Swatch_copy_5"/></defs><title>communication4</title><g class="cls-1"><g id="Layer_2" data-name="Layer 2"><g id="Layer_2-2" data-name="Layer 2"><g id="_Group_" data-name="&lt;Group&gt;"><g id="_Group_2" data-name="&lt;Group&gt;"><path id="_Path_" data-name="&lt;Path&gt;" class="cls-2" d="M1566.11,829.34C1360.8,840.12,963.49,791.94,814.74,775S391.28,837.56,208.62,867C109.74,883,41.67,903,0,918c.06,2.47.13,4.88.2,7.22a56.26,56.26,0,0,0,56.24,54.58H1684.89a56.27,56.27,0,0,0,56.1-51.91c1.84-23.56,2.67-55.27.29-95.3C1700.75,827.81,1644,825.25,1566.11,829.34Z"/><path id="_Path_2" data-name="&lt;Path&gt;" class="cls-3" d="M189.92,922.46c-44.65,19.62-16.08,45.44,53.11,41.17s116.08,13.44,144.26-12.91-34.2-36.57-98.26-36.6S208.2,914.43,189.92,922.46Z"/><path id="_Path_3" data-name="&lt;Path&gt;" class="cls-4" d="M511.33,874.5c-147,30.86-52.79,71.77,175,65.26s382.27,21.63,475-19.93-112.74-57.92-323.67-58.18S571.48,861.87,511.33,874.5Z"/><path id="_Path_4" data-name="&lt;Path&gt;" class="cls-5" d="M1237.74,880.56c-96,31-34.52,72,114.21,65.28s249.56,21.41,310.12-20.29-73.57-58-211.27-58.08S1277,867.86,1237.74,880.56Z"/><g id="_Group_3" data-name="&lt;Group&gt;"><rect id="_Rectangle_" data-name="&lt;Rectangle&gt;" class="cls-6" x="1210.23" y="636.43" width="424.24" height="277.1" rx="20.53" ry="20.53"/><path id="_Path_5" data-name="&lt;Path&gt;" class="cls-7" d="M1403.38,826.8a26.6,26.6,0,0,0,37.93,0l186.84-184.15a19.65,19.65,0,0,0-14.22-6.22H1230.76a19.65,19.65,0,0,0-14.22,6.22Z"/><path id="_Path_6" data-name="&lt;Path&gt;" class="cls-6" d="M1403.38,812.09a28.19,28.19,0,0,0,37.93,0l186.84-169.92a20.45,20.45,0,0,0-14.22-5.74H1230.76a20.45,20.45,0,0,0-14.22,5.74Z"/></g><path id="_Path_7" data-name="&lt;Path&gt;" class="cls-8" d="M946.44,500.12H683L501.29,729.31A38.1,38.1,0,0,0,493,753V859.71a38.1,38.1,0,0,0,38.1,38.1h567.19a38.1,38.1,0,0,0,38.1-38.1V753a38.1,38.1,0,0,0-8.25-23.68Z"/><path id="_Path_8" data-name="&lt;Path&gt;" class="cls-9" d="M493,775v84.73a38.1,38.1,0,0,0,38.1,38.1h567.19a38.1,38.1,0,0,0,38.1-38.1V775Z"/><polygon id="_Path_9" data-name="&lt;Path&gt;" class="cls-10" points="875.67 395.62 875.67 459.74 753.82 459.74 753.82 395.62 683.04 395.62 683.04 500.12 946.44 500.12 946.44 395.62 875.67 395.62"/><g id="_Group_4" data-name="&lt;Group&gt;" class="cls-11"><rect id="_Path_10" data-name="&lt;Path&gt;" class="cls-12" x="875.67" y="395.62" width="70.77" height="66.17"/><rect id="_Path_11" data-name="&lt;Path&gt;" class="cls-13" x="683.05" y="395.62" width="70.77" height="66.17"/></g><path id="_Path_12" data-name="&lt;Path&gt;" class="cls-14" d="M1246.49,395.53A117.88,117.88,0,0,0,1236,346.84q-1.78-3.93-3.83-7.7a118.74,118.74,0,0,0-58-52.62q-2.65-1.12-5.37-2.12-1.36-.5-2.73-1-2.75-.93-5.56-1.73a118.38,118.38,0,0,0-32.39-4.49H501.3A118.3,118.3,0,0,0,383,395.53h0V533.71H591V405.87a10.34,10.34,0,0,1,10.34-10.34h426.74a10.34,10.34,0,0,1,10.34,10.34V533.71h208V395.53h0Z"/><g id="_Group_5" data-name="&lt;Group&gt;"><path id="_Path_13" data-name="&lt;Path&gt;" class="cls-15" d="M639.25,277.22h-138A118.34,118.34,0,0,0,390.9,352.93,118.21,118.21,0,0,1,491.3,297.22H656.1C647.84,291.31,642.21,282.65,639.25,277.22Z"/><path id="_Path_14" data-name="&lt;Path&gt;" class="cls-16" d="M1236,346.84q-1.78-3.93-3.83-7.7a118.74,118.74,0,0,0-58-52.62q-2.65-1.12-5.37-2.12-1.36-.5-2.73-1-2.75-.93-5.56-1.73a118.38,118.38,0,0,0-32.39-4.49H869.52c.84,4,.71,9.23-5,10.55-9.58,2.24-38.2,5.82-54.9,2.41s-25.33-13-25.33-13a186.21,186.21,0,0,1-23.87,20h357.73a118.38,118.38,0,0,1,32.39,4.49q2.81.8,5.56,1.73,1.37.47,2.73,1,2.72,1,5.37,2.12a117.9,117.9,0,0,1,16.56,8.63c-1.59-.77-20-9.56-17.36.06,2.73,10,60.09,80.17,58.73,54.33a90.42,90.42,0,0,0-1.7-13.49c.6,1,1.18,2.05,1.75,3.09q2,3.77,3.83,7.7a117.88,117.88,0,0,1,10.45,48.69h0V533.71h10V395.53h0A117.88,117.88,0,0,0,1236,346.84Z"/></g><g id="_Group_6" data-name="&lt;Group&gt;"><path id="_Path_15" data-name="&lt;Path&gt;" class="cls-17" d="M809.67,290.18c16.7,3.42,45.32-.17,54.9-2.41,5.67-1.32,5.8-6.52,5-10.55H784.33S793,286.76,809.67,290.18Z"/><path id="_Path_16" data-name="&lt;Path&gt;" class="cls-18" d="M662.83,301.08c17.29,7.48-2.27,52.29-2.27,52.29L611.4,385.44s35.28,7.63,55.17,4.81,35.9-26.42,35.9-26.42l16.25,31.69h34.15c-1.92-8.23-6.26-27.62-8.13-42.63-2.43-19.57-9.7-41.45,6.6-50.09s33-25.58,33-25.58H639.25C643,284,650.83,295.89,662.83,301.08Z"/></g><rect id="_Rectangle_2" data-name="&lt;Rectangle&gt;" class="cls-19" x="1026.85" y="441.09" width="231.24" height="103.38" rx="11.92" ry="11.92"/><path id="_Path_17" data-name="&lt;Path&gt;" class="cls-20" d="M1246.16,441.09H1038.77A11.92,11.92,0,0,0,1026.85,453v3.24a12,12,0,0,1,1.92-.17h207.39A11.92,11.92,0,0,1,1248.09,468V544.3a11.92,11.92,0,0,0,10-11.76V453A11.92,11.92,0,0,0,1246.16,441.09Z"/><rect id="_Rectangle_3" data-name="&lt;Rectangle&gt;" class="cls-21" x="371.39" y="441.09" width="231.24" height="103.38" rx="11.92" ry="11.92"/><path id="_Path_18" data-name="&lt;Path&gt;" class="cls-22" d="M590.71,441.09H383.32A11.92,11.92,0,0,0,371.39,453v3.24a12,12,0,0,1,1.92-.17H580.71A11.92,11.92,0,0,1,592.64,468V544.3a11.92,11.92,0,0,0,10-11.76V453A11.92,11.92,0,0,0,590.71,441.09Z"/><circle id="_Path_19" data-name="&lt;Path&gt;" class="cls-23" cx="814.74" cy="676.43" r="148.19"/><circle id="_Path_20" data-name="&lt;Path&gt;" class="cls-24" cx="814.74" cy="656.43" r="148.19"/><circle id="_Path_21" data-name="&lt;Path&gt;" class="cls-25" cx="814.74" cy="636.43" r="148.19"/><path id="_Path_22" data-name="&lt;Path&gt;" class="cls-26" d="M814.74,502.24a148.19,148.19,0,0,1,148,141.19c.11-2.32.17-4.65.17-7a148.19,148.19,0,0,0-296.38,0c0,2.35.06,4.68.17,7A148.19,148.19,0,0,1,814.74,502.24Z"/><circle id="_Path_23" data-name="&lt;Path&gt;" class="cls-27" cx="814.74" cy="636.43" r="40.98"/><circle id="_Path_24" data-name="&lt;Path&gt;" class="cls-28" cx="814.74" cy="546.18" r="13.99"/><circle id="_Path_25" data-name="&lt;Path&gt;" class="cls-28" cx="750.93" cy="572.62" r="13.99" transform="translate(-184.96 698.7) rotate(-45)"/><circle id="_Path_26" data-name="&lt;Path&gt;" class="cls-28" cx="724.49" cy="636.43" r="13.99"/><circle id="_Path_27" data-name="&lt;Path&gt;" class="cls-28" cx="750.93" cy="700.24" r="13.99" transform="translate(-275.21 736.08) rotate(-45)"/><circle id="_Path_28" data-name="&lt;Path&gt;" class="cls-28" cx="814.74" cy="726.68" r="13.99"/><circle id="_Path_29" data-name="&lt;Path&gt;" class="cls-28" cx="878.56" cy="700.24" r="13.99" transform="translate(-237.82 826.33) rotate(-45)"/><circle id="_Path_30" data-name="&lt;Path&gt;" class="cls-28" cx="878.56" cy="572.62" r="13.99" transform="translate(-147.58 788.95) rotate(-45)"/><g id="_Group_7" data-name="&lt;Group&gt;"><path id="_Path_31" data-name="&lt;Path&gt;" class="cls-28" d="M667.86,347.38S652,361.08,641.95,366.11s-33.26,15.08-30.55,19.34,17.79,1.93,41-2.32S681.6,378.48,683,370s3.38-19.72,3.38-19.72Z"/><path id="_Path_32" data-name="&lt;Path&gt;" class="cls-29" d="M634.71,369.61c3.79,2.24,10.46,5.52,17.29,5.78,10.44.39,27.34-13.17,32.43-13.54,1.06-6.17,2-11.59,2-11.59l-18.56-2.88S652,361.08,641.95,366.11C640,367.11,637.44,368.3,634.71,369.61Z"/><path id="_Path_33" data-name="&lt;Path&gt;" class="cls-28" d="M721.34,375.4s7,34.44,12.66,42.77,21.32,17.32,25,6-10.33-30.62-13.32-36.46-11-18.16-11-18.16Z"/><path id="_Path_34" data-name="&lt;Path&gt;" class="cls-29" d="M740.47,406.53c7.18-1.93,3.85-16.62.55-26.9-3.12-5.12-6.35-10.09-6.35-10.09l-12.12,5.33C725.16,385.65,731.85,408.85,740.47,406.53Z"/><path id="_Path_35" data-name="&lt;Path&gt;" class="cls-27" d="M756.75,228.44H680.11s-17.28,15.86-17.28,34,11.11,27.71,55.6,27.71,55.6-9.53,55.6-27.71S756.75,228.44,756.75,228.44Z"/><path id="_Path_36" data-name="&lt;Path&gt;" class="cls-25" d="M620.58,59.15c-1.38,3.24-2.77,6.44-4.15,9.22-1.8-6.83-3.29-22.48-9.19-27.66-7.58-6.67-25.16,7-25.46,12.31s-.3,16.18,3.94,27.09a65.18,65.18,0,0,0,12.43,19.31l5.16-1.36c4.34,4.28,14.85-3,14.85-3s8.79-11.05,9.09-17.72.91-14.55,2.73-20S624.22,50.62,620.58,59.15Z"/><path id="_Path_37" data-name="&lt;Path&gt;" class="cls-30" d="M628.28,65.19h0c-.63,3.7-6.82,14.87-9.66,18.65s-18.89,8.26-23.84,4.72c-4.11-2.94-10.42-17.08-12.45-21.82a59.28,59.28,0,0,0,3.4,13.37,65.18,65.18,0,0,0,12.43,19.31l5.16-1.36c4.34,4.28,14.85-3,14.85-3s8.79-11.05,9.09-17.72C627.43,73.49,627.71,69.18,628.28,65.19Z"/><path id="_Path_38" data-name="&lt;Path&gt;" class="cls-31" d="M806.4,271.46s-1,16.76,13.24,16.76,19.18-4.43,23.51-4.43,8.66,4.43,15.78,4.43c5.42,0,11.37-1.07,8-3.83s-9.32-2.19-13.57-4.74-10.7-6.31-16.09-6.31-18.57-9.14-18.57-9.14Z"/><path id="_Path_39" data-name="&lt;Path&gt;" class="cls-30" d="M847.61,285a8.77,8.77,0,0,0-1.69-.93c-8.2-3.52-16.88-1-21.89-.16s-12.71-1.67-8.34-6.46a83.34,83.34,0,0,0,7.65-10.17c-2.72-1.67-4.68-3-4.68-3l-12.27,7.25s-1,16.76,13.24,16.76,19.18-4.43,23.51-4.43A11.63,11.63,0,0,1,847.61,285Z"/><path id="_Path_40" data-name="&lt;Path&gt;" class="cls-32" d="M772.6,122.2s7.33,12.16,20.87,50.3,35.72,85.35,35.72,85.35-5.68,12.32-28.29,14.37c0,0-16-47.62-21.79-60.76s-23.69-51.32-23.69-51.32Z"/><path id="_Path_41" data-name="&lt;Path&gt;" class="cls-32" d="M779.11,211.46c5.75,13.14,21.79,60.76,21.79,60.76,22.61-2.05,28.29-14.37,28.29-14.37s-11-23.34-22.17-50.45c-11.72-8.58-25.54-6.91-29.22-16.27-4.12-10.49-6.48-60.18-6.48-60.18l-14.76,31.63C760.59,171.16,774.23,200.32,779.11,211.46Z"/><path id="_Path_42" data-name="&lt;Path&gt;" class="cls-32" d="M660.18,122.2l-29.27,19.47-9-48.44s-17.24,1.23-27.09,7c0,0,7.8,58.71,13.55,66.51s20.12,6.57,32.43,0,32-18.06,32-18.06Z"/><path id="_Path_43" data-name="&lt;Path&gt;" class="cls-33" d="M649.25,142.4c-6.23,17.08-21.74,22.49-32.61,19.49s-19.37-44.49-19.38-44.52c2.77,18,7.34,44.3,11.06,49.35,5.75,7.8,20.12,6.57,32.43,0s32-18.06,32-18.06L660.18,122.2S655.48,125.32,649.25,142.4Z"/><path id="_Path_44" data-name="&lt;Path&gt;" class="cls-34" d="M697.54,10.07s6.67-11,22.32-10,38.8,12.29,40.54,39.26c1.25,19.38-11,40.5-7.46,46.1s-5.3,9.4-9,4.09c0,0,.2,13.69-27.32,13.69S690,89.52,690,89.52,679,94.91,676.64,91.85s1.53-5.8,2.62-10-2-12.94-5.24-26.26S672.56,12.19,697.54,10.07Z"/><path id="_Path_45" data-name="&lt;Path&gt;" class="cls-34" d="M760.4,39.33c-1.74-27-24.89-38.23-40.54-39.26s-22.32,10-22.32,10,12.39-6.4,24.89-5.15,32.54,12.82,33,32.2-7.59,34.67-2.47,40.78C755,68.62,761.32,53.51,760.4,39.33Z"/><path id="_Path_46" data-name="&lt;Path&gt;" class="cls-30" d="M729.1,82.81l-12.49-1-12.49,1s2.11,8.64,0,23.81c0,0,3.09,1.73,12.49,1.73s12.49-1.73,12.49-1.73C727,91.45,729.1,82.81,729.1,82.81Z"/><path id="_Path_47" data-name="&lt;Path&gt;" class="cls-30" d="M728.74,103.21h-24.2a54.15,54.15,0,0,1-14.71,6.72s3.06,25.43,26.82,25.43,26.82-25.43,26.82-25.43A54.14,54.14,0,0,1,728.74,103.21Z"/><g id="_Group_8" data-name="&lt;Group&gt;"><path id="_Path_48" data-name="&lt;Path&gt;" class="cls-35" d="M691.42,50.75s-6.34-4.61-9.6,0-1.47,19.62,6.46,18.82c5.64-.58,6.6-1.92,6.6-1.92Z"/><path id="_Path_49" data-name="&lt;Path&gt;" class="cls-36" d="M741.8,50.75s6.34-4.61,9.6,0,1.47,19.62-6.46,18.82c-5.64-.58-6.6-1.92-6.6-1.92Z"/></g><path id="_Path_50" data-name="&lt;Path&gt;" class="cls-25" d="M716.61,14.41c-21.25,0-31.25,22.27-28.13,42.45s15.63,32.66,28.13,32.66,25-12.47,28.13-32.66S737.86,14.41,716.61,14.41Z"/><path id="_Path_51" data-name="&lt;Path&gt;" class="cls-37" d="M744.8,56.36c2.88-20.05-7.12-42-28.19-42-21.25,0-31.25,22.27-28.13,42.45a51,51,0,0,0,5.4,16.54h0s-2.33-14.67,0-21.44c0,0,12.27-5.06,18.17-13.06,0,0,11.36,14,23.39,16Z"/><path id="_Path_52" data-name="&lt;Path&gt;" class="cls-34" d="M687.92,48.7s17.83-4.5,23.73-20.92c0,0,4.16,19.7,33.64,21.27h4s.54-37.3-37.3-37.3C698.56,11.75,681.9,34.29,687.92,48.7Z"/><path id="_Path_53" data-name="&lt;Path&gt;" class="cls-38" d="M698.84,106.47s.69,20.23,17.8,20.23,17.81-20.23,17.81-20.23l11.2,3.18-4.39,75.42,14.16,45.66s-25.84,7.8-38.78,7.8-35.2-6.94-35.2-6.94l13.43-50.28-12-70.51Z"/><path id="_Path_54" data-name="&lt;Path&gt;" class="cls-38" d="M716.64,238.53c6.13,0,15.15-1.75,22.95-3.59l1.5-11.48s-8.54-68.54-9-64.29-1.38,15.29-16.45,14.92-15.13-16.64-15.13-16.64l-6.3,20,.66,3.9-13.43,50.28S703.69,238.53,716.64,238.53Z"/><path id="_Path_55" data-name="&lt;Path&gt;" class="cls-32" d="M739.35,106.47s-9.85,58.44-9.25,85.74,21.7,58.12,21.7,58.12,15.32-5.78,20.81-14.13c0,0-11-26-11.11-41.74s11.4-68.4,11.11-72.25S748.86,108.58,739.35,106.47Z"/><path id="_Path_56" data-name="&lt;Path&gt;" class="cls-32" d="M772.6,236.19s-11-26-11.11-41.74c-.08-7.64,2.61-24,5.36-39.23-1,5.22-11.92,29.54-19.56,32.91s-17.07-5.28-17.07-5.28h0c-.14,3.38-.19,6.54-.13,9.35.6,27.29,21.7,58.12,21.7,58.12S767.11,244.54,772.6,236.19Z"/><path id="_Path_57" data-name="&lt;Path&gt;" class="cls-32" d="M693.43,106.47s9.85,58.44,9.25,85.74S681,250.32,681,250.32s-15.32-5.78-20.81-14.13c0,0,11-26,11.11-41.74s-11.4-68.4-11.11-72.25S683.92,108.58,693.43,106.47Z"/><path id="_Path_58" data-name="&lt;Path&gt;" class="cls-27" d="M695.53,250.32c-22.66,2.48-17.06,25-8.75,54s31.65,74.93,31.65,74.93a18,18,0,0,0,11.64,0c6.14-2.19,9.64-8.31,9.64-8.31S727,311.87,721.78,293.06,714.34,248.26,695.53,250.32Z"/><path id="_Path_59" data-name="&lt;Path&gt;" class="cls-27" d="M730.07,379.24c6.14-2.19,9.64-8.31,9.64-8.31S727,311.87,721.78,293.06c-3.42-12.27-5.55-27.6-11.83-36.2-3.92,5.08-9.69,20.71-17.31,23.65-8.51,3.3-12.43-3.29-12.43-3.3,1.18,7.89,3.71,17.1,6.57,27.08,8.31,29,31.65,74.93,31.65,74.93A18,18,0,0,0,730.07,379.24Z"/><path id="_Path_60" data-name="&lt;Path&gt;" class="cls-27" d="M748.8,224.18c23.8,12,12.05,41.27-5.35,66.87s-53.63,65.82-53.63,65.82-16.53.85-25.41-9.5c0,0,35.94-69.91,45.92-86.62S738.33,218.89,748.8,224.18Z"/><g id="_Group_9" data-name="&lt;Group&gt;"><g id="_Group_10" data-name="&lt;Group&gt;"><path id="_Path_61" data-name="&lt;Path&gt;" class="cls-25" d="M749.8,48.68h-5V35.15a19.43,19.43,0,0,0-19.4-19.4H705.88a19.43,19.43,0,0,0-19.4,19.4V48.68h-5V35.15a24.43,24.43,0,0,1,24.4-24.4h19.51a24.43,24.43,0,0,1,24.4,24.4Z"/></g><g id="_Group_11" data-name="&lt;Group&gt;"><path id="_Path_62" data-name="&lt;Path&gt;" class="cls-25" d="M701.66,81c-16-2-19-12.91-19.14-13.37l2.9-.75c.1.38,2.68,9.43,16.6,11.15Z"/></g><rect id="_Rectangle_4" data-name="&lt;Rectangle&gt;" class="cls-7" x="677.77" y="45.37" width="12.42" height="27.49" rx="6.21" ry="6.21"/><rect id="_Rectangle_5" data-name="&lt;Rectangle&gt;" class="cls-7" x="741.09" y="45.37" width="12.42" height="27.49" rx="6.21" ry="6.21"/><path id="_Path_63" data-name="&lt;Path&gt;" class="cls-29" d="M747.3,45.37h0a6.23,6.23,0,0,0-6,4.5,6.2,6.2,0,0,1,5-2.5h0a6.23,6.23,0,0,1,6.21,6.21V68.65a6.15,6.15,0,0,1-.25,1.71,6.16,6.16,0,0,0,1.25-3.71V51.58A6.23,6.23,0,0,0,747.3,45.37Z"/><path id="_Path_64" data-name="&lt;Path&gt;" class="cls-29" d="M684,45.37h0a6.23,6.23,0,0,0-6,4.5,6.2,6.2,0,0,1,5-2.5h0a6.23,6.23,0,0,1,6.21,6.21V68.65a6.15,6.15,0,0,1-.25,1.71,6.16,6.16,0,0,0,1.25-3.71V51.58A6.23,6.23,0,0,0,684,45.37Z"/><g id="_Group_12" data-name="&lt;Group&gt;"><path id="_Path_65" data-name="&lt;Path&gt;" class="cls-6" d="M706.76,83.82a44.42,44.42,0,0,1-5.4-.32,4,4,0,1,1,1-7.94,36.37,36.37,0,0,0,4.42.26,4,4,0,0,1,0,8Z"/></g></g><path id="_Path_66" data-name="&lt;Path&gt;" class="cls-32" d="M702.47,195.85c-1.63,1.55-11.52,10.44-18.49,4.27-7.62-6.75-14.6-24.4-14.6-24.4,1.17,7.78,2,14.56,1.91,18.73-.16,15.73-11.11,41.74-11.11,41.74,5.49,8.35,20.81,14.13,20.81,14.13S700.24,222.17,702.47,195.85Z"/><g id="_Group_13" data-name="&lt;Group&gt;"><path id="_Path_67" data-name="&lt;Path&gt;" class="cls-39" d="M759.06,261.84c.08-.25.16-.51.23-.77l-.64,1.89C758.78,262.58,758.93,262.21,759.06,261.84Z"/><path id="_Path_68" data-name="&lt;Path&gt;" class="cls-40" d="M748.8,224.18c-10.47-5.29-28.5,19.85-38.48,36.57-8.5,14.25-35.86,67.11-43.76,82.43,0,0,46.07-76.46,54.77-88s22.06-26.12,28.59-22c6.09,3.88,11.81,18.55,9.36,27.89l.68-2C764.5,244.32,762.82,231.26,748.8,224.18Z"/></g><path id="_Path_69" data-name="&lt;Path&gt;" class="cls-29" d="M828.68,256.75c-3.38-7.27-22.87-49.52-35.2-84.26-13.55-38.14-20.87-50.3-20.87-50.3-.24-3.14-15.84-10.2-26.76-13.85,0,0,19.28,10.57,23.55,15.07s38,93.47,44.36,107.46A175.46,175.46,0,0,0,828.68,256.75Z"/><path id="_Path_70" data-name="&lt;Path&gt;" class="cls-29" d="M618.36,97.73l12.54,43.94-9-48.44s-17.24,1.23-27.09,7C594.78,100.21,609.77,97.31,618.36,97.73Z"/></g><g id="_Group_14" data-name="&lt;Group&gt;"><path id="_Path_71" data-name="&lt;Path&gt;" class="cls-25" d="M1463.29,484.71a186.79,186.79,0,0,1,14.59-15.33c8-7.42,27.76-35.28,27.76-35.28s11.76,1.33,15.06,8c0,0-15.53,28.52-21.64,39s-29.64,30.25-29.64,30.25Z"/><path id="_Path_72" data-name="&lt;Path&gt;" class="cls-30" d="M1485.05,487c-6.79,0-17.95-4.58-17.95-4.58l-1,14.8,1.86,8.11,7,1.21c7.35-6.53,19.83-18.16,24-25.39,4-6.93,12.18-21.72,17.25-31C1508.49,461.47,1490.33,487,1485.05,487Z"/><path id="_Path_73" data-name="&lt;Path&gt;" class="cls-25" d="M1345.49,498h-14.68s7.34-19.07,12.54-37.16l-12.54-3.72s-21.1,33.33-24.46,45.86,3.67,10.7,7.64,12.54,34.55,5.2,34.55,5.2Z"/><path id="_Path_74" data-name="&lt;Path&gt;" class="cls-30" d="M1314,515.47c4,1.83,34.55,5.2,34.55,5.2l-1.38-10.27-3.83-12.24-13.16,13.54s-12.55.8-16.75-3.72,2.18-25.12,2.19-25.12c-4.21,7.71-8,15.36-9.25,20.07C1303,515.47,1310,513.64,1314,515.47Z"/><path id="_Path_75" data-name="&lt;Path&gt;" class="cls-41" d="M1387.85,445.33s-4.18-12.11-3.42-17.92c0,0-7.23,2.18-8-5.33s5.69-8.18,5.69-8.18-6.9-7.56-1.82-11.91,11.65-1.94,12.6,1.94c0,0,2.41-7.26,8.7-6.05s5.08,6.05,5.08,6.05,27.31-4.18,39.23,7.75c2.42,2.42,3.49,12.35,3.49,12.35s6.68-.24,6.19,10.41-9.71,32-12.72,34.38-9.79-3.87-9.79-3.87Z"/><path id="_Path_76" data-name="&lt;Path&gt;" class="cls-29" d="M1330.81,457.08l12.54,3.72s4.5-2.74,9.07-9.35,10.06-21.68,3.73-23.44-19.7-6.06-25.87,0S1330.81,457.08,1330.81,457.08Z"/><path id="_Path_77" data-name="&lt;Path&gt;" class="cls-31" d="M1427.78,490.5h-21.66a48.45,48.45,0,0,1-13.17,6s2.74,22.75,24,22.75,24-22.75,24-22.75A48.44,48.44,0,0,1,1427.78,490.5Z"/><path id="_Path_78" data-name="&lt;Path&gt;" class="cls-30" d="M1430.46,471.46l-13.53,2.79-13.53.86s2.29,7.73,0,21.3c0,0,3.35,1.55,13.53,1.55s13.53-1.55,13.53-1.55A76.2,76.2,0,0,1,1430.46,471.46Z"/><path id="_Path_79" data-name="&lt;Path&gt;" class="cls-25" d="M1416.92,413.91c-19,0-28.67,18.09-27.86,36.27s11.58,30.93,22.76,30.93,27.46-11.16,30.26-29.22S1435.93,413.91,1416.92,413.91Z"/><path id="_Path_80" data-name="&lt;Path&gt;" class="cls-30" d="M1395.95,424.69a34,34,0,0,0-4.21,7.93c5,.19,33.43,1.28,37,1.48,3.92.22,5.06,15.26,10.52,18.34l-9.5-32.36Z"/><g id="_Group_15" data-name="&lt;Group&gt;"><path id="_Path_81" data-name="&lt;Path&gt;" class="cls-29" d="M1394.41,443.93s-5.67-4.12-8.59,0-1.31,17.56,5.78,16.83c5-.52,5.9-1.72,5.9-1.72Z"/><path id="_Path_82" data-name="&lt;Path&gt;" class="cls-29" d="M1439.49,443.93s5.67-4.12,8.59,0,1.31,17.56-5.78,16.83c-5-.52-5.9-1.72-5.9-1.72Z"/></g><path id="_Path_83" data-name="&lt;Path&gt;" class="cls-41" d="M1430.46,430.56a30.86,30.86,0,0,1,4.86,11.54c1,6.14,3.65,12.19,7.27,12.19s3.38-23.73,3.38-23.73l-12.59-16.66s-10.65-5.14-21.07-5.14-24.46,22.76-24.46,22.76Z"/><path id="_Path_84" data-name="&lt;Path&gt;" d="M1352.74,749.71s.53,8-8.77,15.95-21.36,15.95-18.52,21,18.26,1.33,27.3-4.25,14.61-9.3,18.86-10.1,13-2.92,12.23-7.44-5.58-17-6.91-20.73S1352.74,749.71,1352.74,749.71Z"/><path id="_Path_85" data-name="&lt;Path&gt;" d="M1425.83,746.79s-1.59,12.76-3.19,20.73-2.39,16.19,5.85,21.52,14.35,1.6,18.87-5,1.41-14,0-23.12a93.29,93.29,0,0,1-1.33-14.09Z"/><path id="_Path_86" data-name="&lt;Path&gt;" class="cls-42" d="M1465.13,639c1.78-4,2.41-8.93,1.68-14.75-2.11-16.91-8-25.37-8-25.37l-76.54,4.65s-23,16.91-43.2,31.29-13,22.83-8.81,43.13,19.45,74.42,19.45,74.42,15.22,4.23,32.56-5.92c0,0-6.77-41.44-8.46-55.82s-5.5-32.14-5.5-32.14,21.57-4.65,35.1-8c0,0,24.1,3.38,40.17,1.69a35.69,35.69,0,0,0,10.61-2.65l2.88,3.85A47.76,47.76,0,0,0,1465.13,639Z"/><path id="_Path_87" data-name="&lt;Path&gt;" class="cls-43" d="M1418.76,511.7s.73-8.5,5.38-14.06c1.8-2.15,3.53-6.89,9.07-4.07,0,0,16.28-3.5,29.72-12.46,0,0,19.2,2.94,25.73,28.67,0,0-14.21,15.75-29.19,29.19l8.83,69.9s-22.27,12.67-33.8,12.67-17.55-10.75-17.55-10.75S1415.68,538.2,1418.76,511.7Z"/><path id="_Path_88" data-name="&lt;Path&gt;" class="cls-43" d="M1397.5,492.88s7.93-1.8,13.14,3.49c3.29,3.34,6.41,8.82,8.12,15.33,0,0,2.91,89.48-1.81,99.09s-17,13.83-29.09,6.91A110.56,110.56,0,0,1,1366.91,602s6.53-56.07,7.68-69.51l-33.8-1.15s-5.38-18.05,2.69-35.33c0,0,29.86-.77,35.86-.77S1397.5,492.88,1397.5,492.88Z"/><path id="_Path_89" data-name="&lt;Path&gt;" class="cls-37" d="M1343.48,496a51.14,51.14,0,0,0-4.38,23.93l.84,7.57a94.37,94.37,0,0,1,6-27.88l35.68-4.12-3.42-.25C1370.26,495.27,1343.48,496,1343.48,496Z"/><path id="_Path_90" data-name="&lt;Path&gt;" class="cls-42" d="M1437.63,631.43c19-1.36,21.57,16.49,19,51.17s-6.77,68.5-6.77,68.5-19.07,4.23-30.25-2.54c0,0-2.77-57.09,0-82.46S1425.79,632.27,1437.63,631.43Z"/><path id="_Path_91" data-name="&lt;Path&gt;" class="cls-25" d="M1504.74,434.09s-4.2-14.55-1.8-20.78,5-13.69,5.55-19.42,8-3.87,7.89,5.4-.06,18.23,2.78,20.8,4.53,16.53-1.37,21.07S1504.74,434.09,1504.74,434.09Z"/><path id="_Path_92" data-name="&lt;Path&gt;" class="cls-25" d="M1519.42,443.24s11-2.64,18.91-10.6a63.81,63.81,0,0,0,13.95-22.33c1.8-4.82-8.41-23.63-17.67-20.69s-18.78,23.91-21.57,23-5.28,4-5.28,4l-.59,18Z"/><polygon id="_Path_93" data-name="&lt;Path&gt;" class="cls-32" points="1320.81 448.39 1243.21 431.69 1265.17 380.34 1330.17 425.54 1320.81 448.39"/><rect id="_Rectangle_6" data-name="&lt;Rectangle&gt;" class="cls-44" x="1324.4" y="429.92" width="31.08" height="25.19" transform="translate(264.14 -470.68) rotate(22.05)"/><path id="_Path_94" data-name="&lt;Path&gt;" class="cls-25" d="M1333,455.06a9.47,9.47,0,0,1,7.53-7.3c6.66-1.52,11.94-.24,13.14-4.57s1.11-7.06,5.13-9.06,1.25,4.2,1.19,7.23-3.37,18.21-11,20.26-9.92,1.4-9.92,1.4Z"/><path id="_Path_95" data-name="&lt;Path&gt;" class="cls-25" d="M1343.33,420.92c8,.73,15.17,1.1,15.09,9.08s-7.75,10.44-15.09,10.44-17-.39-16.32-8.91S1336.56,420.31,1343.33,420.92Z"/><path id="_Path_96" data-name="&lt;Path&gt;" class="cls-37" d="M1418.76,511.7s4-14.05,7.54-17,11.65,13,11.65,13,3.59-9.64,2.65-16.15c0,0-8.32-11.46-11.11-10.4S1420.56,504.14,1418.76,511.7Z"/><path id="_Path_97" data-name="&lt;Path&gt;" class="cls-37" d="M1404.4,484.71s14.1,18.07,14.35,27c0,0-5.41-14.86-9.86-13.5s-11.39,13.5-11.39,13.5-5.1-12-4.54-18.92C1393,492.78,1399.39,483.6,1404.4,484.71Z"/><path id="_Path_98" data-name="&lt;Path&gt;" class="cls-37" d="M1462.92,481.11a92,92,0,0,1-22.33,10.4s13.13-2.15,22.7-6.81c0,0,12,1,25.36,25.08C1482.12,484.05,1462.92,481.11,1462.92,481.11Z"/></g><path id="_Path_99" data-name="&lt;Path&gt;" class="cls-27" d="M883.93,633.78,969.54,615a2.64,2.64,0,0,1,3.21,2.58v36.66a2.64,2.64,0,0,1-3.18,2.59L884,638.95A2.64,2.64,0,0,1,883.93,633.78Z"/><g id="_Group_16" data-name="&lt;Group&gt;"><path id="_Path_100" data-name="&lt;Path&gt;" class="cls-25" d="M408.28,531.92c-6.84,2.17-13.82,14.18-18.13,19.94-.16-3.14-.14-6.67-.1-10.25.1-9.27-7.36-11.13-7.89-5.4s-3.14,13.19-5.55,19.42,1.2,19.88,1.2,19.88a32.79,32.79,0,0,0,1.9,2.67c-4.91,5.65-21.2,24.63-30.43,38.2-1.71-5.27-3.16-8.89-3.16-8.89l-24.38,10.86s11.7,44.86,27.8,37a7.09,7.09,0,0,0,1.8-1.26c14-11.07,38.14-58.54,42.39-67A62.63,62.63,0,0,0,412,574.94a63.81,63.81,0,0,0,13.95-22.33C427.74,547.79,417.53,529,408.28,531.92Z"/><path id="_Path_101" data-name="&lt;Path&gt;" class="cls-30" d="M378.06,616.37s-23.46,26.13-29,28.07-10.91-8-10.91-8c3-4.78,11.14-20.06,11.14-20.06-1.71-5.27-3.16-8.89-3.16-8.89l-24.38,10.86s11.7,44.86,27.8,37a7.09,7.09,0,0,0,1.8-1.26c7.53-6,18-22.44,26.72-37.72Z"/><path id="_Path_102" data-name="&lt;Path&gt;" class="cls-42" d="M231,908.21a44.8,44.8,0,0,1-21.94,15.54c-14.8,4.88-19.9,6.1-20.16,11.58s23.73,4.27,35.21,4.27,30.11,1.52,30.37-4.57-1.79-25-1.79-25Z"/><path id="_Path_103" data-name="&lt;Path&gt;" class="cls-42" d="M332.82,908.21a44.8,44.8,0,0,0,21.94,15.54c14.8,4.88,19.9,6.1,20.16,11.58s-23.73,4.27-35.21,4.27-30.11,1.52-30.37-4.57,1.79-25,1.79-25Z"/><path id="_Path_104" data-name="&lt;Path&gt;" class="cls-34" d="M329.11,793.92C327,762,319.58,683.76,319.58,683.76l-44.27,5.55L233.1,678.06s-4.45,37.17-5.71,91,0,140.32,0,140.32,8.87,11.82,29.41,4.88c0,0,5-70.36,5-91.19l13.47-79.62,2.8,2.31s15.11,51.38,18.21,67.58S309.5,912,309.5,912c18.6,3.7,26-3.7,26-3.7S331.2,825.86,329.11,793.92Z"/><path id="_Path_105" data-name="&lt;Path&gt;" class="cls-38" d="M319.58,683.76l-44.27,5.55-24-6.41-18.89,1.75c-.5,4.9-1.2,12.4-1.93,22,10.88,1.33,30.33,3.38,50.68,3.88A393.15,393.15,0,0,0,322,709.42C320.59,694.39,319.58,683.76,319.58,683.76Z"/><path id="_Path_106" data-name="&lt;Path&gt;" class="cls-25" d="M200.8,607s-16.17,30.91-11.86,43.42,16.4,11.17,24.46,0S229,619.57,229,619.57Z"/><path id="_Path_107" data-name="&lt;Path&gt;" class="cls-27" d="M238.77,493.12s-4.63-15.12,2.66-27.38c0,0-9-4.37-6.84-9s10.06,1.92,10.06,1.92-6.33-9.39-1.27-10.69,5.6,4.43,5.6,4.43,18.89-13.82,47.57-2.09c0,0,10-4.69,13-1.83S307.37,460,307.37,460s5.33-1.56,6.93.78-4,13.56-4,13.56.53,12.26-1.07,21.91Z"/><path id="_Path_108" data-name="&lt;Path&gt;" class="cls-27" d="M246.17,508s-2.15,8.87,0,11,4.6-.76,4.6-.76-2,6.22,1.65,7.68S268,519.66,268,519.66l-16.46-14.27Z"/><path id="_Path_109" data-name="&lt;Path&gt;" class="cls-30" d="M290.34,525.18l-15.13-1-15.13,1s2.56,8.64,0,23.81c0,0,3.74,1.73,15.13,1.73S290.34,549,290.34,549C287.78,533.82,290.34,525.18,290.34,525.18Z"/><path id="_Path_110" data-name="&lt;Path&gt;" class="cls-30" d="M287.34,542.38h-24.2a54.15,54.15,0,0,1-14.71,6.72s3.06,25.43,26.82,25.43,26.82-25.43,26.82-25.43A54.14,54.14,0,0,1,287.34,542.38Z"/><path id="_Path_111" data-name="&lt;Path&gt;" class="cls-25" d="M310,493.12c-1.66-2.34-4.1-2.3-6.11-1.7-.18-17.72-10.15-34.64-28.68-34.64s-28.5,16.93-28.68,34.64c-2-.6-4.46-.64-6.11,1.7-3.26,4.61-1.47,19.62,6.46,18.82a26.51,26.51,0,0,0,3.53-.57c5.3,12.93,15.05,20.53,24.81,20.53s19.51-7.6,24.81-20.53a26.51,26.51,0,0,0,3.53.57C311.47,512.74,313.26,497.73,310,493.12Z"/><path id="_Path_112" data-name="&lt;Path&gt;" class="cls-30" d="M252,498c2.2-5.37,3.79-9.8,3.79-9.8s7.08,5.36,9.65,3.31,2.59-6.08,2.59-6.08,15.37,9.28,19.4,7.82,3-6.59,3-6.59,10.09,7.94,10.95,10.26,0-14.17,0-14.17l-21.37-8.95L251.15,478l-4,6.06a47.12,47.12,0,0,0-.66,7.35,6,6,0,0,0-4.21.09l-1.85,2.82,3.1,16.9a5.3,5.3,0,0,0,3.3.7,26.51,26.51,0,0,0,3.53-.57S249.75,503.41,252,498Z"/><path id="_Path_113" data-name="&lt;Path&gt;" class="cls-27" d="M243.11,484.26s-.91,17.56,3.06,17.26,8.93-20.13,8.93-20.13,3,4.82,7.62,6.85,3.86-2.41,3.86-6.85c0,0,8.09,8.4,17,9.68s3.39-6.55,2.35-9.68c0,0,9.91,5.53,12.78,9.68s5.48,9.42,7.82,3.26,0-16.07,0-16.07l-14.08-23-32.34-2.87-13.54,21.13Z"/><path id="_Path_114" data-name="&lt;Path&gt;" class="cls-45" d="M329.11,560.24a102,102,0,0,0-19.35-9.53c-10.44-3.69-14.43-4-14.43-4s0,18.74-20,18.75-20-18.75-20-18.75-4,.31-14.43,4a102,102,0,0,0-19.35,9.53S225,683,225,694.43c0,0,11.86,5.73,50.33,5.73h0c38.47,0,50.33-5.73,50.33-5.73C325.66,683,329.11,560.24,329.11,560.24Z"/><path id="_Path_115" data-name="&lt;Path&gt;" class="cls-45" d="M329.11,560.24c7.87,6.7,19.94,45.54,19.94,45.54s-9.43,14.46-26,16.66Z"/><path id="_Path_116" data-name="&lt;Path&gt;" class="cls-31" d="M309.66,651.16c-6.65.19-10.33,4.29-13.08,4.19s-11.93,1-14,0-7.37-10-19.86-4.93c0,0-37.21-13.41-51.59-14s-17.9,20.67-17.9,20.67c18.07,12.6,51.24,8.2,67.15,7.52,0,0,14.4,3.71,24.27,4.17s17.21-8.26,23.18-11S316.31,651,309.66,651.16Z"/><path id="_Path_117" data-name="&lt;Path&gt;" class="cls-30" d="M309.66,651.16c-6.65.19-10.33,4.29-13.08,4.19s-11.93,1-14,0-7.37-10-19.86-4.93c0,0-25-9-41.89-12.57,4.74-9.28,8.21-18.28,8.21-18.28l-27-12-1.46-.06c-.77,1.52-3.32,6.62-5.9,13,2.4,3.15,6.43,8.07,10.35,11.15,6.14,4.82,12.9,25.3,16.51,29.09a56.33,56.33,0,0,0,6.3,5.14c12.47.37,24.65-.88,32.56-1.22,0,0,14.4,3.71,24.27,4.17s17.21-8.26,23.18-11l0,0,2.53-6.59C310.15,651.17,309.92,651.16,309.66,651.16Z"/><path id="_Path_118" data-name="&lt;Path&gt;" class="cls-45" d="M221.51,560.24c-10.84,7.87-28.28,52.55-28.28,52.55A43.17,43.17,0,0,0,229,627.43Z"/><path id="_Path_119" data-name="&lt;Path&gt;" class="cls-7" d="M321.5,650.42H229.83a3.8,3.8,0,0,1-3.72-3l-12.84-58.34a3.8,3.8,0,0,1,3.72-4.62H334.34a3.8,3.8,0,0,1,3.72,4.62l-12.84,58.34A3.8,3.8,0,0,1,321.5,650.42Z"/><path id="_Path_120" data-name="&lt;Path&gt;" class="cls-29" d="M332.84,597.34c-1.07,7.93-5.89,42.24-5.89,42.24h0l11.11-50.5a3.8,3.8,0,0,0-3.72-4.62H223.26s88.5,3.22,98.93,3.87S333.91,589.41,332.84,597.34Z"/><rect id="_Rectangle_7" data-name="&lt;Rectangle&gt;" class="cls-44" x="225.28" y="650.42" width="100.78" height="8.42" rx="4.21" ry="4.21"/><g id="_Group_17" data-name="&lt;Group&gt;"><path id="_Path_121" data-name="&lt;Path&gt;" class="cls-46" d="M308,491.55h-5V478a19.43,19.43,0,0,0-19.4-19.4H264.12a19.43,19.43,0,0,0-19.4,19.4v13.54h-5V478a24.43,24.43,0,0,1,24.4-24.4h19.51A24.43,24.43,0,0,1,308,478Z"/></g><g id="_Group_18" data-name="&lt;Group&gt;"><path id="_Path_122" data-name="&lt;Path&gt;" class="cls-46" d="M265,526.18a43.83,43.83,0,0,1-5.33-.31,3.5,3.5,0,1,1,.86-6.95,36.77,36.77,0,0,0,4.48.26,3.5,3.5,0,1,1,0,7Z"/></g><g id="_Group_19" data-name="&lt;Group&gt;"><path id="_Path_123" data-name="&lt;Path&gt;" class="cls-46" d="M259.9,523.88c-16-2-19-12.91-19.14-13.37l2.9-.75c.1.38,2.68,9.43,16.6,11.15Z"/></g><rect id="_Rectangle_8" data-name="&lt;Rectangle&gt;" class="cls-7" x="236" y="488.24" width="12.42" height="27.49" rx="6.21" ry="6.21"/><rect id="_Rectangle_9" data-name="&lt;Rectangle&gt;" class="cls-7" x="299.32" y="488.24" width="12.42" height="27.49" rx="6.21" ry="6.21"/><path id="_Path_124" data-name="&lt;Path&gt;" class="cls-29" d="M242.21,488.24a6.2,6.2,0,0,0-4.85,2.36,6.19,6.19,0,0,1,10.06,4.85v15.07a6.17,6.17,0,0,1-1.36,3.85,6.2,6.2,0,0,0,2.36-4.85V494.45A6.23,6.23,0,0,0,242.21,488.24Z"/><path id="_Path_125" data-name="&lt;Path&gt;" class="cls-29" d="M305.53,488.24h0a6.2,6.2,0,0,0-4.85,2.36,6.17,6.17,0,0,1,3.85-1.36h0a6.23,6.23,0,0,1,6.21,6.21v15.07a6.17,6.17,0,0,1-1.35,3.85,6.2,6.2,0,0,0,2.35-4.85V494.45A6.23,6.23,0,0,0,305.53,488.24Z"/><path id="_Path_126" data-name="&lt;Path&gt;" class="cls-47" d="M328.6,565.49c3.65,5.84,19.19,42,19.2,42,.83-1,1.25-1.7,1.25-1.7S337,566.94,329.11,560.24a102,102,0,0,0-19.35-9.53c-10.44-3.69-14.43-4-14.43-4S324.95,559.65,328.6,565.49Z"/><path id="_Path_127" data-name="&lt;Path&gt;" class="cls-47" d="M221.51,560.24c-4.68,3.4-10.59,13.66-15.8,24.23,0,0,15.86-19.82,21.11-23.13s28.48-14.63,28.48-14.63-4,.31-14.43,4A102,102,0,0,0,221.51,560.24Z"/><path id="_Path_128" data-name="&lt;Path&gt;" class="cls-27" d="M244.06,457.74s-1-7.28,1.16-7.41,2.7,4.29,2.7,4.29,25.35-12.19,48-.58c0,0,8.72-4.67,11.6-3.82s1.75,5.76,1.72,5.88c1.06-2.67,1.87-6,.25-7.57-2.93-2.87-13,1.83-13,1.83-28.68-11.74-47.57,2.09-47.57,2.09s-.53-5.74-5.6-4.43C239.32,449.06,242.61,455.32,244.06,457.74Z"/><path id="_Path_129" data-name="&lt;Path&gt;" class="cls-27" d="M314.3,460.79c-1.6-2.35-6.93-.78-6.93-.78l-2.78,1s7.21-1.24,8.52.65.39,5.13.39,5.13l.75-2.5C314.64,462.75,314.74,461.43,314.3,460.79Z"/></g><g id="_Group_20" data-name="&lt;Group&gt;"><g id="_Group_21" data-name="&lt;Group&gt;"><path id="_Path_130" data-name="&lt;Path&gt;" class="cls-46" d="M1447,443.24h-5V429.71c0-10.7-8.19-19.4-18.27-19.4H1405.2c-10.07,0-18.27,8.7-18.27,19.4v13.54h-5V429.71c0-13.46,10.44-24.4,23.27-24.4h18.49c12.83,0,23.27,10.95,23.27,24.4Z"/></g><g id="_Group_22" data-name="&lt;Group&gt;"><path id="_Path_131" data-name="&lt;Path&gt;" class="cls-46" d="M1407.67,477.88a43.84,43.84,0,0,1-5.33-.31,3.5,3.5,0,0,1,.86-6.95,36.75,36.75,0,0,0,4.48.26,3.5,3.5,0,0,1,0,7Z"/></g><g id="_Group_23" data-name="&lt;Group&gt;"><path id="_Path_132" data-name="&lt;Path&gt;" class="cls-46" d="M1402.58,475.58c-16-2-19-12.91-19.14-13.37l2.91-.74-1.45.37,1.45-.38c.1.38,2.68,9.43,16.6,11.15Z"/></g><rect id="_Rectangle_10" data-name="&lt;Rectangle&gt;" class="cls-48" x="1380.14" y="438.93" width="10.82" height="27.49" rx="5.07" ry="5.07"/><rect id="_Rectangle_11" data-name="&lt;Rectangle&gt;" class="cls-49" x="1438.25" y="439.93" width="12.42" height="27.49" rx="6.21" ry="6.21"/></g><path id="_Path_133" data-name="&lt;Path&gt;" class="cls-30" d="M1160.74,340.39c-10.63,4.72,20.55,48.47,27.14,45.75S1178.19,332.63,1160.74,340.39Z"/><path id="_Path_134" data-name="&lt;Path&gt;" class="cls-30" d="M1135.62,833l.82-6.45V753a38.1,38.1,0,0,0-8.25-23.68L946.44,500.12s158.33,214.61,166.84,235.47S1135.62,833,1135.62,833Z"/><path id="_Path_135" data-name="&lt;Path&gt;" class="cls-50" d="M969.54,615l-85.61,18.81s75.06-10.92,80.64-11.62,5.59,3.72,5.59,9.54,2.59,22.51,2.59,22.51V617.55A2.64,2.64,0,0,0,969.54,615Z"/></g></g><path class="cls-51" d="M269.39,609.48l3.22,4c.84,1,1.54,2,2.29,3H275c.75-1.11,1.49-2.07,2.24-3.07l3.17-3.95h4.44l-7.7,9,7.94,9.58h-4.67l-3.31-4.18c-.89-1.07-1.63-2.11-2.43-3.22h-.09c-.75,1.11-1.54,2.11-2.38,3.22L269,628h-4.53l8-9.47-7.65-9.09Z"/><path class="cls-32" d="M712.31,163.43l2.75,3.85c.72,1,1.31,1.93,2,2.93h.12c.64-1.07,1.27-2,1.91-3l2.71-3.82h3.79L719,172.1l6.77,9.26h-4l-2.83-4c-.76-1-1.39-2-2.07-3.11h-.08c-.64,1.07-1.31,2-2,3.11l-2.79,4h-3.86l6.85-9.15-6.53-8.78Z"/><path class="cls-34" d="M1354.66,849.57v7.74h6.52v1.43h-6.52v20.37a8.13,8.13,0,0,0,1,4.51,3.73,3.73,0,0,0,3.33,1.46,20.58,20.58,0,0,0,2.84-.24l.24,1.35a9.79,9.79,0,0,1-3,.32q-3.13,0-4.48-1.74t-1.38-5.48V858.74h-5.3v-1.43h5.3v-7.74Z"/><path class="cls-34" d="M1370.06,864a12,12,0,0,1,4.13-5.27,10.21,10.21,0,0,1,6-1.93q4.61,0,6.85,2.61t2.27,7.88V886h-1.43V867.24q0-4.61-1.88-6.82t-5.88-2.21a8.92,8.92,0,0,0-6.43,2.63,13.38,13.38,0,0,0-3.67,6.79V886h-1.43V845.28h1.43Z"/><path class="cls-34" d="M1408.64,886.51a11.54,11.54,0,0,1-6.37-1.87,12.81,12.81,0,0,1-4.55-5.13,15.85,15.85,0,0,1-1.64-7.23v-1.19a16.62,16.62,0,0,1,1.59-7.29,12.61,12.61,0,0,1,4.37-5.17,10.71,10.71,0,0,1,6.07-1.86,10,10,0,0,1,7.84,3.42,13,13,0,0,1,3,9v1.51h-21.49v1.56a14.41,14.41,0,0,0,1.47,6.47,11.58,11.58,0,0,0,4.05,4.67,10,10,0,0,0,5.61,1.69,11.44,11.44,0,0,0,4.92-1,10,10,0,0,0,3.59-3l1,.72Q1414.95,886.51,1408.64,886.51Zm-.53-28.3a9.37,9.37,0,0,0-7.1,3.11,13.27,13.27,0,0,0-3.42,7.94h20v-.34a12.11,12.11,0,0,0-1.23-5.42,9.51,9.51,0,0,0-3.39-3.9A8.74,8.74,0,0,0,1408.11,858.21Z"/><path class="cls-34" d="M1434.08,870l9.14-12.72h1.8l-10.07,14,10.6,14.71h-1.78l-9.73-13.46-9.7,13.46h-1.78l10.6-14.71-10.07-14h1.8Z"/><path class="cls-34" d="M1470.13,886a19.94,19.94,0,0,1-.53-5.25A11.51,11.51,0,0,1,1465,885a14.35,14.35,0,0,1-6.65,1.51,9.27,9.27,0,0,1-6.4-2.16,7.19,7.19,0,0,1-2.42-5.63,7.27,7.27,0,0,1,3.56-6.32q3.57-2.37,9.47-2.42h7.08v-4.19a7,7,0,0,0-2.27-5.59,9.52,9.52,0,0,0-6.48-2,10.43,10.43,0,0,0-6.55,2,6.07,6.07,0,0,0-2.62,5l-1.43-.05a7.34,7.34,0,0,1,3.07-5.94,11.74,11.74,0,0,1,7.53-2.44,11,11,0,0,1,7.37,2.32,8.32,8.32,0,0,1,2.81,6.53v13.7q0,4.72.74,6.41V886Zm-11.82-.9a12.88,12.88,0,0,0,6.93-1.8,11.16,11.16,0,0,0,4.36-5.06v-6.81H1463q-6.15,0-9.41,2.44a6,6,0,0,0-2.65,5,5.7,5.7,0,0,0,2.09,4.45A7.76,7.76,0,0,0,1458.31,885.08Z"/><path class="cls-34" d="M1502.17,871.91q0,6.71-2.89,10.65a9.24,9.24,0,0,1-7.87,3.95,12.39,12.39,0,0,1-5.8-1.33,9.93,9.93,0,0,1-4-3.66V897h-1.43v-39.7h1.43v5.11a10.52,10.52,0,0,1,4-4.19,11.2,11.2,0,0,1,5.72-1.46,9.36,9.36,0,0,1,7.92,3.86q2.89,3.86,2.89,10.83Zm-1.46-.56q0-6.17-2.45-9.66a7.93,7.93,0,0,0-6.88-3.48,10,10,0,0,0-6.12,1.87,10.35,10.35,0,0,0-3.63,5.37v13.41a9.09,9.09,0,0,0,3.64,4.6,11.15,11.15,0,0,0,6.16,1.63,7.86,7.86,0,0,0,6.84-3.5Q1500.71,878.09,1500.71,871.35Z"/></g></g></g></svg>