<?xml version="1.0" encoding="UTF-8" standalone="no"?><!DOCTYPE svg PUBLIC "-//W3C//DTD SVG 1.1//EN" "http://www.w3.org/Graphics/SVG/1.1/DTD/svg11.dtd"><svg width="100%" height="100%" viewBox="0 0 584 387" version="1.1" xmlns="http://www.w3.org/2000/svg" xmlns:xlink="http://www.w3.org/1999/xlink" xml:space="preserve" xmlns:serif="http://www.serif.com/" style="fill-rule:evenodd;clip-rule:evenodd;stroke-linejoin:round;stroke-miterlimit:2;"><path d="M555.63,384.654l-17.54,-0c-3.693,-0.731 -69.538,-0.965 -152.06,-0.965c-118.944,-0 -272.529,0.485 -324.53,0.662l-23.081,-0c-0.062,-0.095 -0.125,-0.192 -0.19,-0.307c-13.98,-24.73 -27.29,-50.4 -33.98,-78.54c-6.689,-28.15 -6.169,-59.35 6.541,-84.88c17.28,-34.68 53.81,-53.79 71.41,-88.27c3.599,-7.053 6.478,-14.372 9.229,-21.74l33.197,-0l14.157,17.841l0.572,-17.841l0.129,-0c8.161,-0 15.133,-5.887 16.5,-13.932l8.295,-48.789c1.737,-10.218 -6.136,-19.542 -16.5,-19.542l-1.867,-0c0.747,-0.586 1.5,-1.165 2.258,-1.736c22.475,-16.918 50.124,-26.615 77.748,-26.615c7.466,0 14.932,0.708 22.291,2.174c19.642,3.913 37.876,12.908 54.35,24.109c3.359,2.284 6.772,4.644 10.125,7.111l-3.542,20.83c-1.269,7.465 4.483,14.277 12.054,14.277l0.356,-0l-7.024,10.217l17.784,-10.217l59.035,-0c5.131,-0 9.618,-3.186 11.407,-7.82c6.237,0.102 12.311,1.054 18.081,3.641c12.496,5.603 26.808,19.479 34.536,32.862l-8.673,-0c-9.052,-0 -16.784,6.528 -18.301,15.452l-9.199,54.113c-1.927,11.333 6.806,21.675 18.301,21.675l0.539,-0l-4.147,22.183l20.484,-22.183l52.596,-0c0.853,0.681 1.704,1.362 2.549,2.04c20.11,16.12 39.48,34.03 53.62,56.51c14.13,22.48 22.68,50.15 19.28,77.19c-2.33,18.58 -14,49.35 -26.79,60.49Z" style="fill:#4f4f4f;fill-rule:nonzero;"/><path d="M379.01,218.819c-3.201,5.019 -11.559,10.872 -17.492,10.787c-20.201,-0.372 -26.845,-14.132 -29.027,-19.144c0.411,-0.101 1.101,-0.183 1.59,-0.243c3.725,-0.536 7.521,-4.217 8.635,-8.371c1.433,-5.398 3.189,-15.956 2.982,-22.67l25.548,14.141c-0.04,1.938 -0.168,4.059 -0.354,6.198c-0.132,1.302 -0.26,2.577 -0.411,3.82c-0.141,1.189 -0.3,2.318 -0.446,3.365c-0.47,3.502 1.094,6.973 4.043,8.901l4.932,3.216Z" style="fill:#f5baa9;fill-rule:nonzero;"/><path d="M381.213,163.819c-1.378,3.618 -0.795,7.727 0.604,11.337c0.991,2.553 3.19,0.3 5.928,0.345c4.235,0.071 7.547,-4.338 10.112,-16.031c1.627,-8.579 2.04,-12.933 1.715,-13.757c-1.169,-2.966 -5.025,-4.56 -8.207,-4.838" style="fill-rule:nonzero;"/><path d="M387.662,138.109c6.677,8.049 9.11,30.702 3.467,46.476c-4.012,11.217 -8.667,18.459 -14.114,18.226c-8.258,-0.352 -24.267,-7.135 -29.485,-12.811c-9.387,-10.213 -6.655,-30.226 -4.717,-42.834c1.762,-11.454 7.119,-26.317 21.511,-23.488c9.464,1.86 17.343,7.205 23.338,14.431Z" style="fill:#f5baa9;fill-rule:nonzero;"/><path d="M349.723,145.355c1.484,1.771 4.092,2.164 6.243,2.512c2.887,0.467 4.324,1.453 5.815,4.078c0.954,1.679 1.903,3.517 3.605,4.429c0.801,0.43 2.017,0.489 2.413,-0.329c-0.763,-0.506 -1.018,-1.552 -0.826,-2.446c0.191,-0.895 0.744,-1.665 1.323,-2.373c0.49,0.665 0.542,1.544 0.811,2.325c0.357,1.035 1.129,1.92 2.108,2.413c0.155,0.078 0.325,0.148 0.498,0.125c0.233,-0.033 0.407,-0.226 0.559,-0.407c1.054,-1.259 2.081,-3.663 3.543,-4.428c0.29,1.374 0.817,2.455 1.664,3.591c0.738,0.987 1.622,2.006 2.832,2.242c0.391,0.076 0.876,0.018 1.062,-0.334c0.225,-0.429 -0.127,-0.864 -0.073,-1.299c0.051,-0.411 0.244,-0.591 0.455,-0.938c0.538,-0.89 1.024,-1.752 1.728,-2.53c1.43,1.625 2.991,3.134 4.662,4.508c0.37,0.303 0.914,0.604 1.283,0.3c0.196,-0.161 0.249,-0.434 0.289,-0.685c0.206,-1.27 0.411,-2.54 0.616,-3.811c0.115,-0.713 0.534,-1.643 1.233,-1.461c0.339,0.088 0.544,0.421 0.728,0.719c0.234,0.382 4.335,4.713 4.423,4.378c0.638,-2.459 1.952,-4.701 2.59,-7.16c4.111,-15.842 -14.252,-28.575 -28.285,-28.642c-3.123,-0.015 -6.044,0.639 -9.069,1.31c-3.227,0.716 -6.567,1.248 -9.503,2.857c-4.105,2.251 -7.224,6.338 -6.422,11.22" style="fill-rule:nonzero;"/><path d="M356.484,141.161c2.035,2.309 2.58,5.556 2.768,8.628c0.282,4.626 -0.097,9.438 -2.239,13.548c-0.61,1.169 -1.057,6.96 -1.998,6.64c-0.299,-0.101 -0.249,-4.587 -1.037,-7.008c-1.218,-3.751 -6.842,-5.176 -9.37,-2.812c-4.037,3.775 -1.668,8.354 -0.334,11.202c0.805,1.718 2.073,3.651 2.287,5.473c0.275,2.332 0.351,10.816 -1.169,12.805c-1.27,1.661 -2.623,-6.363 -3.766,-7.944c-8.511,-11.77 -16.674,-41.744 -2.137,-48.236c2.209,-0.986 9.035,-1.501 11.101,-0.242" style="fill-rule:nonzero;"/><path d="M410.276,379.403c0.845,0.143 1.695,0.259 2.566,0.287c4.677,0.153 9.196,-0.878 13.772,-1.664c4.023,-0.693 5.113,-1.074 5.026,-5.924c-0.697,-38.412 -6.35,-76.715 -16.508,-113.767c-1.552,-5.659 -3.237,-11.356 -6.207,-16.416c-5.066,-8.627 -16.714,-16.083 -25.638,-20.264c-1.262,-0.592 -6.483,2.728 -7.753,2.155c-1.114,-0.505 -2.093,-1.277 -3.214,-1.768c-3.277,-1.434 -5.475,1.564 -8.219,2.809c-1.416,0.642 -3,1.047 -4.563,0.98c-1.27,-0.053 -2.42,-0.818 -3.584,-0.216c-5.221,2.697 -18.185,-17.345 -18.185,-17.345l-5.611,5.866l-16.426,17.208l-41.063,56.569c-0,-0 -7.45,46.363 -12.573,76.75c-0.886,5.244 -4.412,16.567 -5.109,20.542c0.15,-0.855 35.046,-1.094 36.933,-1.094l71.129,-0c3.989,-0 14.719,1.694 17.521,-1.238c3.447,-3.604 7.443,-20.122 7.648,-24.751c0.688,-15.569 -0.377,-31.019 -0.586,-46.685c0.085,6.368 1.917,12.131 2.698,18.371c1.006,8.029 2.45,16.054 3.746,24.043c1.042,6.424 2.04,12.856 2.839,19.315c0.36,2.907 -0.104,4.638 2.359,5.776c2.072,0.956 6.585,0.049 9.002,0.461Z" style="fill:#d18645;fill-rule:nonzero;"/><path d="M397.1,366.101c-1.903,-0.784 -13.631,-3.693 -18.92,-4.788c-2.775,-0.574 -15.329,-3.83 -18.238,-3.83c-2.91,-0 -6.869,4.159 -6.869,4.159l1.049,14.308c2.798,-0.281 6.548,1.174 8.562,1.455c2.015,0.279 8.842,0.314 13.039,-1.791c0.24,-0.12 0.456,-0.255 0.683,-0.383c1.691,1.496 3.813,2.959 6.155,3.075c-0,-0 1.836,-0.184 1.662,-0.928c-0.085,-0.361 -1.297,-2.221 -2.52,-4.037c1.796,1.831 4.738,4.797 8.129,4.965c-0,-0 1.836,-0.184 1.661,-0.928c-0.103,-0.437 -1.856,-3.07 -3.282,-5.163l0.062,0.049c1.487,1.312 5.027,5.834 9.223,6.042c-0,-0 1.836,-0.184 1.66,-0.928c-0.063,-0.269 -0.756,-1.376 -1.61,-2.673c1.071,0.816 2.384,1.69 3.973,2.475c4.533,2.238 7.108,0.539 7.108,-0c-0,-0.538 -9.625,-10.296 -11.527,-11.079Z" style="fill:#f5baa9;fill-rule:nonzero;"/><path d="M356.309,349.484c-0,-0 7.304,4.14 6.655,12.939c-0.65,8.8 -3.293,19.004 -14.315,17.935c-11.021,-1.07 7.66,-30.874 7.66,-30.874Z" style="fill:#994b28;fill-rule:nonzero;"/><path d="M346.275,379.484c-26.417,9.171 -61.77,0.411 -84.179,-14.821c-14.039,-9.524 -22.995,-21.608 -21.49,-33.418c3.912,-30.68 28.021,-100.997 48.885,-111.262c14.177,-6.981 31.384,-9.874 40.966,-11.028c4.497,-0.548 7.312,-0.685 7.312,-0.685l-3.48,9.816l-17.422,49.119c-0.645,29.156 -21.51,46.46 -17.364,53.246c4.145,6.765 36.918,14.079 54.125,25.674c4.771,3.226 10.813,26.515 -7.353,33.359Z" style="fill:#d18645;fill-rule:nonzero;"/><path d="M240.609,331.999l-0.055,2.046c0.003,0.34 -0.045,0.68 -0.001,1.018l0.117,1.014c0.098,0.67 0.096,1.356 0.269,2.013l0.485,1.973c0.804,2.58 1.914,5.071 3.427,7.313c2.903,4.562 6.745,8.478 10.98,11.839c8.49,6.739 18.266,11.777 28.465,15.443c10.179,3.747 20.854,6.217 31.677,7.115c5.407,0.465 10.857,0.518 16.272,0.056c5.419,-0.417 10.802,-1.414 16.019,-3.036c-5.111,1.946 -10.508,3.1 -15.945,3.767c-5.449,0.617 -10.955,0.693 -16.432,0.364c-5.482,-0.311 -10.928,-1.135 -16.289,-2.305c-5.363,-1.173 -10.65,-2.691 -15.817,-4.554c-5.148,-1.907 -10.185,-4.136 -15.006,-6.776c-4.811,-2.647 -9.466,-5.629 -13.673,-9.185c-4.215,-3.525 -8.04,-7.606 -10.875,-12.346c-1.446,-2.347 -2.479,-4.941 -3.185,-7.593c-0.7,-2.673 -0.754,-5.46 -0.433,-8.166Z" style="fill:#994b28;fill-rule:nonzero;"/><path d="M316.87,267.211c0.021,5.529 -0.75,11.069 -2.186,16.433c-1.453,5.363 -3.567,10.534 -6.031,15.505c-1.225,2.49 -2.541,4.931 -3.889,7.344c-1.334,2.417 -2.702,4.817 -3.821,7.284c-0.55,1.23 -1.027,2.497 -1.219,3.746c-0.053,0.613 -0.103,1.238 0.073,1.772c0.038,0.288 0.21,0.511 0.309,0.769c0.191,0.229 0.322,0.481 0.558,0.697c1.785,1.79 4.348,3.004 6.784,4.167c9.981,4.545 20.577,7.915 30.683,12.461c5.05,2.272 10.052,4.719 14.697,7.781l0.863,0.584c0.287,0.2 0.561,0.461 0.838,0.69c0.516,0.505 0.972,1.067 1.333,1.678c0.741,1.211 1.242,2.532 1.628,3.87c0.736,2.689 1.05,5.463 1.073,8.225c-0.184,-2.754 -0.635,-5.496 -1.453,-8.11c-0.856,-2.587 -2.186,-5.106 -4.68,-6.319c-4.667,-2.899 -9.682,-5.21 -14.757,-7.339c-5.092,-2.102 -10.237,-4.087 -15.412,-6.017c-5.167,-1.957 -10.37,-3.832 -15.447,-6.145c-2.499,-1.24 -5.067,-2.407 -7.203,-4.556c-0.271,-0.257 -0.486,-0.617 -0.72,-0.929c-0.17,-0.376 -0.396,-0.74 -0.461,-1.144c-0.236,-0.798 -0.165,-1.586 -0.088,-2.337c0.243,-1.485 0.777,-2.822 1.358,-4.104c1.187,-2.556 2.58,-4.95 3.934,-7.357c1.351,-2.408 2.715,-4.799 3.996,-7.233c5.145,-9.689 8.721,-20.339 9.24,-31.416Z" style="fill:#994b28;fill-rule:nonzero;"/><path d="M385.339,222.612c-2.523,2.503 -13.74,10.492 -24.437,10.492c-1.779,-0 -3.657,-0.157 -5.651,-0.528c-8.976,-1.643 -16.542,-7.626 -20.962,-14.49c-0.821,-1.291 -1.545,-2.62 -2.131,-3.95c-0.802,-1.721 -1.369,-3.48 -1.701,-5.181c4.497,-0.548 8.799,-1.682 9.503,-2.484c0.763,5.241 7.235,14.704 17.031,16.484c1.233,0.235 2.386,0.333 3.5,0.352l0.02,-0c4.595,0.078 8.134,-1.389 10.54,-2.874l4.713,-3.703l9.575,5.882Z" style="fill:#d18645;fill-rule:nonzero;"/><path d="M383.458,187.562c-0.023,0.755 -3.182,5.352 -6.254,4.987c-2.575,-0.306 -4.834,-5.137 -3.478,-7.337c0.727,-0.768 9.754,1.595 9.732,2.35Z" style="fill:#fff;fill-rule:nonzero;"/><path d="M359.652,196.183c2.816,3.307 7.639,5.534 11.971,5.656c0.432,0.012 0.544,-0.687 0.103,-0.769c-4.584,-0.851 -7.978,-2.425 -11.645,-5.316c-0.304,-0.24 -0.687,0.126 -0.429,0.429Z" style="fill:#e96140;fill-rule:nonzero;"/><path d="M389.905,337.272c0.276,-5.149 -0.236,-10.359 -0.272,-15.519c-0.038,-5.343 0.122,-10.681 0.406,-16.017c0.274,-5.173 0.692,-10.336 1.284,-15.484c0.61,-5.3 1.718,-10.55 2.279,-15.848c0.076,-0.71 -1.06,-0.839 -1.232,-0.166c-1.244,4.875 -1.725,10.056 -2.313,15.05c-0.644,5.463 -1.116,10.952 -1.379,16.448c-0.256,5.332 -0.288,10.68 -0.168,16.017c0.116,5.157 0.119,10.488 1.176,15.548c0.028,0.128 0.213,0.091 0.219,-0.029Z" style="fill:#994b28;fill-rule:nonzero;"/><path d="M337.348,216.245c1.689,6.93 9.447,12.807 16.271,13.83c0.576,0.087 0.829,-0.708 0.246,-0.893c-3.52,-1.115 -6.844,-2.571 -9.684,-4.978c-2.747,-2.328 -4.426,-5.196 -6.362,-8.158c-0.158,-0.243 -0.542,-0.091 -0.471,0.199Z" style="fill:#994b28;fill-rule:nonzero;"/><path d="M360.074,230.109c1.191,-0.269 2.369,-0.55 3.543,-0.883c1.048,-0.297 2.149,-0.501 3.064,-1.113c0.272,-0.182 0.172,-0.614 -0.169,-0.622c-2.155,-0.056 -4.649,1.128 -6.653,1.839c-0.487,0.172 -0.298,0.895 0.215,0.779Z" style="fill:#994b28;fill-rule:nonzero;"/><path d="M348.482,165.176c0.66,-1.013 1.676,2.129 1.718,2.392c0.192,1.22 -0.059,2.311 -0.372,3.478c-0.117,0.439 1.238,0.093 1.399,-0.218c0.881,-1.703 0.947,-4.665 -0.584,-6.062c-0.957,-0.873 -2.816,-0.633 -3.515,0.461c-0.311,0.487 1.135,0.286 1.354,-0.051Z" style="fill:#e96140;fill-rule:nonzero;"/><path d="M350.639,167.58c-0.009,-0.131 0.004,-0.261 0.039,-0.39l-0.027,-0.098c-0.544,-0.663 -1.386,-0.971 -2.206,-0.658l-0.149,0.175c0.195,0.208 0.578,0.2 0.829,0.325c0.208,0.102 0.364,0.243 0.535,0.394c0.181,0.16 0.396,0.226 0.584,0.38c0.082,0.067 0.395,-0.003 0.395,-0.128Z" style="fill:#e96140;fill-rule:nonzero;"/><path d="M390.077,177.255c0.074,0 0.257,-0.113 0.099,-0.113c-0.075,-0 -0.257,0.113 -0.099,0.113Z" style="fill:#e96140;fill-rule:nonzero;"/><path d="M390.196,297.285c0.284,-4.247 2.227,-7.569 4.831,-10.857c2.02,-2.55 4.54,-4.2 6.857,-6.397c0.252,-0.24 -0.007,-0.693 -0.342,-0.588c-3.379,1.055 -6.116,4.492 -8.139,7.234c-2.12,2.873 -5.06,6.923 -3.76,10.683c0.105,0.303 0.532,0.246 0.553,-0.075Z" style="fill:#994b28;fill-rule:nonzero;"/><path d="M389.691,299.81c1.072,-1.305 1.749,-2.901 2.691,-4.305c1.114,-1.663 2.411,-3.208 3.841,-4.608c0.277,-0.272 2.927,-2.979 3.185,-0.807c0.162,1.374 -2.582,1.89 -3.389,2.38c-0.907,0.551 -1.518,0.984 -1.521,2.1c-0.001,0.362 0.537,0.539 0.71,0.192c1.078,-2.168 4.968,-2.095 5.378,-5.001c0.165,-1.167 -0.775,-1.912 -1.913,-1.793c-2.048,0.216 -4.183,3.202 -5.329,4.633c-1.605,2.001 -3.495,4.487 -3.878,7.078c-0.017,0.116 0.129,0.248 0.225,0.131Z" style="fill:#994b28;fill-rule:nonzero;"/><path d="M349.995,352.543c0.008,3.459 -0.053,6.806 -1.266,10.099c-1.206,3.277 -3.395,5.778 -5.423,8.55c-0.155,0.21 0.136,0.447 0.336,0.337c5.921,-3.28 8.917,-12.785 6.894,-19.059c-0.094,-0.289 -0.542,-0.247 -0.541,0.073Z" style="fill:#994b28;fill-rule:nonzero;"/><path d="M376.363,320.718c-0.848,5.333 -1.834,10.185 -4.588,14.928c-2.735,4.713 -6.639,8.805 -11.215,11.763c-0.365,0.237 -0.039,0.805 0.344,0.588c9.166,-5.225 16.886,-16.216 16.254,-27.171c-0.024,-0.427 -0.719,-0.583 -0.795,-0.108Z" style="fill:#994b28;fill-rule:nonzero;"/><path d="M406.395,185.042c1.153,-0.471 2.632,-0.919 3.363,-1.989c0.112,-0.165 -0.038,-0.375 -0.218,-0.38c-1.257,-0.035 -2.481,0.886 -3.502,1.523c-0.423,0.263 -0.148,1.053 0.357,0.846Z" style="fill:#994b28;fill-rule:nonzero;"/><path d="M406.559,188.032c0.695,0.478 1.832,0.918 2.627,0.43c0.231,-0.142 0.241,-0.489 -0,-0.628c-0.327,-0.189 -0.72,-0.237 -1.084,-0.326c-0.396,-0.096 -0.787,-0.221 -1.164,-0.376c-0.545,-0.224 -0.809,0.604 -0.379,0.9Z" style="fill:#994b28;fill-rule:nonzero;"/><path d="M405.5,193.712c0.678,0.404 1.581,1.051 2.409,0.995c0.2,-0.013 0.354,-0.226 0.238,-0.414c-0.437,-0.711 -1.453,-1.062 -2.179,-1.381c-0.533,-0.234 -0.993,0.487 -0.468,0.8Z" style="fill:#994b28;fill-rule:nonzero;"/><path d="M46.33,385.748l524.17,-0c0.604,-0 1.094,-0.49 1.094,-1.094c-0,-0.605 -0.49,-1.095 -1.094,-1.095l-524.17,-0c-0.605,-0 -1.095,0.49 -1.095,1.095c-0,0.604 0.49,1.094 1.095,1.094Z" style="fill:#030404;fill-rule:nonzero;"/><path d="M39.704,383.563l-29.374,-0c-0.605,-0 -1.095,0.49 -1.095,1.095c-0,0.604 0.49,1.094 1.095,1.094l29.374,-0c0.604,-0 1.094,-0.49 1.094,-1.094c-0,-0.605 -0.49,-1.095 -1.094,-1.095Z" style="fill:#030404;fill-rule:nonzero;"/><path d="M579.663,383.563l-4.924,-0c-0.604,-0 -1.094,0.49 -1.094,1.095c-0,0.604 0.49,1.094 1.094,1.094l4.924,-0c0.604,-0 1.094,-0.49 1.094,-1.094c-0,-0.605 -0.49,-1.095 -1.094,-1.095Z" style="fill:#030404;fill-rule:nonzero;"/><path d="M511.584,378.612l-165.996,-0c-1.605,-0 -2.909,1.304 -2.909,2.908l-0,0.212c-0,1.604 1.304,2.909 2.909,2.909l165.996,-0c1.604,-0 2.909,-1.305 2.909,-2.909l-0,-0.212c-0,-1.604 -1.305,-2.908 -2.909,-2.908Z" style="fill:#121214;fill-rule:nonzero;"/><path d="M543.994,304.663c-34.54,-0.349 -69.08,-0.698 -103.62,-1.047c-4.905,-0.05 -9.811,-0.099 -14.715,-0.149c-0.762,-0.008 -1.745,0.444 -2.065,1.185c-9.492,21.912 -18.982,43.823 -28.472,65.735c-1.354,3.127 -2.709,6.254 -4.063,9.381c-0.045,0.104 -0.069,0.207 -0.1,0.31l-0.001,0.005c-0.03,0.102 -0.06,0.203 -0.076,0.302c-0.272,1.268 0.373,2.758 1.933,2.949c0.363,0.106 0.735,0.129 1.085,0.039c35.501,0.278 71.002,0.555 106.503,0.832c5.068,0.041 10.136,0.08 15.203,0.12c1.133,0.008 1.931,-0.765 2.307,-1.757c9.463,-24.959 18.926,-49.918 28.389,-74.877c0.565,-1.491 -0.876,-3.014 -2.308,-3.028Z" style="fill:#121214;fill-rule:nonzero;"/><path d="M543.994,303.022c-31.883,-0.322 -63.768,-0.645 -95.649,-0.967c-3.884,-0.04 -7.767,-0.079 -11.65,-0.118c-3.512,-0.035 -7.572,-0.65 -11.036,-0.111c-5.146,0.8 -6.468,8.889 -8.228,12.953c-6.328,14.608 -12.654,29.216 -18.981,43.823c-2.711,6.258 -5.428,12.513 -8.131,18.773c-1.02,2.363 -2.014,5.221 0.669,7.013c1.356,0.905 3.413,0.622 4.885,0.643c3.944,0.053 7.89,0.061 11.834,0.091c7.889,0.062 15.777,0.125 23.667,0.186c15.778,0.123 31.556,0.246 47.334,0.369c7.864,0.062 15.73,0.123 23.596,0.185c3.167,0.024 6.335,0.05 9.502,0.074c2.444,0.019 4.864,0.487 6.754,-1.309c2.048,-1.946 2.741,-6.381 3.706,-8.927c1.384,-3.653 2.769,-7.306 4.154,-10.958c3.231,-8.523 6.463,-17.045 9.693,-25.568c3.001,-7.914 6.001,-15.828 9.001,-23.741c1.503,-3.963 5.685,-10.709 -0.683,-12.353c-2.047,-0.528 -2.92,2.637 -0.872,3.166c2.094,0.541 -5.051,17.39 -5.764,19.272c-2.309,6.087 -4.616,12.175 -6.924,18.262c-2.309,6.088 -4.616,12.175 -6.924,18.262c-1.039,2.741 -2.077,5.48 -3.116,8.219c-1.132,2.986 -1.949,7.407 -3.808,10.044c-2.394,3.398 -7.38,2.331 -10.919,2.304c-3.214,-0.026 -6.43,-0.051 -9.645,-0.075c-6.574,-0.052 -13.15,-0.104 -19.723,-0.155c-13.148,-0.102 -26.297,-0.205 -39.445,-0.308c-13.148,-0.103 -26.297,-0.205 -39.445,-0.308c-1.361,-0.011 -3.663,0.572 -4.625,-0.637c-1.226,-1.542 -0.535,0.684 -0.068,-2.093c0.389,-2.312 2.117,-4.887 3.048,-7.036c2.749,-6.347 5.498,-12.695 8.247,-19.042c5.273,-12.172 10.545,-24.346 15.818,-36.519c1.169,-2.701 2.113,-6.934 3.954,-9.13c2.461,-2.936 6.358,-2.147 9.715,-2.114c6.796,0.069 13.592,0.138 20.387,0.206c29.891,0.303 59.781,0.604 89.672,0.906c2.113,0.022 2.115,-3.261 -0,-3.282Z" style="fill:#121214;fill-rule:nonzero;"/><path d="M472.472,346.358c-0,3.223 -3.585,5.836 -8.008,5.836c-4.422,-0 -8.007,-2.613 -8.007,-5.836c-0,-3.224 3.585,-5.836 8.007,-5.836c4.423,-0 8.008,2.612 8.008,5.836Z" style="fill:#bf8129;fill-rule:nonzero;"/><path d="M484.035,346.951c-0,1.681 -1.87,3.045 -4.177,3.045c-2.307,-0 -4.177,-1.364 -4.177,-3.045c-0,-1.682 1.87,-3.045 4.177,-3.045c2.307,-0 4.177,1.363 4.177,3.045Z" style="fill:#bf8129;fill-rule:nonzero;"/><path d="M284.092,363.298c5.111,-0.613 14.159,-1.985 14.387,-5.131c-3.306,-2.137 -6.954,-4.298 -10.886,-4.491c-3.138,-0.153 -6.182,1.003 -9.052,2.279c-2.441,1.085 -4.838,2.271 -7.182,3.554c-0.963,0.527 -3.48,2.407 -3.52,3.719c-0.05,1.629 2.943,0.666 4.129,0.75c4.051,0.288 8.108,-0.198 12.124,-0.68Z" style="fill:#caaea5;fill-rule:nonzero;"/><path d="M272.018,360.632c-0,-0 6.796,22.252 10.394,22.785c3.597,0.534 38.774,0.8 39.707,0.4c0.933,-0.4 1.066,-1.066 1.066,-1.066c-0,-0 22.386,1.466 22.786,0.933c0.399,-0.533 -0,-3.198 -1.067,-3.598c-1.065,-0.4 -34.91,-7.995 -37.842,-9.061c-2.931,-1.066 -12.126,-0.799 -12.126,-0.799l-1.865,-12.926l-21.053,3.332Z" style="fill:#f5baa9;fill-rule:nonzero;"/><path d="M280.228,81.427c2.205,2.361 3.4,5.634 3.237,8.86c-0.097,1.923 -0.652,3.791 -1.23,5.628c-1.113,3.536 -2.432,7.2 -5.182,9.686c-0.446,0.402 -1.006,0.791 -1.598,0.685c-1.103,-3.396 -2.205,-6.793 -3.308,-10.189c-0.53,-1.633 -1.062,-3.271 -1.36,-4.961c-0.505,-2.857 -0.323,-5.848 0.644,-8.583c0.438,-1.242 1.069,-2.471 2.117,-3.268c2.556,-1.946 4.944,0.283 6.68,2.142Z" style="fill-rule:nonzero;"/><path d="M143.641,384.658l2.276,-76.874l16.71,76.874l47.919,-0c-3.185,-25.574 -17.312,-132.464 -32.074,-141.525l-57.997,-36.111c-0,-0 -33.562,8.754 -32.829,57.265c2.681,46.725 8.393,101.713 10.407,120.371l45.588,-0Z" style="fill:#121214;fill-rule:nonzero;"/><path d="M298.351,358.245c-1.245,1.885 -7.578,0.468 -9.451,0.65c-1.675,0.163 -3.263,0.797 -4.891,1.222c-5.184,1.352 -10.974,0.642 -15.635,3.284c-0.145,0.082 -0.31,0.17 -0.469,0.121c-0.177,-0.054 -0.262,-0.247 -0.325,-0.421c-2.976,-8.243 -5.302,-16.844 -7.908,-25.244c-3.917,-12.623 -7.833,-25.246 -11.75,-37.869c-2.023,-6.521 -4.046,-13.041 -6.069,-19.561l-14.225,-65.93l6.325,-46.476l1.499,-10.964l0.109,-0.832c-0,-0 0.307,0.109 0.875,0.306c1.981,0.701 7.07,2.605 12.706,5.351c9.027,4.41 19.467,11.02 20.889,18.505l0.011,0.078c0.753,5.246 1.597,10.48 2.421,15.715c1.462,9.287 2.943,18.571 4.428,27.855c1.847,11.55 3.702,23.1 5.561,34.65c1.937,12.035 3.878,24.069 5.822,36.103c1.734,10.739 3.471,21.476 5.209,32.213c1.241,7.661 2.481,15.321 3.723,22.98c0.344,2.119 0.687,4.238 1.031,6.357c0.061,0.373 0.378,1.241 0.26,1.604c-0.035,0.109 -0.084,0.21 -0.146,0.303Z" style="fill:#f7dacf;fill-rule:nonzero;"/><path d="M235.561,156.225l-0.109,0.832l-1.499,10.964l-6.325,46.476l-30.958,19.073c-1.617,0.996 -3.009,7.843 -3.667,9.558c-2.137,5.572 -4.003,11.359 -6.445,16.803c-0.501,1.116 -0.951,4.154 -2.061,4.833c-2.231,1.365 -11.306,-0.507 -14.108,-0.687c-10.375,-0.667 -20.861,-2.19 -30.35,-6.663c-7.501,-3.535 -14.146,-8.537 -21.207,-12.829c-4.315,-2.623 -9.126,-4.26 -13.693,-6.369c-3.051,-1.408 -9.642,-4.108 -10.817,-7.696c-0.341,-1.036 0.185,-2.136 0.685,-3.105c2.18,-4.222 3.63,-9.31 6.205,-13.23c2.374,-3.615 5.298,-6.875 7.614,-10.579c4.658,-7.451 8.771,-15.321 14.59,-21.97c9.905,-11.317 18.228,-24.248 28.432,-35.533c4.53,-5.012 18.647,-9.783 25.399,-10.057c6.139,-0.252 12.091,0.755 17.3,2.211c4.191,1.181 7.912,2.648 10.845,3.972c4.3,1.948 6.916,3.6 6.916,3.6l23.253,10.396Z" style="fill:#f7dacf;fill-rule:nonzero;"/><path d="M247.002,218.052c3.26,-2.005 18.492,-11.726 19.856,-15.24c0.633,-1.63 4.09,-6.65 7.075,-11.359c1.766,-2.788 6.241,-8.257 7.371,-9.428c1.937,-2.009 4.735,-6.986 6.423,-5.348c2.105,2.04 -1.181,7.143 -3.034,10.272c-0.679,1.149 -1.41,2.302 -1.704,3.603c-0.294,1.302 -0.228,2.273 0.535,3.368c0.416,0.596 3.264,0.88 4.218,0.839c7.193,-0.316 10.315,0.106 15.681,-1.891c5.367,-1.998 10.379,-4.82 15.44,-7.496c0.868,-0.46 1.394,-1.401 3.352,-1.582c0.977,-0.09 3.045,0.043 2.934,1.018c-0.086,0.759 -6.13,5.48 -6.753,5.922c-3.349,2.38 -2.972,2.113 -6.323,4.493c-0.52,0.37 -1.081,0.799 -1.209,1.424c-0.107,0.525 0.121,1.058 0.132,1.593c0.019,0.958 -0.645,1.781 -1.298,2.484c-1.145,1.232 -2.364,2.384 -3.638,3.474c-1.781,1.525 -0.327,2.827 -2.266,4.166c-2.139,1.476 -7.685,2.976 -9.876,4.364c-1.753,1.11 -3.519,2.227 -5.445,2.998c-2.308,0.923 -4.783,1.325 -7.218,1.828c-6.673,1.376 -18.349,13.466 -23.994,17.46" style="fill:#f5baa9;fill-rule:nonzero;"/><path d="M285.313,216.67c-0,-0 8.386,-1.06 15.058,-4.163c6.673,-3.101 23.16,-13.276 23.16,-13.276c-0,-0 0.229,-0.579 0.054,-0.982c-0.175,-0.403 -2.68,-0.961 -4.698,-0.086c-2.018,0.876 -14.937,6.485 -14.937,6.485" style="fill:#f5baa9;fill-rule:nonzero;"/><path d="M283.65,213.855c-0,-0 10.625,-2.216 17.298,-5.318c6.672,-3.103 23.159,-13.277 23.159,-13.277c-0,-0 0.229,-0.578 0.054,-0.982c-0.176,-0.404 -2.68,-0.962 -4.698,-0.086c-2.019,0.877 -14.937,6.485 -14.937,6.485" style="fill:#f5baa9;fill-rule:nonzero;"/><path d="M287.007,207.744c-0,-0 10.626,-2.217 17.299,-5.32c6.671,-3.102 17.032,-8.404 22.901,-12.409c0.388,-0.264 0.486,-1.445 0.311,-1.849c-0.174,-0.403 -2.679,-0.961 -4.697,-0.085c-2.018,0.876 -14.936,6.485 -14.936,6.485" style="fill:#f5baa9;fill-rule:nonzero;"/><path d="M247.595,144.097c-0,-0 25.715,15.684 31.734,-16.05c1.459,-13.132 3.283,-34.47 -7.66,-42.814c-10.943,-8.344 -36.111,-9.301 -36.658,15.457c0.957,7.113 0.683,7.66 0.683,7.66c-0,-0 -9.438,-2.599 -7.386,9.165c1.094,5.334 2.508,7.249 2.508,7.249l-19.333,15.138c-1.777,1.391 -3.266,3.71 -5.729,2.592c-0.27,-0.122 -0.53,-0.276 -0.822,-0.325c-0.292,-0.049 -0.633,0.04 -0.775,0.3c-0.09,0.164 -0.083,0.362 -0.089,0.549c-0.026,0.945 -0.397,1.841 -0.651,2.751c-0.973,3.494 0.037,6.764 1.875,9.776c1.564,2.562 3.776,4.736 6.4,6.202c2.51,1.401 5.328,2.163 8.157,2.674c3.556,0.644 7.333,0.892 10.854,-0.087c2.158,-0.6 3.627,-1.272 5.135,-3.023c0.282,-0.328 0.549,-0.673 0.74,-1.061c0.432,-0.877 0.447,-1.893 0.439,-2.871c-0.001,-0.135 -0.008,-0.284 -0.097,-0.386c-0.094,-0.106 -0.248,-0.128 -0.388,-0.152c-1.569,-0.265 -0.535,-1.086 0.123,-1.772c0.651,-0.68 1.307,-1.355 1.967,-2.028c1.382,-1.411 2.777,-2.812 4.177,-4.207c1.592,-1.587 3.189,-3.167 4.796,-4.737Z" style="fill:#f5baa9;fill-rule:nonzero;"/><path d="M280.287,111.051c-0.591,1.903 0.003,4.071 0.774,5.908c0.772,1.836 1.957,3.463 3.131,5.072c0.529,0.724 1.057,1.448 1.586,2.172c-1.655,0.55 -3.267,1.229 -4.816,2.029c-0.931,0.481 -1.934,1.134 -2.119,2.165" style="fill:#f5baa9;fill-rule:nonzero;"/><path d="M268.448,130.317c1.107,0.379 2.3,0.51 3.462,0.366c0.116,-0.015 0.252,-0.024 0.33,0.063l0.066,0.211c0.076,1.147 -0.416,2.247 -0.897,3.29c-0.323,0.702 -0.653,1.414 -1.161,1.996c-1.065,1.22 -3.459,1.994 -4.98,1.25c-0.683,-0.334 -1.186,-0.953 -1.578,-1.605c-1.067,-1.772 -1.818,-4.77 -0.913,-6.769c0.606,-1.336 0.763,-0.842 1.939,-0.302c1.087,0.499 2.218,0.897 3.32,1.346c0.136,0.055 0.273,0.106 0.412,0.154Z" style="fill:#fffcfc;fill-rule:nonzero;"/><path d="M248.507,212.49c-18.761,8.712 -47.967,24.439 -47.967,24.439l-4.194,-30.275l-44.137,0.364c-0,-0 12.767,70.399 22.616,76.965c-0,-0 11.672,8.755 30.64,-4.377c12.516,-8.665 41.64,-31.453 55.945,-43.908l-12.903,-23.208Z" style="fill:#f7dacf;fill-rule:nonzero;"/><path d="M165.586,263.517c-0.285,-4.839 -2.579,-10.088 -3.81,-14.765c-1.75,-6.642 -3.503,-13.283 -5.137,-19.955c-2.953,-12.054 -5.471,-24.18 -8.105,-36.303c-0.077,-0.353 -0.668,-0.282 -0.638,0.086c0.98,12.085 4.174,24.18 7.082,35.913c1.604,6.47 3.252,12.935 5.064,19.35c1.399,4.954 2.39,11.369 5.066,15.804c0.126,0.208 0.494,0.133 0.478,-0.13Z" style="fill:#e3c5be;fill-rule:nonzero;"/><path d="M260.344,234.107c-9.164,6.045 -17.328,13.972 -24.84,21.923c-0.657,0.696 0.391,1.748 1.052,1.051c7.641,-8.054 16.082,-14.861 24.565,-21.967c0.556,-0.466 -0.171,-1.407 -0.777,-1.007Z" style="fill:#e3c5be;fill-rule:nonzero;"/><path d="M229.718,222.217c3.026,-0.456 6.066,-2.008 8.799,-3.349c2.382,-1.17 5.519,-2.28 7.089,-4.489c0.281,-0.394 -0.182,-0.785 -0.56,-0.727c-2.591,0.39 -5.096,2.497 -7.435,3.666c-2.714,1.357 -5.724,2.355 -8.282,3.976c-0.51,0.324 -0.159,1.005 0.389,0.923Z" style="fill:#e3c5be;fill-rule:nonzero;"/><path d="M227.407,113.532c-2.834,0.384 -4.987,1.062 -7.049,-1.537c-0.826,-1.041 -1.491,-2.133 -2.777,-2.617c-0.165,-0.062 -0.295,0.18 -0.17,0.293c1.601,1.462 2.752,3.973 4.859,4.778c1.668,0.637 3.732,0.178 5.276,-0.589c0.199,-0.099 0.045,-0.353 -0.139,-0.328Z" style="fill:#5e4b49;fill-rule:nonzero;"/><path d="M275.59,114.642l-1.094,-0c-0,2.268 -0.918,4.316 -2.404,5.803c-1.487,1.486 -3.535,2.404 -5.803,2.404c-2.268,-0 -4.317,-0.918 -5.803,-2.404c-1.487,-1.487 -2.404,-3.535 -2.404,-5.803c-0,-2.268 0.917,-4.316 2.404,-5.803c1.486,-1.486 3.535,-2.404 5.803,-2.404c2.268,-0 4.316,0.918 5.803,2.404c1.486,1.487 2.404,3.535 2.404,5.803l1.094,-0c-0,-5.137 -4.164,-9.301 -9.301,-9.302c-5.137,0.001 -9.301,4.165 -9.302,9.302c0.001,5.137 4.165,9.301 9.302,9.302c5.137,-0.001 9.301,-4.165 9.301,-9.302Z" style="fill:#fafbfc;fill-rule:nonzero;"/><path d="M275.31,112.344c0.323,-0.188 0.461,-0.489 0.746,-0.73c0.417,-0.354 0.966,-0.553 1.499,-0.65c0.494,-0.091 1.017,-0.093 1.489,0.092c0.442,0.173 0.546,0.586 0.948,0.763c0.112,0.049 0.214,0.025 0.287,-0.075l0.095,-0.132c0.086,-0.117 0.057,-0.275 -0,-0.394c-0.513,-1.099 -1.975,-1.195 -3.018,-0.974c-0.888,0.188 -2.486,0.868 -2.322,1.987c0.018,0.123 0.182,0.168 0.276,0.113Z" style="fill:#fafbfc;fill-rule:nonzero;"/><path d="M227.286,98.955c4.47,3.22 32.423,-0.729 41.445,-4.865c18.341,-8.406 20.138,-23.22 15.852,-26.002c-0.517,-0.336 -1.091,-0.604 -1.703,-0.678c-1.438,-0.174 -2.764,0.719 -3.935,1.569c0.461,-1.675 2.127,-8.974 -2.324,-11.869c-5.977,-3.886 -13.502,2.686 -14.727,3.505c-8.528,5.707 -13.135,6.682 -13.135,6.682c-0,-0 1.503,-14.39 -10.283,-3.335c-3.711,3.482 -10.601,6.729 -14.299,10.226c-3.877,3.665 -6.086,9.66 -3.848,14.78" style="fill-rule:nonzero;"/><path d="M240.389,90.235c2.555,2.081 3.701,5.414 4.439,8.626c1.11,4.836 1.555,9.985 0.014,14.701c-0.438,1.342 0.107,7.536 -0.944,7.364c-0.332,-0.054 -1.068,-4.802 -2.325,-7.22c-1.946,-3.747 -8.135,-4.264 -10.389,-1.323c-2.793,3.642 -0.998,6.207 0.243,9.839c0.921,2.697 0.012,6.089 -3.289,7.024c-3.075,0.871 -2.192,-1.458 -3.418,-3.642c-2.636,-4.695 -5.4,-8.804 -7.172,-14.036c-2.793,-8.249 -5.093,-20.767 3.54,-26.483c2.159,-1.43 9.278,-3.172 11.68,-2.205" style="fill-rule:nonzero;"/><path d="M238.286,108.641c1.287,2.537 4.281,3.039 6.82,3.675c3.663,0.918 7.577,1.643 11.366,1.63c0.662,-0.003 0.62,-0.923 -0,-1.001c-3.249,-0.408 -6.475,-0.693 -9.684,-1.391c-2.636,-0.573 -6.226,-1.079 -8.019,-3.287c-0.231,-0.283 -0.633,0.078 -0.483,0.374Z" style="fill:#fafbfc;fill-rule:nonzero;"/><path d="M242.344,137.797c1.36,2.603 3.499,5.165 6.158,6.507c0.122,0.062 0.251,-0.09 0.149,-0.193c-2.1,-2.13 -4.185,-4.087 -5.973,-6.51c-0.145,-0.197 -0.452,-0.03 -0.334,0.196Z" style="fill:#e96140;fill-rule:nonzero;"/><path d="M294.775,106.931c1.251,-0.817 2.593,-1.586 3.586,-2.72c0.072,-0.081 0.005,-0.247 -0.116,-0.2c-1.397,0.541 -2.575,1.522 -3.767,2.411c-0.296,0.221 -0.027,0.721 0.297,0.509Z" style="fill-rule:nonzero;"/><path d="M296.589,110.41c0.935,-0.201 2.124,-0.419 2.919,-0.972c0.21,-0.146 0.133,-0.463 -0.129,-0.478c-0.97,-0.055 -2.095,0.38 -2.997,0.699c-0.471,0.167 -0.286,0.856 0.207,0.751Z" style="fill-rule:nonzero;"/><path d="M296.929,114.699c0.583,-0.157 1.164,-0.292 1.764,-0.359c0.491,-0.055 0.993,-0.051 1.474,-0.161c0.141,-0.033 0.178,-0.255 0.041,-0.321c-1.038,-0.502 -2.44,-0.257 -3.469,0.157c-0.412,0.166 -0.263,0.806 0.19,0.684Z" style="fill-rule:nonzero;"/><path d="M111.943,242.719c-2.548,-0.081 -2.445,3.897 -2.679,5.601c-0.318,2.308 -0.966,5.289 1.019,7.035c0.343,0.301 0.803,0.078 0.849,-0.353c0.012,-0.107 0.023,-0.215 0.035,-0.323c0.026,-0.247 -0.263,-0.331 -0.441,-0.254c-0.114,0.05 -0.229,0.099 -0.342,0.149c0.227,0.059 0.453,0.118 0.68,0.177c-1.167,-1.776 -1.039,-3.503 -0.786,-5.51c0.255,-2.022 0.11,-4.705 1.844,-6.088c0.184,-0.147 0.021,-0.428 -0.179,-0.434Z" style="fill:#030404;fill-rule:nonzero;"/><path d="M114.851,244.663c-1.588,2.624 -1.97,7.487 -0.676,10.279c0.154,0.331 0.632,0.141 0.645,-0.174c0.069,-1.683 -0.34,-3.331 -0.239,-5.03c0.099,-1.679 0.589,-3.283 0.736,-4.949c0.022,-0.257 -0.345,-0.325 -0.466,-0.126Z" style="fill:#030404;fill-rule:nonzero;"/><path d="M164.097,265.821c-0.338,1.041 -0.657,2.092 -1.119,3.087c-0.422,0.912 -1.062,1.71 -1.461,2.625c-0.188,0.429 0.289,0.853 0.667,0.514c1.557,-1.396 2.416,-4.11 2.566,-6.138c0.029,-0.389 -0.543,-0.431 -0.653,-0.088Z" style="fill:#030404;fill-rule:nonzero;"/><path d="M166.319,269.386c-0.317,1.148 -0.842,2.101 -1.37,3.153c-0.225,0.448 0.394,1.022 0.743,0.573c0.795,-1.023 1.165,-2.365 1.255,-3.641c0.026,-0.365 -0.534,-0.426 -0.628,-0.085Z" style="fill:#030404;fill-rule:nonzero;"/><path d="M90.58,242.578c3.156,1.9 6.462,3.504 9.602,5.479c2.741,1.725 5.619,3.341 8.876,3.774c0.479,0.064 0.582,-0.741 0.114,-0.843c-3.783,-0.825 -6.877,-2.645 -10.104,-4.712c-2.478,-1.587 -5.378,-3.765 -8.412,-3.976c-0.153,-0.011 -0.196,0.205 -0.076,0.278Z" style="fill:#030404;fill-rule:nonzero;"/><path d="M114.474,252.471c7.981,4.137 15.514,9.255 23.69,12.989c3.745,1.71 7.674,2.903 11.705,3.726c3.819,0.779 8.34,1.842 12.225,1.424c0.396,-0.042 0.543,-0.628 0.1,-0.739c-4.162,-1.049 -8.675,-0.957 -12.909,-1.88c-4.251,-0.927 -8.321,-2.303 -12.23,-4.217c-7.558,-3.699 -14.434,-8.918 -22.308,-11.95c-0.375,-0.145 -0.627,0.464 -0.273,0.647Z" style="fill:#030404;fill-rule:nonzero;"/><path d="M150.655,309.342c1.268,-1.466 2.565,-2.92 4.032,-4.19c0.83,-0.72 5.075,-4.492 6.376,-3.23c0.124,0.12 0.357,0.001 0.3,-0.175c-0.65,-2.003 -3.491,0.066 -4.437,0.69c-2.637,1.737 -4.955,3.947 -6.58,6.667c-0.113,0.187 0.16,0.411 0.309,0.238Z" style="fill:#030404;fill-rule:nonzero;"/><path d="M141.15,308.175c-3.896,-3.856 -9.088,-6.547 -14.631,-6.773c-0.156,-0.007 -0.191,0.239 -0.037,0.274c5.359,1.223 10.097,3.235 14.235,6.933c0.292,0.262 0.716,-0.154 0.433,-0.434Z" style="fill:#030404;fill-rule:nonzero;"/><path d="M150.267,311.896c4.769,1.682 8.512,4.654 9.606,9.821c0.24,-0.183 0.479,-0.367 0.718,-0.552c-1.235,-0.792 -2.297,-1.77 -3.202,-2.922c-0.643,-0.82 -1.103,-1.915 -1.851,-2.641c-0.816,-0.792 -2.109,-1.058 -3.08,-0.429l0.048,0.113c2.163,-0.801 3.393,2.55 4.409,3.804c0.925,1.141 2.01,2.049 3.183,2.919c0.374,0.278 0.793,-0.179 0.718,-0.552c-0.987,-4.91 -5.223,-9.794 -10.476,-10.103c-0.326,-0.02 -0.352,0.443 -0.073,0.542Z" style="fill:#030404;fill-rule:nonzero;"/><path d="M90.008,275.068c4.882,-3.019 9.336,-6.726 12.009,-11.9c0.33,-0.64 -0.637,-1.208 -0.968,-0.566c-2.59,5.014 -6.878,8.574 -11.607,11.497c-0.612,0.379 -0.05,1.349 0.566,0.969Z" style="fill:#030404;fill-rule:nonzero;"/><path d="M148.365,269.39c0.337,5.048 1.084,9.981 0.979,15.065c-0.11,5.33 -0.787,10.625 -1.951,15.825c-0.11,0.494 0.649,0.705 0.761,0.209c1.153,-5.121 1.847,-10.311 1.98,-15.562c0.129,-5.114 0.032,-10.633 -1.348,-15.595c-0.063,-0.226 -0.438,-0.19 -0.421,0.058Z" style="fill:#030404;fill-rule:nonzero;"/><path d="M147.449,302.47c-0.475,0.801 -0.56,1.847 -0.734,2.753c-0.154,0.801 -0.469,1.715 -0.209,2.509c0.05,0.153 0.24,0.171 0.328,0.043c0.491,-0.709 0.468,-1.719 0.621,-2.555c0.157,-0.857 0.485,-1.762 0.418,-2.635c-0.016,-0.217 -0.302,-0.319 -0.424,-0.115Z" style="fill:#030404;fill-rule:nonzero;"/><path d="M155.473,269.937c-0.137,3.988 0.017,7.999 0.055,11.99c0.036,3.727 0.384,7.593 0.009,11.305c-0.619,6.116 -6.574,9.227 -8.801,14.6c-0.149,0.36 0.471,0.624 0.633,0.267c2.342,-5.178 8.091,-8.08 9.022,-13.985c0.572,-3.627 0.124,-7.53 0.063,-11.188c-0.072,-4.322 -0.018,-8.674 -0.281,-12.989c-0.027,-0.448 -0.685,-0.454 -0.7,-0Z" style="fill:#030404;fill-rule:nonzero;"/><path d="M200.739,154.805c-0.084,7.46 7.773,12.167 14.485,12.825c0.534,0.053 0.559,-0.716 0.119,-0.879c-3.149,-1.162 -6.344,-1.757 -9.127,-3.782c-2.663,-1.936 -4.626,-4.846 -4.998,-8.164c-0.034,-0.299 -0.475,-0.316 -0.479,-0Z" style="fill:#caaea5;fill-rule:nonzero;"/><path d="M219.419,167.581c1.054,0.233 2.115,0.218 3.189,0.234c1.09,0.017 2.129,0.057 3.17,-0.307c0.243,-0.086 0.243,-0.412 -0,-0.498c-1.041,-0.364 -2.08,-0.324 -3.17,-0.307c-1.074,0.016 -2.135,0.001 -3.189,0.234c-0.318,0.07 -0.318,0.574 -0,0.644Z" style="fill:#caaea5;fill-rule:nonzero;"/><path d="M147.899,194.612c-0.185,-1.859 -0.755,-3.462 -2.001,-4.878c-0.956,-1.087 -2.957,-2.702 -4.503,-2.307c-0.269,0.069 -0.398,0.46 -0.172,0.653c0.527,0.449 1.147,0.528 1.77,0.823c0.756,0.358 1.44,0.849 2.05,1.419c1.223,1.142 2.166,2.692 2.447,4.345c0.039,0.229 0.432,0.179 0.409,-0.055Z" style="fill:#caaea5;fill-rule:nonzero;"/><path d="M239.806,120.486c0.815,-2.679 -1.908,-8.089 -5.189,-6.944c-0.962,0.335 -0.347,0.803 0.404,0.598c0.8,-0.219 2.35,2.443 2.591,2.902c0.611,1.163 0.714,2.486 1.297,3.635c0.121,0.238 0.83,0.028 0.897,-0.191Z" style="fill:#e96140;fill-rule:nonzero;"/><path d="M237.863,116.615c-0.026,-0.892 -0.83,-1.354 -1.66,-1.265c-0.44,0.046 -0.921,0.194 -1.275,0.468c-0.212,0.163 -0.502,0.521 -0.273,0.757c0.125,0.13 0.469,-0.015 0.583,-0.094c0.326,-0.227 0.5,-0.607 0.879,-0.443c0.357,0.154 0.612,0.488 0.727,0.851c0.091,0.287 1.028,0.021 1.019,-0.274Z" style="fill:#e96140;fill-rule:nonzero;"/><path d="M194.387,184.59c0.368,10.533 1.656,21.017 3.005,31.463c0.692,5.359 0.985,11.5 2.471,16.54c0.158,0.537 0.885,0.298 0.814,-0.224l-0.003,-0.021c-0.074,-0.535 -0.887,-0.308 -0.814,0.225l0.003,0.02c0.271,-0.075 0.542,-0.15 0.814,-0.224c0.072,0.245 0.019,-0.886 -0.003,-1.149c-0.091,-1.074 -0.3,-2.148 -0.453,-3.217c-0.583,-4.086 -1.139,-8.175 -1.668,-12.27c-1.338,-10.358 -2.528,-20.744 -3.498,-31.143c-0.039,-0.421 -0.683,-0.436 -0.668,-0Z" style="fill:#caaea5;fill-rule:nonzero;"/><path d="M212.509,230.57c-4.115,0.899 -7.925,2.774 -11.738,4.568c-3.938,1.854 -8.008,3.606 -11.599,6.089c-0.257,0.178 -0.109,0.63 0.223,0.529c8.141,-2.451 15.56,-7.33 23.313,-10.714c0.28,-0.122 0.072,-0.532 -0.199,-0.472Z" style="fill:#caaea5;fill-rule:nonzero;"/><path d="M283.308,274.79c-1.091,3.904 -1.334,7.734 -2.964,11.536c-1.722,4.012 -4.262,7.124 -6.951,10.504c-0.328,0.412 0.166,0.917 0.579,0.58c3.289,-2.704 5.719,-6.795 7.379,-10.66c1.51,-3.514 3.058,-8.083 2.443,-11.96c-0.041,-0.256 -0.423,-0.222 -0.486,-0Z" style="fill:#caaea5;fill-rule:nonzero;"/><path d="M108.876,239.239c-0.925,-3.155 -1.656,-6.431 -1.719,-9.728c-0.066,-3.39 0.813,-6.49 1.329,-9.792c0.064,-0.411 -0.497,-0.736 -0.726,-0.306c-3.102,5.83 -2.271,14.332 0.494,20.087c0.169,0.35 0.729,0.104 0.622,-0.261Z" style="fill:#caaea5;fill-rule:nonzero;"/><path d="M117.848,243.596c-0.77,-1.999 -1.636,-3.976 -2.206,-6.046c-0.214,-0.776 -1.118,-3.247 -0.649,-3.834c1.838,-0.851 2.837,-0.441 2.997,1.231c0.121,0.714 0.17,1.432 0.147,2.154c0.001,0.334 0.517,0.42 0.593,0.08c0.407,-1.794 -1.171,-7.813 -3.997,-5.585c-1.23,0.97 -0.592,3.408 -0.327,4.651c0.566,2.643 1.827,5.114 2.89,7.583c0.134,0.311 0.676,0.086 0.552,-0.234Z" style="fill:#caaea5;fill-rule:nonzero;"/><path d="M136.942,255.439c-2.131,-3.435 -3.089,-6.88 -4.179,-10.71c-0.065,-0.229 -0.398,-0.178 -0.408,0.056c-0.164,3.94 1.761,7.969 4.192,10.96c0.181,0.222 0.544,-0.066 0.395,-0.306Z" style="fill:#caaea5;fill-rule:nonzero;"/><path d="M154.04,262.107c2.977,-0.269 6.927,-2.491 7.412,-5.762c0.042,-0.28 -0.303,-0.584 -0.537,-0.312c-0.929,1.078 -1.581,2.307 -2.691,3.245c-1.215,1.027 -2.742,1.764 -4.271,2.185c-0.344,0.095 -0.291,0.678 0.087,0.644Z" style="fill:#caaea5;fill-rule:nonzero;"/><path d="M154.115,258.771c1.941,-0.665 4.337,-2.39 4.684,-4.575c0.042,-0.264 -0.289,-0.552 -0.506,-0.295c-0.65,0.773 -1.117,1.656 -1.845,2.374c-0.758,0.745 -1.675,1.327 -2.643,1.76c-0.415,0.185 -0.121,0.884 0.31,0.736Z" style="fill:#caaea5;fill-rule:nonzero;"/><path d="M553.198,97.184l-106.5,-0c-9.052,-0 -16.784,6.528 -18.301,15.452l-9.199,54.113c-1.927,11.333 6.806,21.675 18.301,21.675l0.539,-0l-4.147,22.183l20.484,-22.183l89.624,-0c9.052,-0 16.783,-6.529 18.3,-15.452l9.2,-54.114c1.926,-11.333 -6.806,-21.674 -18.301,-21.674Z" style="fill:#f7dacf;fill-rule:nonzero;"/><path d="M555.211,119.38c-4.082,0 -8.221,-0.328 -12.24,-0.417c-5.599,-0.124 -11.198,-0.247 -16.797,-0.371c-11.36,-0.251 -22.742,-0.396 -34.088,-1.007c-0.662,-0.036 -0.67,-1.029 -0,-1.036c1.339,-0.012 2.678,-0.017 4.018,-0.017c10.187,-0 20.382,0.319 30.564,0.551c5.764,0.131 11.527,0.263 17.291,0.394c5.431,0.123 11.071,-0.173 16.455,0.568c0.688,0.095 0.433,1.07 -0.151,1.124c-1.666,0.154 -3.354,0.211 -5.052,0.211Z" style="fill:#d0b7af;fill-rule:nonzero;"/><path d="M520.016,132.296c-10.339,-0 -20.677,-0.311 -30.999,-0.907c-1.011,-0.058 -1.033,-1.609 -0.057,-1.609c0.019,-0 0.038,0.001 0.057,0.002c10.393,0.604 20.8,0.92 31.211,0.92c0.528,-0 1.055,-0.001 1.582,-0.002c5.473,-0.017 10.946,-0.12 16.416,-0.306c4.904,-0.168 9.869,-0.7 14.784,-0.7c0.546,0 1.092,0.007 1.636,0.021c0.71,0.019 0.924,1.168 0.174,1.284c-5.274,0.822 -10.766,0.775 -16.097,0.964c-5.469,0.194 -10.943,0.303 -16.415,0.328c-0.765,0.003 -1.528,0.005 -2.292,0.005Z" style="fill:#d0b7af;fill-rule:nonzero;"/><path d="M526.094,144.807c-2.284,-0 -4.568,-0.036 -6.847,-0.124c-10.058,-0.384 -20.134,-1.374 -30.151,-2.281c-0.821,-0.074 -0.857,-1.317 -0.031,-1.317l0.031,-0c10.064,0.367 20.088,1.444 30.151,1.778c1.747,0.058 3.495,0.083 5.244,0.083c8.315,-0 16.646,-0.57 24.942,-0.891c0.017,-0.001 0.033,-0.001 0.049,-0.001c1.281,-0 1.26,2.019 -0.049,2.064c-7.753,0.268 -15.557,0.689 -23.339,0.689Z" style="fill:#d0b7af;fill-rule:nonzero;"/><path d="M534.888,155.48c-3.608,-0 -7.217,-0.053 -10.813,-0.085c-28.641,-0.248 -57.453,-0.399 -86.012,-2.771c-0.598,-0.05 -0.62,-0.962 -0.034,-0.962c0.011,-0 0.023,-0 0.034,0.001c6.818,0.401 13.642,0.572 20.467,0.799c15.44,0.515 30.888,0.781 46.335,0.931c2.863,0.028 5.727,0.037 8.592,0.037c2.565,-0 5.131,-0.007 7.696,-0.014c2.56,-0.008 5.12,-0.015 7.68,-0.015c5.25,0 10.498,0.03 15.741,0.152c1.127,0.026 1.118,1.695 -0,1.744c-3.221,0.14 -6.453,0.183 -9.686,0.183Z" style="fill:#d0b7af;fill-rule:nonzero;"/><path d="M533.374,165.591c-3.837,0 -7.678,-0.073 -11.502,-0.121c-28.323,-0.359 -56.784,-0.776 -85.023,-3.127c-0.599,-0.05 -0.621,-0.962 -0.035,-0.962c0.012,-0 0.023,-0 0.035,0.001c6.742,0.397 13.491,0.594 20.24,0.846c15.114,0.568 30.236,0.922 45.36,1.148c13.227,0.197 26.473,-0.012 39.695,0.301c1.127,0.027 1.119,1.694 -0,1.744c-2.916,0.127 -5.841,0.17 -8.77,0.17Z" style="fill:#d0b7af;fill-rule:nonzero;"/><path d="M440.174,143.343c-0.474,-0 -0.945,-0.326 -0.916,-0.892c0.134,-2.625 1.087,-5.183 1.285,-7.846c0.189,-2.537 0.186,-5.084 0.197,-7.626c0.02,-5.009 0.132,-10.028 1.466,-14.887c0.14,-0.508 0.541,-0.728 0.95,-0.728c0.178,-0 0.356,0.041 0.516,0.118c-0.384,0.421 -0.229,1.239 0.484,1.293c-1.505,5.235 -1.378,10.608 -1.388,16.006c-0.004,2.682 -0.046,5.37 -0.363,8.036c-0.197,1.661 -0.328,3.493 -0.948,5.076c-0.1,0.014 -0.2,0.028 -0.301,0.042c-0.698,0.098 -0.948,0.786 -0.832,1.397c-0.05,0.007 -0.1,0.011 -0.15,0.011Z" style="fill:#d0b7af;fill-rule:nonzero;"/><path d="M480.734,144.296c-0.378,-0 -0.754,-0.121 -1.039,-0.362c-0.008,-0.249 -0.11,-0.496 -0.344,-0.702c-0.035,-0.032 -0.071,-0.064 -0.109,-0.094c-0.017,-0.095 -0.026,-0.195 -0.026,-0.301c-0.02,-9.442 0.773,-18.77 2.036,-28.114c-12.324,-1.309 -24.653,-1.703 -37.041,-1.946c-0.019,-0 -0.037,-0.001 -0.055,-0.002c0.013,-0.045 0.026,-0.09 0.039,-0.135c0.162,-0.55 -0.121,-0.966 -0.523,-1.158c0.124,-0.136 0.304,-0.23 0.539,-0.244c3.689,-0.222 7.388,-0.323 11.091,-0.323c9.122,-0 18.265,0.611 27.314,1.526c0.583,0.059 1.305,0.519 1.216,1.216c-1.248,9.659 -1.661,19.444 -1.596,29.18c0.008,0.973 -0.747,1.459 -1.502,1.459Z" style="fill:#d0b7af;fill-rule:nonzero;"/><path d="M444.156,112.775c-0.713,-0.054 -0.868,-0.872 -0.484,-1.293c0.402,0.192 0.685,0.608 0.523,1.158c-0.013,0.045 -0.026,0.09 -0.039,0.135Z" style="fill:#af9b93;fill-rule:nonzero;"/><path d="M477.333,145.407c-0.802,-0 -1.587,-0.2 -2.516,-0.339c-1.745,-0.26 -3.49,-0.523 -5.242,-0.733c-3.005,-0.359 -6.024,-0.604 -9.048,-0.734c-1.669,-0.072 -3.338,-0.108 -5.006,-0.108c-4.692,-0 -9.379,0.28 -14.044,0.81c-0.043,0.005 -0.085,0.007 -0.126,0.007c-0.571,-0 -0.93,-0.461 -1.027,-0.978c0.253,-0.038 0.492,-0.173 0.639,-0.419c0.193,-0.325 0.356,-0.666 0.494,-1.02c5.756,-0.796 11.545,-1.233 17.353,-1.233c0.731,0 1.463,0.007 2.195,0.021c3.337,0.064 6.673,0.265 9.994,0.609c2.589,0.268 6.175,0.135 8.243,1.848c0.062,0.34 0.229,0.606 0.453,0.796c0.015,0.498 -0.354,1.002 -0.842,1.191c-0.538,0.208 -1.032,0.282 -1.52,0.282Z" style="fill:#d0b7af;fill-rule:nonzero;"/><path d="M440.324,143.332c-0.116,-0.611 0.134,-1.299 0.832,-1.397c0.101,-0.014 0.201,-0.028 0.301,-0.042c-0.138,0.354 -0.301,0.695 -0.494,1.02c-0.147,0.246 -0.386,0.381 -0.639,0.419Z" style="fill:#af9b93;fill-rule:nonzero;"/><path d="M479.695,143.934c-0.224,-0.19 -0.391,-0.456 -0.453,-0.796c0.038,0.03 0.074,0.062 0.109,0.094c0.234,0.206 0.336,0.453 0.344,0.702Z" style="fill:#af9b93;fill-rule:nonzero;"/><path d="M447.311,134.649c-0.504,-0 -1.005,-0.319 -0.979,-0.954c0.214,-5.179 0.593,-10.358 1.078,-15.518c0.039,-0.416 0.384,-0.627 0.711,-0.627c0.323,-0 0.627,0.207 0.596,0.627c-0.379,5.011 -0.5,10.005 -0.418,15.027c-0.254,0.001 -0.507,0.001 -0.761,0.002c-0.884,0.002 -0.942,1.204 -0.208,1.443l-0.019,-0Z" style="fill:#d0b7af;fill-rule:nonzero;"/><path d="M478.022,135.868l-0.003,-0c-10.135,-0.017 -20.367,-0.544 -30.481,-1.181c-0.075,-0.004 -0.145,-0.018 -0.208,-0.038c0.496,-0.008 0.989,-0.325 0.978,-0.954c-0.004,-0.164 -0.006,-0.327 -0.009,-0.491c0.73,-0.001 1.459,-0.002 2.19,-0.002c9.163,-0 18.399,0.126 27.53,0.662c1.279,0.075 1.298,2.004 0.003,2.004Z" style="fill:#d0b7af;fill-rule:nonzero;"/><path d="M447.33,134.649c-0.734,-0.239 -0.676,-1.441 0.208,-1.443c0.254,-0.001 0.507,-0.001 0.761,-0.002c0.003,0.164 0.005,0.327 0.009,0.491c0.011,0.629 -0.482,0.946 -0.978,0.954Z" style="fill:#af9b93;fill-rule:nonzero;"/><path d="M451.372,130.882c-0.451,-0 -0.9,-0.359 -0.717,-0.906c0.768,-2.299 1.345,-4.822 2.364,-7.021c0.5,-1.08 1.08,-1.996 2.336,-2.208c0.171,-0.029 0.338,-0.043 0.501,-0.043c2.767,-0 4.416,3.978 5.67,5.81c0.329,0.539 0.696,1.052 1.098,1.54c1.078,-0.008 1.65,-0.561 1.719,-1.658c0.492,-1.227 0.993,-2.455 1.458,-3.692c0.318,-0.847 0.523,-2.013 1.483,-2.389c0.213,-0.084 0.418,-0.121 0.614,-0.121c1.028,0 1.83,1.02 2.474,1.724c0.614,0.673 1.367,2.033 2.178,2.453c0.178,0.093 0.354,0.134 0.524,0.134c1.076,0 1.921,-1.675 1.819,-2.684c-0.112,-1.104 0.405,-1.513 1.059,-1.513c1.395,-0 3.409,1.865 1.257,2.842c-1.448,0.658 -1.482,2.85 -3.042,3.509c-0.322,0.136 -0.639,0.199 -0.948,0.199c-0.589,0 -1.149,-0.229 -1.663,-0.617c-0.79,-0.595 -1.362,-1.525 -1.966,-2.29c-0.368,-0.466 -0.737,-0.931 -1.105,-1.397c-0.863,0.176 -1.322,0.688 -1.377,1.534c-0.795,1.607 -0.844,3.634 -1.9,5.119c-0.591,0.832 -1.259,1.166 -1.927,1.166c-1.124,-0 -2.247,-0.946 -2.998,-2.064c-0.54,-0.804 -2.782,-5.842 -4.708,-5.842c-0.311,-0 -0.614,0.131 -0.899,0.432c-0.741,0.779 -1.038,2.817 -1.377,3.833c-0.405,1.213 -0.811,2.425 -1.215,3.638c-0.12,0.357 -0.416,0.512 -0.712,0.512Z" style="fill:#d0b7af;fill-rule:nonzero;"/><path d="M397.406,8.403l-70.15,-0c-5.962,-0 -11.055,4.3 -12.054,10.178l-6.06,35.643c-1.269,7.465 4.483,14.277 12.054,14.277l0.356,-0l-7.024,10.217l17.784,-10.217l59.035,-0c5.961,-0 11.054,-4.3 12.054,-10.178l6.06,-35.643c1.268,-7.465 -4.484,-14.277 -12.055,-14.277Z" style="fill:#e6e5e3;fill-rule:nonzero;"/><path d="M397.328,23.143c-4.885,0 -9.827,-0.386 -14.668,-0.517c-6.301,-0.17 -12.601,-0.34 -18.901,-0.511c-12.766,-0.346 -25.547,-0.6 -38.301,-1.255c-0.569,-0.03 -0.576,-0.891 -0.002,-0.891l0.002,-0c12.767,0.042 25.539,0.486 38.301,0.838c6.466,0.178 12.932,0.357 19.398,0.535c6.252,0.172 12.692,-0.074 18.902,0.673c0.621,0.075 0.645,0.942 -0,0.984c-1.567,0.104 -3.146,0.144 -4.731,0.144Z" style="fill:#b9afb6;fill-rule:nonzero;"/><path d="M371.289,31.159c-4.071,-0 -8.144,-0.025 -12.215,-0.074c-12.288,-0.148 -24.573,-0.527 -36.847,-1.116c-0.875,-0.042 -0.89,-1.384 -0.041,-1.384c0.014,-0 0.027,-0 0.041,0.001c12.274,0.594 24.559,0.976 36.847,1.128c4.168,0.052 8.335,0.078 12.503,0.078c1.977,-0 3.954,-0.006 5.931,-0.018c4.61,-0.026 9.249,-0.243 13.87,-0.243c1.523,-0 3.044,0.024 4.561,0.085c0.734,0.03 0.713,1.063 -0,1.125c-4.022,0.354 -8.097,0.404 -12.162,0.404c-0.803,-0 -1.605,-0.002 -2.406,-0.004c-0.796,-0.002 -1.592,-0.004 -2.386,-0.004c-0.659,-0 -1.318,0.002 -1.975,0.005c-1.908,0.011 -3.814,0.017 -5.721,0.017Z" style="fill:#b9afb6;fill-rule:nonzero;"/><path d="M365.71,39.862c-15.164,-0 -30.339,-0.505 -45.432,-1.675c-0.542,-0.042 -0.561,-0.867 -0.025,-0.867l0.025,-0c15.243,0.725 30.464,1.17 45.699,1.17c8.68,-0 17.368,-0.145 26.06,-0.464c0.01,-0.001 0.02,-0.001 0.03,-0.001c0.847,-0 0.833,1.33 -0.03,1.36c-8.763,0.308 -17.542,0.477 -26.327,0.477Z" style="fill:#b9afb6;fill-rule:nonzero;"/><path d="M357.523,49.007c-13.063,-0 -26.205,-0.813 -39.156,-1.953c-0.393,-0.034 -0.41,-0.633 -0.021,-0.633l0.021,-0c16.523,0.889 32.998,0.984 49.532,1.257c0.742,0.012 0.738,1.122 -0,1.148c-3.45,0.124 -6.909,0.181 -10.376,0.181Z" style="fill:#b9afb6;fill-rule:nonzero;"/><path d="M147.779,28.351l-96.023,-0c-8.161,-0 -15.132,5.886 -16.5,13.932l-8.294,48.789c-1.737,10.217 6.136,19.542 16.5,19.542l81.164,-0l14.157,17.841l0.572,-17.841l0.129,-0c8.161,-0 15.133,-5.887 16.5,-13.932l8.295,-48.789c1.737,-10.218 -6.136,-19.542 -16.5,-19.542Z" style="fill:#e6e5e3;fill-rule:nonzero;"/><path d="M150.108,48.112c-4.426,-0 -8.884,-0.283 -13.286,-0.386c-5.611,-0.131 -11.221,-0.263 -16.831,-0.394c-11.386,-0.267 -22.78,-0.466 -34.158,-0.96c-0.42,-0.019 -0.424,-0.656 -0.002,-0.656l0.002,0c11.386,0.043 22.775,0.381 34.158,0.653c5.775,0.137 11.55,0.275 17.326,0.413c5.584,0.133 11.27,-0.023 16.831,0.513c0.459,0.044 0.472,0.701 -0,0.725c-1.342,0.066 -2.689,0.092 -4.04,0.092Z" style="fill:#9c949c;fill-rule:nonzero;"/><path d="M124.36,59.678c-2.911,-0 -5.814,-0.015 -8.695,-0.016c-10.96,-0.004 -21.917,-0.324 -32.86,-0.931c-0.642,-0.035 -0.655,-1.019 -0.034,-1.019c0.011,0 0.022,0 0.034,0.001c10.942,0.61 21.9,0.932 32.86,0.939l0.121,-0c5.369,-0 10.739,-0.204 16.106,-0.407c5.366,-0.204 10.729,-0.407 16.091,-0.407l0.579,-0c0.546,0.002 0.516,0.771 -0,0.829c-7.961,0.891 -16.115,1.011 -24.202,1.011Z" style="fill:#9c949c;fill-rule:nonzero;"/><path d="M104.426,71.111c-20.764,-0 -41.537,-0.686 -62.221,-2.189c-0.496,-0.036 -0.511,-0.792 -0.026,-0.792l0.026,0c20.802,1.097 41.59,1.713 62.393,1.713c11.938,-0 23.883,-0.203 35.832,-0.635l0.027,-0c0.772,-0 0.759,1.212 -0.027,1.241c-11.987,0.433 -23.994,0.662 -36.004,0.662Z" style="fill:#9c949c;fill-rule:nonzero;"/><path d="M93.518,83.641c-17.989,-0 -36.071,-1.055 -53.928,-2.529c-0.36,-0.029 -0.373,-0.578 -0.021,-0.578c0.006,-0 0.014,0.001 0.021,0.001c22.613,1.35 45.161,1.545 67.8,1.838c0.676,0.008 0.672,1.026 -0,1.048c-4.615,0.151 -9.24,0.221 -13.872,0.22Z" style="fill:#9c949c;fill-rule:nonzero;"/><path d="M67.745,62.272c-2.05,0 -4.199,-0.386 -5.702,-0.52c-4.804,-0.431 -9.76,-0.597 -14.519,-1.402c-2.756,-0.467 -4.109,-1.832 -3.919,-4.674c0.318,-4.74 1.317,-9.58 1.997,-14.285c0.039,-0.271 0.226,-0.388 0.431,-0.388c0.309,-0 0.66,0.267 0.601,0.673c-0.508,3.514 -1.107,7.011 -1.592,10.53c-0.14,1.013 -0.535,2.491 -0.478,3.47c0.058,0.997 0.826,2.758 1.75,3.291c0.795,0.458 2.162,0.503 3.416,0.503c0.156,0 0.31,0 0.46,-0.001c0.152,-0.001 0.3,-0.001 0.443,-0.001c0.385,-0 0.738,0.005 1.034,0.028c3.459,0.276 6.919,0.539 10.376,0.828c1.692,0.141 3.39,0.355 5.088,0.402c0.171,0.005 0.341,0.008 0.51,0.008c2.132,-0 4.048,-0.447 4.392,-2.982c0.208,-1.539 -0.297,-3.423 -0.43,-4.971c-0.127,-1.49 -0.236,-2.992 -0.169,-4.489c0.063,-1.403 0.25,-2.796 0.648,-4.145c0.165,-0.561 0.604,-1.275 0.611,-1.866c0.032,-2.566 -1.518,-2.47 -3.032,-2.541c-1.463,-0.07 -2.932,-0.102 -4.405,-0.102c-5.458,0 -10.96,0.443 -16.34,1.071c-0.052,0.006 -0.102,0.009 -0.151,0.009c-1.419,-0 -1.435,-2.482 0.151,-2.512c5.266,-0.098 10.536,-0.24 15.802,-0.259c1.1,-0.004 2.577,-0.162 4.059,-0.162c2.016,0 4.039,0.293 5.123,1.665c0.779,0.986 0.724,2.135 0.453,3.289c-0.591,2.514 -1.364,4.687 -1.36,7.338c0.003,2.113 0.242,4.216 0.355,6.324c0.079,1.481 0.375,3.257 -0.79,4.413c-1.141,1.135 -2.936,1.458 -4.813,1.458Z" style="fill:#9c949c;fill-rule:nonzero;"/><path d="M56.267,53.817c-0.782,-0 -1.014,-1.329 -0.138,-1.696c1.381,-0.576 2.772,-1.127 4.161,-1.684c-1.136,-1.325 -3.124,-3.608 -3.89,-4.127c-0.237,2.081 -0.436,4.171 -0.818,6.23c-0.053,0.29 -0.286,0.421 -0.529,0.421c-0.309,-0 -0.635,-0.213 -0.623,-0.576c0.056,-1.803 0.269,-3.595 0.444,-5.389c0.087,-0.883 -0.066,-2.09 1.04,-2.33c0.09,-0.019 0.179,-0.028 0.268,-0.028c1.031,0 1.961,1.23 2.583,1.845c1.205,1.193 2.354,2.435 3.48,3.703c0.445,0.501 0.218,1.142 -0.365,1.382c-1.768,0.726 -3.526,1.477 -5.301,2.184c-0.112,0.045 -0.216,0.065 -0.312,0.065Z" style="fill:#9c949c;fill-rule:nonzero;"/><path d="M470.747,239.517c-0,1.289 -1.045,2.334 -2.334,2.334c-1.288,-0 -2.333,-1.045 -2.333,-2.334c-0,-1.288 1.045,-2.333 2.333,-2.333c1.289,-0 2.334,1.045 2.334,2.333Z" style="fill:#121214;fill-rule:nonzero;"/><path d="M478.122,239.517c-0,1.289 -1.045,2.334 -2.334,2.334c-1.288,-0 -2.333,-1.045 -2.333,-2.334c-0,-1.288 1.045,-2.333 2.333,-2.333c1.289,-0 2.334,1.045 2.334,2.333Z" style="fill:#121214;fill-rule:nonzero;"/><path d="M485.497,239.517c-0,1.289 -1.045,2.334 -2.334,2.334c-1.289,-0 -2.333,-1.045 -2.333,-2.334c-0,-1.288 1.044,-2.333 2.333,-2.333c1.289,-0 2.334,1.045 2.334,2.333Z" style="fill:#121214;fill-rule:nonzero;"/><path d="M479.747,64.184c-0,1.289 -1.045,2.333 -2.334,2.333c-1.288,-0 -2.333,-1.044 -2.333,-2.333c-0,-1.289 1.045,-2.333 2.333,-2.333c1.289,-0 2.334,1.044 2.334,2.333Z" style="fill:#121214;fill-rule:nonzero;"/><path d="M487.122,64.184c-0,1.289 -1.045,2.333 -2.334,2.333c-1.289,-0 -2.333,-1.044 -2.333,-2.333c-0,-1.289 1.044,-2.333 2.333,-2.333c1.289,-0 2.334,1.044 2.334,2.333Z" style="fill:#121214;fill-rule:nonzero;"/><path d="M494.497,64.184c-0,1.289 -1.045,2.333 -2.334,2.333c-1.288,-0 -2.333,-1.044 -2.333,-2.333c-0,-1.289 1.045,-2.333 2.333,-2.333c1.289,-0 2.334,1.044 2.334,2.333Z" style="fill:#121214;fill-rule:nonzero;"/><path d="M61.121,153.517c-0,1.289 -1.044,2.334 -2.333,2.334c-1.289,-0 -2.333,-1.045 -2.333,-2.334c-0,-1.289 1.044,-2.333 2.333,-2.333c1.289,-0 2.333,1.044 2.333,2.333Z" style="fill:#121214;fill-rule:nonzero;"/><path d="M68.497,153.517c-0,1.289 -1.045,2.334 -2.334,2.334c-1.289,-0 -2.333,-1.045 -2.333,-2.334c-0,-1.289 1.044,-2.333 2.333,-2.333c1.289,-0 2.334,1.044 2.334,2.333Z" style="fill:#121214;fill-rule:nonzero;"/><path d="M75.872,153.517c-0,1.289 -1.045,2.334 -2.334,2.334c-1.289,-0 -2.333,-1.045 -2.333,-2.334c-0,-1.289 1.044,-2.333 2.333,-2.333c1.289,-0 2.334,1.044 2.334,2.333Z" style="fill:#121214;fill-rule:nonzero;"/></svg>