<?xml version="1.0" encoding="UTF-8" standalone="no"?><!DOCTYPE svg PUBLIC "-//W3C//DTD SVG 1.1//EN" "http://www.w3.org/Graphics/SVG/1.1/DTD/svg11.dtd"><svg width="100%" height="100%" viewBox="0 0 280 315" version="1.1" xmlns="http://www.w3.org/2000/svg" xmlns:xlink="http://www.w3.org/1999/xlink" xml:space="preserve" xmlns:serif="http://www.serif.com/" style="fill-rule:evenodd;clip-rule:evenodd;stroke-linejoin:round;stroke-miterlimit:2;"><path d="M12.098,0l197.273,0c6.682,0 12.098,5.416 12.098,12.097l0,290.291c0,6.681 -5.416,12.097 -12.098,12.097l-197.273,0c-6.682,0 -12.098,-5.416 -12.098,-12.097l-0,-290.291c-0,-6.681 5.416,-12.097 12.098,-12.097Z" style="fill:#2f2f33;fill-rule:nonzero;"/><rect x="11.409" y="27.649" width="198.651" height="257.113" style="fill:#fff;fill-rule:nonzero;"/><path d="M93.477,70.225c0,17.336 -14.053,31.389 -31.388,31.389c-17.336,0 -31.39,-14.053 -31.39,-31.389c-0,-17.336 14.054,-31.389 31.39,-31.389c17.335,-0 31.388,14.053 31.388,31.389Z" style="fill:#fcb55a;fill-rule:nonzero;"/><rect x="109.268" y="53.847" width="58.382" height="7.904" style="fill:#fcb55a;fill-rule:nonzero;"/><rect x="109.268" y="68.795" width="85.893" height="0.25" style="fill:#2562ae;fill-rule:nonzero;"/><rect x="109.268" y="74.672" width="85.893" height="0.25" style="fill:#2562ae;fill-rule:nonzero;"/><rect x="109.268" y="80.549" width="85.893" height="0.25" style="fill:#2562ae;fill-rule:nonzero;"/><rect x="109.268" y="86.426" width="50.89" height="0.25" style="fill:#2562ae;fill-rule:nonzero;"/><path d="M93.477,157.137c0,17.335 -14.053,31.388 -31.388,31.388c-17.336,0 -31.39,-14.053 -31.39,-31.388c-0,-17.336 14.054,-31.389 31.39,-31.389c17.335,0 31.388,14.053 31.388,31.389Z" style="fill:#fcb55a;fill-rule:nonzero;"/><rect x="109.268" y="140.128" width="58.382" height="7.905" style="fill:#fcb55a;fill-rule:nonzero;"/><rect x="109.268" y="155.076" width="85.893" height="0.25" style="fill:#fff;fill-rule:nonzero;"/><rect x="109.268" y="160.953" width="85.893" height="0.25" style="fill:#fff;fill-rule:nonzero;"/><rect x="109.268" y="166.83" width="85.893" height="0.25" style="fill:#fff;fill-rule:nonzero;"/><rect x="109.268" y="172.707" width="50.89" height="0.25" style="fill:#fff;fill-rule:nonzero;"/><path d="M93.477,242.001c0,17.336 -14.053,31.389 -31.388,31.389c-17.336,-0 -31.39,-14.053 -31.39,-31.389c-0,-17.335 14.054,-31.389 31.39,-31.389c17.335,-0 31.388,14.054 31.388,31.389Z" style="fill:#fcb55a;fill-rule:nonzero;"/><rect x="109.268" y="226.41" width="58.382" height="7.904" style="fill:#fcb55a;fill-rule:nonzero;"/><rect x="109.268" y="241.357" width="85.893" height="0.25" style="fill:#fff;fill-rule:nonzero;"/><rect x="109.268" y="247.234" width="85.893" height="0.25" style="fill:#fff;fill-rule:nonzero;"/><rect x="109.268" y="253.111" width="85.893" height="0.25" style="fill:#fff;fill-rule:nonzero;"/><rect x="109.268" y="258.988" width="50.89" height="0.25" style="fill:#fff;fill-rule:nonzero;"/><path d="M130.37,304.634l-39.27,0c-2.362,0 -4.296,-1.933 -4.296,-4.295c0,-2.363 1.934,-4.295 4.296,-4.295l39.27,0c2.362,0 4.295,1.932 4.295,4.295c-0,2.362 -1.933,4.295 -4.295,4.295Z" style="fill:#fff;fill-rule:nonzero;"/><path d="M48.367,167.072l-0,-19.871l9.465,0l2.444,3.805c0.134,0.21 0.366,0.336 0.614,0.336l6.845,0c-0.432,0.751 -0.683,1.618 -0.683,2.544c0,2.818 2.291,5.11 5.109,5.11l0.247,-0.013l-0,8.089l-24.041,0Zm27.735,-13.186c-0,2.173 -1.768,3.941 -3.941,3.941c-2.174,0 -3.942,-1.768 -3.942,-3.941c0,-2.173 1.768,-3.941 3.942,-3.941c2.173,0 3.941,1.768 3.941,3.941Zm-14.813,-4.005l-2.444,-3.805c-0.134,-0.209 -0.366,-0.336 -0.614,-0.336l-10.594,-0c-0.404,-0 -0.731,0.327 -0.731,0.731l-0,21.332c-0,0.403 0.327,0.73 0.731,0.73l25.501,0c0.404,0 0.73,-0.327 0.73,-0.73l-0,-9.107c1.98,-0.705 3.403,-2.592 3.403,-4.81c-0,-2.817 -2.293,-5.11 -5.11,-5.11c-1.195,0 -2.293,0.415 -3.165,1.105l-7.707,0Z" style="fill:#fff;fill-rule:nonzero;"/><path d="M71.169,155.02l-0.625,-0.729c-0.157,-0.184 -0.434,-0.205 -0.617,-0.047c-0.185,0.157 -0.206,0.434 -0.048,0.617l0.915,1.068c0.076,0.089 0.186,0.144 0.303,0.153l0.03,0.001c0.107,0 0.211,-0.04 0.291,-0.112l3.433,-3.051c0.181,-0.16 0.197,-0.438 0.037,-0.619c-0.161,-0.181 -0.438,-0.197 -0.619,-0.036l-3.1,2.755Z" style="fill:#fff;fill-rule:nonzero;"/><path d="M58.914,249.84l2.701,2.701c0.125,0.126 0.296,0.197 0.474,0.197c0.178,0 0.348,-0.071 0.474,-0.197l2.7,-2.701l6.323,6.323l-18.995,0l6.323,-6.323Zm14.6,-10.147l-2.927,2.928l-0,-3.699c-0,-0.222 -0.18,-0.403 -0.403,-0.403l-15.966,0c-0.222,0 -0.402,0.181 -0.402,0.403l0,3.923l-3.153,-3.152l11.426,-11.426l11.425,11.426Zm-18.894,-0.369l15.162,0l-0,4.48l-7.693,7.694l-7.469,-7.468l0,-4.706Zm-5.016,15.438l-0,-13.478c-0,-0.219 0.055,-0.423 0.145,-0.607l8.217,8.215l-7.243,7.243c-0.637,-0.131 -1.119,-0.697 -1.119,-1.373Zm24.969,-13.478l-0,13.478c-0,0.676 -0.482,1.242 -1.12,1.373l-7.241,-7.243l8.216,-8.215c0.089,0.184 0.145,0.388 0.145,0.607Zm-12.958,-14.438l-12.374,12.373c-0.134,0.133 -0.198,0.309 -0.196,0.483c-0.35,0.434 -0.561,0.984 -0.561,1.582l0,13.478c0,1.391 1.132,2.522 2.521,2.522l0.342,0l0.062,0.061l0.061,-0.061l21.236,0l0.062,0.061l0.061,-0.061l0.343,0c1.39,0 2.521,-1.131 2.521,-2.522l0,-13.478c0,-0.599 -0.211,-1.148 -0.561,-1.582c0.002,-0.174 -0.063,-0.35 -0.196,-0.483l-12.373,-12.373c-0.252,-0.251 -0.697,-0.251 -0.948,0Z" style="fill:#fff;fill-rule:nonzero;"/><path d="M64.827,76.235c1.745,-1.599 2.922,-3.417 3.525,-5.426c1.621,-0.423 3.325,-1.148 5.078,-2.28c-0.962,4.067 -4.384,7.19 -8.603,7.706Zm-1.235,0.078l-0.267,-0.006c-2.056,-1.709 -3.399,-3.687 -4.008,-5.903c1.461,0.509 3.226,0.903 5.21,0.903c1.004,0 2.064,-0.104 3.166,-0.34c-0.671,1.989 -1.955,3.777 -3.835,5.34l-0.266,0.006Zm-10.067,-9.168c0.971,0.797 2.753,2.074 5.131,3.012c0.532,2.27 1.769,4.307 3.7,6.078c-4.687,-0.574 -8.391,-4.364 -8.831,-9.09Zm-0.046,-0.945c-0,-2.253 0.762,-4.453 2.146,-6.224c0.68,0.441 2.052,1.24 3.886,1.845c-0.801,2.053 -1.34,4.424 -1.101,6.867c0.026,0.265 0.064,0.526 0.108,0.785c-2.5,-1.052 -4.295,-2.481 -5.035,-3.13l-0.004,-0.143Zm9.242,-10.07c-0.756,1 -2.017,2.846 -2.992,5.152c-1.743,-0.571 -3.058,-1.325 -3.729,-1.755c1.731,-1.969 4.128,-3.176 6.721,-3.397Zm0.871,-0.041l0.101,0.003c0.659,0.839 2.206,2.962 3.316,5.679c-2.509,0.513 -4.819,0.226 -6.702,-0.312c1.098,-2.567 2.55,-4.56 3.185,-5.368l0.1,-0.002Zm7.816,3.697l0.131,0.166c-1.339,0.822 -2.662,1.359 -3.94,1.683c-0.99,-2.471 -2.342,-4.454 -3.136,-5.505c2.704,0.231 5.199,1.532 6.945,3.656Zm-3.214,8.846c-0.057,0.587 -0.162,1.16 -0.312,1.719c-2.786,0.669 -5.632,0.491 -8.514,-0.544l-0.213,-0.083c-0.074,-0.357 -0.129,-0.72 -0.166,-1.09c-0.229,-2.336 0.308,-4.637 1.097,-6.636c1.256,0.366 2.697,0.626 4.26,0.626c0.921,-0 1.885,-0.091 2.878,-0.301c0.717,1.92 1.186,4.098 0.97,6.309Zm5.51,-2.432c0,0.518 -0.039,1.025 -0.115,1.521c-1.661,1.143 -3.351,1.963 -5.067,2.458c0.115,-0.487 0.201,-0.983 0.251,-1.491c0.225,-2.301 -0.24,-4.538 -0.963,-6.505c1.323,-0.342 2.692,-0.906 4.077,-1.762c1.176,1.688 1.817,3.711 1.817,5.779Zm1.164,0c-0,-2.603 -0.91,-5.144 -2.561,-7.153c-2.153,-2.619 -5.33,-4.122 -8.715,-4.122c-3.387,0 -6.563,1.503 -8.716,4.122c-1.652,2.01 -2.56,4.55 -2.56,7.153c0,6.218 5.058,11.276 11.276,11.276c6.217,0 11.276,-5.058 11.276,-11.276Z" style="fill:#fff;fill-rule:nonzero;"/><path d="M61.994,82.75c0.322,0 0.582,-0.26 0.582,-0.582l-0,-1.141c-0,-0.291 0.124,-0.553 0.322,-0.739c0.148,0.005 0.295,0.01 0.444,0.01c0.302,0 0.608,-0.013 0.917,-0.032c0.212,0.187 0.349,0.457 0.349,0.761l0,1.141c0,0.322 0.26,0.582 0.582,0.582l3.933,0c0.697,0 1.263,0.567 1.263,1.262c0,0.697 -0.566,1.263 -1.263,1.263l-11.063,-0c-0.695,-0 -1.261,-0.566 -1.261,-1.263c-0,-0.695 0.566,-1.262 1.261,-1.262l3.934,0Zm-0.582,-1.163l-3.352,0c-1.338,0 -2.425,1.088 -2.425,2.425c0,1.338 1.087,2.426 2.425,2.426l11.063,0c1.337,0 2.426,-1.088 2.426,-2.426c-0,-1.337 -1.089,-2.425 -2.426,-2.425l-3.351,0l0,-0.56c0,-0.317 -0.07,-0.618 -0.193,-0.89c1.279,-0.178 2.605,-0.505 3.971,-0.98c0.379,-0.132 0.58,-0.546 0.448,-0.926c-0.132,-0.379 -0.546,-0.579 -0.926,-0.448c-2.426,0.844 -4.704,1.187 -6.768,1.019c-6.237,-0.509 -11.522,-6.463 -11.541,-13.002c-0.003,-1.071 0.113,-2.098 0.344,-3.052c0.383,-1.583 1.121,-3.079 2.132,-4.324c1.088,-1.338 2.447,-2.41 3.828,-3.019c0.367,-0.162 0.534,-0.592 0.372,-0.959c-0.163,-0.368 -0.593,-0.534 -0.959,-0.371c-1.61,0.71 -3.122,1.897 -4.37,3.432c-1.147,1.412 -1.983,3.107 -2.417,4.899c-0.258,1.068 -0.387,2.211 -0.384,3.398c0.02,7.053 5.58,13.494 12.272,14.381c-0.109,0.26 -0.169,0.544 -0.169,0.842l0,0.56Z" style="fill:#fff;fill-rule:nonzero;"/><path d="M209.168,284.762l-197.759,0l22.439,-29.043c5.091,10.462 15.824,17.671 28.241,17.671c17.335,-0 31.388,-14.053 31.388,-31.389c0,-15.232 -10.85,-27.93 -25.243,-30.787l43.181,-55.888l0.021,0c3.173,2.119 6.475,3.998 9.866,5.627l-12.034,0l0,0.25l12.559,0c5.205,2.454 10.634,4.334 16.177,5.627l-28.736,0l0,0.25l29.842,0c5.732,1.253 11.584,1.884 17.446,1.885c5.833,0 11.678,-0.626 17.423,-1.885l21.182,0l-0,-0.25l-20.079,0c5.504,-1.288 10.912,-3.16 16.125,-5.627l3.954,0l-0,-0.25l-3.431,0c2.321,-1.118 4.6,-2.354 6.834,-3.709l11.496,13.525l0,88.318l-14.276,0l-0,22.881l13.384,0l-0,2.794Zm-99.9,-25.774l0,0.25l50.89,0l0,-0.25l-50.89,0Zm0,-5.877l0,0.25l85.893,0l-0,-0.25l-85.893,0Zm0,-5.877l0,0.25l85.893,0l-0,-0.25l-85.893,0Zm0,-5.877l0,0.25l85.893,0l-0,-0.25l-85.893,0Zm0,-14.947l0,7.904l58.382,0l-0,-7.904l-58.382,0Zm0,-53.703l0,0.25l50.89,0l0,-0.25l-50.89,0Z" style="fill:#f7f4ee;fill-rule:nonzero;"/><path d="M111.436,155.326l-0.021,0l0.007,-0.009c0.006,0.004 0.007,0.005 0.014,0.009Z" style="fill:#1f2c5e;fill-rule:nonzero;"/><path d="M195.161,161.203l-3.954,0c0.174,-0.083 0.349,-0.166 0.523,-0.25l3.431,0l-0,0.25Zm-73.334,0l-12.559,0l0,-0.25l12.034,0c0.176,0.085 0.349,0.167 0.525,0.25Z" style="fill:#1f2c5e;fill-rule:nonzero;"/><path d="M195.161,167.08l-21.182,0c0.37,-0.081 0.734,-0.164 1.103,-0.25l20.079,0l-0,0.25Zm-56.051,0l-29.842,0l0,-0.25l28.736,0c0.369,0.086 0.736,0.169 1.106,0.25Z" style="fill:#1f2c5e;fill-rule:nonzero;"/><rect x="109.268" y="172.707" width="50.89" height="0.25" style="fill:#1f2c5e;fill-rule:nonzero;"/><path d="M62.089,273.39c-12.417,-0 -23.15,-7.209 -28.241,-17.671l34.386,-44.505c14.393,2.857 25.243,15.555 25.243,30.787c0,17.336 -14.053,31.389 -31.388,31.389Zm-10.619,-16.106l21.236,0l0.062,0.061l0.061,-0.061l0.343,0c1.39,0 2.521,-1.131 2.521,-2.522l0,-13.478c0,-0.599 -0.211,-1.148 -0.561,-1.582c0.002,-0.174 -0.063,-0.35 -0.196,-0.483l-12.373,-12.373c-0.126,-0.126 -0.3,-0.189 -0.474,-0.189c-0.175,-0 -0.349,0.063 -0.474,0.189l-12.374,12.373c-0.134,0.133 -0.198,0.309 -0.196,0.483c-0.35,0.434 -0.561,0.984 -0.561,1.582l0,13.478c0,1.391 1.132,2.522 2.521,2.522l0.342,0l0.062,0.061l0.061,-0.061Zm20.116,-1.121l-18.995,0l6.323,-6.323l2.701,2.701c0.125,0.126 0.296,0.197 0.474,0.197c0.178,0 0.348,-0.071 0.474,-0.197l2.7,-2.701l6.323,6.323Zm1.867,-0.028l-7.241,-7.243l8.216,-8.215c0.089,0.184 0.145,0.388 0.145,0.607l-0,13.478c-0,0.676 -0.482,1.242 -1.12,1.373Zm-22.73,0c-0.637,-0.131 -1.119,-0.697 -1.119,-1.373l-0,-13.478c-0,-0.219 0.055,-0.423 0.145,-0.607l8.217,8.215l-7.243,7.243Zm11.366,-4.637l-7.469,-7.468l0,-4.706l15.162,0l-0,4.48l-7.693,7.694Zm-8.273,-8.653l-3.153,-3.152l11.426,-11.426l11.425,11.426l-2.927,2.928l-0,-3.699c-0,-0.222 -0.18,-0.403 -0.403,-0.403l-15.966,0c-0.222,0 -0.402,0.181 -0.402,0.403l0,3.923Z" style="fill:#fcb55a;fill-rule:nonzero;"/><rect x="109.268" y="226.41" width="58.382" height="7.904" style="fill:#fcb55a;fill-rule:nonzero;"/><rect x="109.268" y="241.357" width="85.893" height="0.25" style="fill:#1f2c5e;fill-rule:nonzero;"/><rect x="109.268" y="247.234" width="85.893" height="0.25" style="fill:#1f2c5e;fill-rule:nonzero;"/><rect x="109.268" y="253.111" width="85.893" height="0.25" style="fill:#1f2c5e;fill-rule:nonzero;"/><rect x="109.268" y="258.988" width="50.89" height="0.25" style="fill:#1f2c5e;fill-rule:nonzero;"/><path d="M72.768,257.345l-0.062,-0.061l-21.236,0l-0.061,0.061l-0.062,-0.061l-0.342,0c-1.389,0 -2.521,-1.131 -2.521,-2.522l0,-13.478c0,-0.598 0.211,-1.148 0.561,-1.582c-0.002,-0.174 0.062,-0.35 0.196,-0.483l12.374,-12.373c0.125,-0.126 0.299,-0.189 0.474,-0.189c0.174,-0 0.348,0.063 0.474,0.189l12.373,12.373c0.133,0.133 0.198,0.309 0.196,0.483c0.35,0.434 0.561,0.983 0.561,1.582l0,13.478c0,1.391 -1.131,2.522 -2.521,2.522l-0.343,0l-0.061,0.061Zm-13.854,-7.505l-6.323,6.323l18.995,0l-6.323,-6.323l-2.7,2.701c-0.126,0.126 -0.296,0.197 -0.474,0.197c-0.178,0 -0.349,-0.071 -0.474,-0.197l-2.701,-2.701Zm15.514,-9.163l-8.216,8.215l7.241,7.243c0.638,-0.131 1.12,-0.697 1.12,-1.373l-0,-13.478c-0,-0.219 -0.056,-0.423 -0.145,-0.607Zm-24.679,0c-0.09,0.184 -0.145,0.388 -0.145,0.607l-0,13.478c-0,0.676 0.482,1.242 1.119,1.373l7.243,-7.243l-8.217,-8.215Zm4.871,-1.353l0,4.706l7.469,7.468l7.693,-7.694l-0,-4.48l-15.162,0Zm7.469,-11.057l-11.426,11.426l3.153,3.152l0,-3.923c0,-0.222 0.18,-0.403 0.402,-0.403l15.966,0c0.223,0 0.403,0.181 0.403,0.403l-0,3.699l2.927,-2.928l-11.425,-11.426Z" style="fill:#fff;fill-rule:nonzero;"/><path d="M275.096,227.26c-5.434,4.619 -13.659,3.952 -18.277,-1.482l-63.471,-74.67l19.759,-16.796l63.47,74.67c4.62,5.434 3.953,13.659 -1.481,18.278Z" style="fill:#fcb55a;fill-rule:nonzero;"/><path d="M278.732,222.284l-0.027,-0.031c1.741,-4.327 1.096,-9.465 -2.112,-13.252l0.017,0.019c3.219,3.788 3.864,8.93 2.122,13.264Z" style="fill:#eac39b;fill-rule:nonzero;"/><path d="M278.705,222.253l-65.169,-76.67c1.683,-1.656 3.278,-3.368 4.787,-5.135l58.27,68.553c3.208,3.787 3.853,8.925 2.112,13.252Z" style="fill:#f59415;fill-rule:nonzero;"/><path d="M199.822,138.703c-28.138,23.917 -70.337,20.496 -94.254,-7.642c-23.917,-28.138 -20.495,-70.337 7.642,-94.254c28.138,-23.917 70.337,-20.496 94.254,7.642c23.917,28.138 20.496,70.337 -7.642,94.254Zm-95.9,-112.823c-34.173,29.047 -38.328,80.297 -9.281,114.469c29.047,34.173 80.297,38.329 114.47,9.281c34.172,-29.047 38.328,-80.297 9.281,-114.47c-29.047,-34.171 -80.298,-38.327 -114.47,-9.28Z" style="fill:#fcb55a;fill-rule:nonzero;"/><path d="M92.082,105.683c-11.597,-24.098 -5.402,-55.183 16.757,-74.019c12.119,-10.301 26.733,-15.432 41.17,-15.432c11.96,-0 23.799,3.523 33.99,10.548c-0.038,-0.017 -0.077,-0.035 -0.116,-0.052c-8.446,-3.914 -17.788,-5.939 -27.274,-5.939c-15.126,0 -30.616,5.153 -43.399,16.018c-0.017,0.014 -0.033,0.028 -0.05,0.043c-0.009,0.008 -0.017,0.014 -0.026,0.022c-0.004,0.003 -0.01,0.008 -0.013,0.011c-14.033,11.967 -21.657,27.437 -23.132,44.145c-0.227,2.253 -0.341,4.517 -0.34,6.783c0.002,6.003 0.808,12.019 2.433,17.872Z" style="fill:#f59415;fill-rule:nonzero;"/><path d="M185.854,27.649l-58.672,0c9.263,-4.53 19.3,-6.762 29.302,-6.762c9.385,-0 18.739,1.965 27.399,5.841c0.042,0.019 0.083,0.039 0.125,0.058c-0.003,-0.002 -0.006,-0.004 -0.009,-0.006c0.623,0.28 1.24,0.569 1.855,0.869Z" style="fill:#2f2f33;fill-rule:nonzero;"/><path d="M123.157,140.128l-8.233,-0c-3.346,-2.663 -6.482,-5.686 -9.356,-9.067c-6.493,-7.639 -10.971,-16.313 -13.486,-25.378c0,0.002 0.002,0.004 0.002,0.006c-1.745,-6.947 -2.527,-13.868 -2.331,-20.62c2.377,-4.42 3.724,-9.474 3.724,-14.844c0,-1.373 -0.088,-2.726 -0.259,-4.053c3.744,-11.015 10.411,-21.193 19.903,-29.289c0.005,-0.004 0.008,-0.007 0.013,-0.011c0.008,-0.007 0.017,-0.015 0.026,-0.022c0.016,-0.014 0.034,-0.029 0.05,-0.043c4.359,-3.705 9.059,-6.755 13.972,-9.158l58.672,0c5.679,2.768 11.028,6.378 15.853,10.813l-23.436,30.333l-69.003,0l0,0.25l68.81,0l-4.348,5.627l-64.462,-0l0,0.25l64.269,-0l-4.348,5.627l-59.921,0l0,0.25l59.728,0l-45.839,59.329Zm-13.889,-53.702l0,0.25l50.89,-0l0,-0.25l-50.89,-0Zm0,-32.579l0,7.904l58.382,0l-0,-7.904l-58.382,0Z" style="fill:#e9edf7;fill-rule:nonzero;"/><path d="M89.753,85.069c0.039,-1.354 0.118,-2.702 0.236,-4.041c0.509,-5.042 1.589,-10.029 3.229,-14.856c0.171,1.327 0.259,2.68 0.259,4.053c0,5.37 -1.347,10.424 -3.724,14.844Z" style="fill:#fcb55a;fill-rule:nonzero;"/><rect x="109.268" y="53.847" width="58.382" height="7.904" style="fill:#fcb55a;fill-rule:nonzero;"/><path d="M178.078,69.045l-68.81,0l0,-0.25l69.003,0l-0.193,0.25Z" style="fill:#2862ae;fill-rule:nonzero;"/><path d="M173.537,74.922l-64.269,-0l0,-0.25l64.462,-0l-0.193,0.25Z" style="fill:#2862ae;fill-rule:nonzero;"/><path d="M168.996,80.799l-59.728,0l0,-0.25l59.921,0l-0.193,0.25Z" style="fill:#2862ae;fill-rule:nonzero;"/><rect x="109.268" y="86.426" width="50.89" height="0.25" style="fill:#2862ae;fill-rule:nonzero;"/><path d="M120.217,143.933c-1.812,-1.173 -3.581,-2.443 -5.293,-3.805l8.233,-0l-2.94,3.805Z" style="fill:#eeae62;fill-rule:nonzero;"/><path d="M221.469,103.657l0,-31.845c1.278,5.223 1.913,10.561 1.915,15.887c0.002,5.37 -0.64,10.732 -1.915,15.958Z" style="fill:#cad2eb;fill-rule:nonzero;"/><path d="M210.06,127.83l0,-80.13c5.538,7.389 9.327,15.601 11.409,24.112l0,31.845c-2.1,8.609 -5.917,16.85 -11.409,24.173Z" style="fill:#2f2f33;fill-rule:nonzero;"/><path d="M156.548,154.623c-9.972,0 -19.908,-2.218 -29.015,-6.59l40.117,0l-0,-7.905l-44.493,-0l45.839,-59.329l26.165,0l-0,-0.25l-25.972,0l4.348,-5.627l21.624,-0l-0,-0.25l-21.431,-0l4.348,-5.627l17.083,0l-0,-0.25l-16.89,0l23.436,-30.333c2.016,1.852 3.938,3.847 5.757,5.987c0.905,1.065 1.77,2.148 2.596,3.251l0,80.13c-2.936,3.916 -6.351,7.569 -10.238,10.873c-12.576,10.69 -27.967,15.92 -43.274,15.92Z" style="fill:#f2eadd;fill-rule:nonzero;"/><path d="M195.161,69.045l-17.083,0l0.193,-0.25l16.89,0l-0,0.25Z" style="fill:#2d62ae;fill-rule:nonzero;"/><path d="M195.161,74.922l-21.624,-0l0.193,-0.25l21.431,-0l-0,0.25Z" style="fill:#2d62ae;fill-rule:nonzero;"/><path d="M195.161,80.799l-26.165,0l0.193,-0.25l25.972,0l-0,0.25Z" style="fill:#2d62ae;fill-rule:nonzero;"/><path d="M167.65,148.033l-40.117,0c-2.508,-1.205 -4.95,-2.571 -7.316,-4.1l2.94,-3.805l44.493,-0l-0,7.905Z" style="fill:#fcb55a;fill-rule:nonzero;"/><path d="M156.548,154.623c-18.939,0 -37.753,-8.001 -50.98,-23.562c-6.493,-7.639 -10.971,-16.313 -13.486,-25.378c2.515,9.065 6.993,17.739 13.486,25.378c2.874,3.381 6.01,6.404 9.356,9.067c1.712,1.362 3.481,2.632 5.293,3.805c2.366,1.529 4.808,2.895 7.316,4.1c9.107,4.372 19.043,6.59 29.015,6.59c15.307,0 30.698,-5.23 43.274,-15.92c3.887,-3.304 7.302,-6.957 10.238,-10.873c5.492,-7.323 9.309,-15.564 11.409,-24.173c1.275,-5.226 1.917,-10.588 1.915,-15.958c0.007,18.946 -7.995,37.773 -23.562,51.004c-12.576,10.69 -27.967,15.92 -43.274,15.92Z" style="fill:#eeae62;fill-rule:nonzero;"/><path d="M92.084,105.689c-0,-0.002 -0.002,-0.004 -0.002,-0.006c-1.625,-5.853 -2.431,-11.869 -2.433,-17.872c-0.001,-0.882 0.016,-1.763 0.051,-2.644c0.017,-0.032 0.036,-0.066 0.053,-0.098c-0.196,6.752 0.586,13.673 2.331,20.62Z" style="fill:#e9c5a1;fill-rule:nonzero;"/><path d="M89.7,85.167c0.054,-1.382 0.15,-2.763 0.289,-4.139c-0.118,1.339 -0.197,2.687 -0.236,4.041c-0.017,0.032 -0.036,0.066 -0.053,0.098Z" style="fill:#8aba92;fill-rule:nonzero;"/><path d="M113.121,36.883c0.003,-0.003 0.009,-0.008 0.013,-0.011c-0.005,0.004 -0.008,0.007 -0.013,0.011Zm0.039,-0.033c0.017,-0.015 0.033,-0.029 0.05,-0.043c-0.016,0.014 -0.034,0.029 -0.05,0.043Z" style="fill:#e9c5a1;fill-rule:nonzero;"/><path d="M184.008,26.786c-0.042,-0.019 -0.083,-0.039 -0.125,-0.058c0.039,0.017 0.078,0.035 0.116,0.052c0.003,0.002 0.006,0.004 0.009,0.006Z" style="fill:#89798c;fill-rule:nonzero;"/></svg>