<svg xmlns="http://www.w3.org/2000/svg" viewBox="0 0 624.34 401.71"><defs><style>.cls-1{fill:#e8e8e8;}.cls-2{fill:#999;}.cls-3{fill:#ccc;}.cls-4{fill:#f59415;}.cls-5{fill:#f8b154;}.cls-6{fill:#737373;}.cls-7{fill:#262626;}.cls-8{fill:#fbd29d;}.cls-9{fill:#f9bc6c;}.cls-10{fill:#fb921e;}.cls-11{fill:#fb911e;}.cls-12{fill:#4d4d4d;}.cls-13{fill:#fdbc45;}.cls-14{fill:#fb931d;}.cls-15{fill:#fff;}.cls-16{fill:#efefef;}.cls-17{fill:#824f06;}.cls-18{fill:#2d2b28;}</style></defs><title>ethical3_1</title><g id="Layer_2" data-name="Layer 2"><g id="Layer_1-2" data-name="Layer 1"><path class="cls-1" d="M68.33,364.9c-9.71.49-85.23,6.56-64.86,20.92,15.67,11,189.94,23.07,227.65,10.57,27.47-9.11-.37-14.8,21-17.47,24-3,40.6,14.81,75.55,14.32s49-15.64,85.5-14.32-8.21,11.37,10.45,15.84,264.46,7.86,185-15.33S209.53,357.77,68.33,364.9Z"/><line class="cls-2" x1="134.83" y1="386.63" x2="132.69" y2="386.95"/><line class="cls-3" x1="548.26" y1="372.25" x2="546.53" y2="370.96"/><path class="cls-2" d="M444.29,328.18c-8.66,8.09-16.46,6.35-16.46,6.35h0a13.38,13.38,0,0,1,1.79,5c.61,4-.3,9.7-7.86,15-16.24,11.29-25.12,1.73-25.12,1.73s-.88.79-2.31,2c-4.32,3.72-13.71,11.54-19.34,14.14-7.51,3.46-13-3.46-13-3.46s-.68.75-1.81,1.94c-4.42,4.63-15.78,16-21.29,16-9,0-13.28-5.19-13.28-5.19L193.39,255.71l99-67.27s11.41,7.89,25.06,16.3c-12.73,9.92-31.88,25.37-31.88,25.37s3.46,16.94,16.17,13.09,47.06-17.06,47.06-17.06c29.26,23.28,78.61,66.18,93.29,79l4.23,3.71S453,320.09,444.29,328.18Z"/><path class="cls-4" d="M68.08,141.09h194.6l49.66,44.46s-44.14,45-132.2,81.33Z"/><path class="cls-5" d="M362,368.89s-.68.75-1.81,1.94l-32.55-37.75Z"/><path class="cls-5" d="M396.65,356.18s-.88.79-2.31,2L362,321.54Z"/><path class="cls-5" d="M429.63,339.49l-33-30.36,31.19,25.4h0A13.38,13.38,0,0,1,429.63,339.49Z"/><path class="cls-5" d="M396.65,185.26s-7.89,11-12.13,11.74-39.7-5.87-39.7-5.87-10.93,1.76-17.18,5.93c-1.68,1.12-5.49,4-10.17,7.67-12.73,9.93-31.89,25.37-31.89,25.37s3.46,16.94,16.17,13.09,47.06-17.06,47.06-17.06c29.26,23.27,78.61,66.18,93.29,79,13-7.79,40.55-24.7,42.89-30,3.08-6.93,11.55-31.57,11.55-31.57Z"/><path class="cls-4" d="M384.52,185.26s45.91,43.31,126.17,77.09l97.88-121.26H431.29Z"/><rect class="cls-6" x="68.08" y="129.63" width="194.6" height="11.45"/><rect class="cls-6" x="431.29" y="129.63" width="177.28" height="11.45"/><path class="cls-5" d="M237.75,297.94,269,273.23s8.86-6.93,16.56,1.92,0,18.48,0,18.48L258.84,318s-13.87,6-21.08-3.22S237.75,297.94,237.75,297.94Z"/><path class="cls-5" d="M258.84,318l39.45-33.24s8.08-4.23,14.05,0,0,22.71,0,22.71L283,341s-10.13,7.65-21.23-2.74C253.7,330.72,258.84,318,258.84,318Z"/><path class="cls-5" d="M283,341l24.52-23.53a11.52,11.52,0,0,1,13.54,2.45c6.48,6.4,0,19.49,0,19.49l-17.59,21.08s-12.09,2-17.89-2.21C278.27,353,283,341,283,341Z"/><path class="cls-5" d="M303.48,360.52l15.6-16.78s6.93-3.92,12.7,3.4,0,16.55,0,16.55L323.95,380s-9,8.1-16.42,6.79C294.44,384.48,303.48,360.52,303.48,360.52Z"/><circle class="cls-7" cx="186.58" cy="234.8" r="6.8"/><circle class="cls-7" cx="170.41" cy="217.47" r="6.8"/><circle class="cls-7" cx="155.4" cy="199.57" r="6.8"/><circle class="cls-8" cx="502.45" cy="234.8" r="6.8"/><circle class="cls-8" cx="518.61" cy="217.47" r="6.8"/><circle class="cls-8" cx="533.63" cy="199.57" r="6.8"/><path class="cls-8" d="M185.59,34.45s-6.06-.28-5.58,4.33c0,.19,0,.37.05.54.32,3.59-.15,3.8-.15,3.8H164.42l5.91-15.61L177.51,30,183,31.85Z"/><path class="cls-9" d="M185.59,34.45s-6.06-.28-5.58,4.33c0,.19,0,.37.05.54l-1.2-.76c2-3.33-5.7-6.76-5.7-6.76L177.51,30,183,31.85Z"/><path class="cls-10" d="M173.49,36.82s9.54-.06,9.51,2.82c0,3.76-.58,5-.58,5H162.11S158.47,35.28,173.49,36.82Z"/><path class="cls-8" d="M232,46.31s-2.67-4.33-2.38-6.57S230.8,33,230.8,33a2.28,2.28,0,0,1,2.36,2.38c-.07,2.38-1.23,2.31-1.23,2.31l.43-1.95s3.46-11,4.76-10.83,8.37,3.61,8.45,6.42-2,13.14-3.54,14.94-3.18,3.61-3.18,3.61Z"/><path class="cls-11" d="M229.91,46.89s1.44-4.4,6.86-1.44,3.83,6.06,3.83,6.06-1.22,2.27-5.92.36C228.83,49.49,229.91,46.89,229.91,46.89Z"/><path class="cls-12" d="M245.36,145s2.5,6.93,5.58,6.35S262.68,146,264,148.22s-12.89,24.33-22.33,21.16c-2.5-.87-4.62-13-5.2-17.23a9,9,0,0,1,2.31-7.12Z"/><path class="cls-12" d="M231.31,177.75s3.27,8.85,6,9,7.31-1,7.89,0-4.62,9.82-10.59,11.36a72.53,72.53,0,0,1-11.74,1.92V176.79Z"/><path class="cls-12" d="M233.23,151.19s10.2,3.9,15.21-4.11c0,0-16-50.36-18.29-53.25s-36.76,8.08-36.76,8.08L192,96.33l-12.26,4.08s11.1,24.21,11.68,24.21,25.79-14.05,27.72-14.05S233.23,151.19,233.23,151.19Z"/><path class="cls-7" d="M158.35,112.31s1,16.55,13.09,17.32,30.8,3.46,32.72,5.77,15.78,47,15.78,47,9,5.28,14.63-4.81c0,0-14.82-50.79-16.94-54.07s-28.29-11.95-28.29-11.95,2.36-.77.12-10.3l-16.24,3.47Z"/><path class="cls-10" d="M156.24,104.71s.38,6.26,2.12,7.6,35-12.7,35-12.7L193.19,98l-26.76-.87Z"/><path class="cls-13" d="M230.56,48.53a4.05,4.05,0,0,0-2.67.81c-1.08.94-16.53,17.25-16.53,17.25a4,4,0,0,1-4.84-.65C204.36,63.71,190.2,47,188.8,46.82s-6.31,7.36-6.31,7.36l4.4,24s5.12-1.23,6.5,0,14.94,10.61,18.69,9.31S236.46,60.6,237.59,57s0-4.37,0-4.37Z"/><path class="cls-4" d="M195.5,88.83A27.75,27.75,0,0,1,193.19,98l-29.58,5.39h0l-7.37,1.34s-4.62-.09-5.2-8.56c-.43-6.4,0-29.28,1.35-40.86.42-3.75.94-6.3,1.53-6.76,0,0,4.14-3.87,8.18-3.87h20.31s6.93-.39,7.79,6S196.18,82.76,195.5,88.83Z"/><path class="cls-13" d="M173.16,93.36c-1,.28-13.5,3.83-9.55,10h0l-7.37,1.34s-4.62-.09-5.2-8.56c-.43-6.4,0-29.28,1.35-40.86l5-6.76s8.78,4.25,7,18.7-6.23,24.34-3.75,26.12S172.31,93.51,173.16,93.36Z"/><path class="cls-8" d="M147.86,128.09s5.29,4,5,5.1-3,.48-3,.48,1.06,3.66,2,3.85,3.56,0,3.66,1-6.26,9.72-9.72,8.47-7.31-4.33-8.37-8.08,1.54-9.43,1.54-9.43Z"/><path class="cls-13" d="M145.46,123.49s3.85-3.67,4-6.37,1.54-23.48,2.6-27,8.57-29.64,8.57-34-2.84-12.68-11.16-4.81c-8.76,8.28-12.34,23.82-14,33.68-1.6,9.43-3.35,39.3,1.1,41.35S145.46,123.49,145.46,123.49Z"/><path class="cls-10" d="M137.22,133l10.65-4.91s1.19-3.95-1.47-4.52-10.29,2-10.75,3.85A6.58,6.58,0,0,0,137.22,133Z"/><path class="cls-9" d="M233,34.46s0,4.63,0,4.86,5,1.85,4.57,2.75,1.6-1.75,2.14-1.42,0-2.3,0-2.3Z"/><path class="cls-7" d="M460.46,190.17s-3,10.11-5.77,10.83-7.51,2.07-7.51,5.92v3L474,206s-3-15.88-4.91-17.32S460.46,190.17,460.46,190.17Z"/><path class="cls-7" d="M492.35,107l-35.94,12.8s-4.62,2-4.48,5.73S457,191.76,457,191.76s10.24,2.45,15.15-.87c-.14-1.15,1.16-55.29,2.17-57s26.42-8.37,26.42-8.37l5.34-15.88-1.44-4.76S495,106,492.35,107Z"/><path class="cls-14" d="M483.55,109.62s11.4,1.88,11.69,1.73-1.3-9-1.3-9Z"/><path class="cls-7" d="M496.11,190.6s.87,12.27-1.59,13.57-4.33,2-3.9,5.77c0,0,20.5-.43,20.5-.87s-.58-3.46-1.59-4.48-4.48-14-4.48-14Z"/><path class="cls-12" d="M499.13,107.51s-2,8.46.88,8.75l-10.59,6.64s-2.4,1-1.68,9.09,6.07,60.64,6.07,60.64,11,4.92,16.31,0c0,0-.87-61.22,1.3-62.8s13.28,1.59,16.31-5.34-.87-20.64-.87-20.64l-18.62,1Z"/><path class="cls-15" d="M505.71,54.4a100.26,100.26,0,0,1,15.59,0l.87,52.11s-25.48,2-25.84.43S505.71,54.4,505.71,54.4Z"/><path class="cls-8" d="M518.87,56.34c-6,6.16-11.21,1.59-11.21,1.59s0-1.75,0-3.51c0-1.07,0-2.15,0-2.84,0-1.83-2.3-2.07-2.45-2.07l11.38-5.84L518,43S519,55.39,518.87,56.34Z"/><path class="cls-9" d="M516.71,45.27s-6.38,5.1-9,9.15c0-1.07,0-2.15,0-2.84,0-1.83-2.3-2.07-2.45-2.07l11.38-5.84Z"/><path class="cls-8" d="M502.75,29.64s-1.15,6.35-1.44,9.67-.19,10,1.15,10.63,3.22.67,5.63-.29,13.33-6.93,13.33-6.93l3-5.73-1.88-5.92-13.43-4.43S504.05,25.64,502.75,29.64Z"/><path class="cls-9" d="M518.2,38.48s-.35-3.61-3.41-4.39-9.46-.9-10.25-3.42l-2,.78v-4.2L509,24l8.88,5.46S518.73,37.41,518.2,38.48Z"/><path class="cls-12" d="M518.2,38.48s2.38-5.74,3.9-2.44c1.19,2.58-.87,5.92-3.71,5.05l-.3,3.44.45,5.65s.43-2.16,1-2.11.54,1.25.54,1.25.76-1.73,1.39-1.92,9.86-5,8.85-14.72a17.62,17.62,0,0,0-16.75-15.81c-7.51-.22-9,3.68-9,3.68s-3.66-4.11-6.4,1.44,4.17,10.25,4.17,10.25l2.23-4.47s1.49,4.88,8.28,4.48C518.89,31.88,518.2,38.48,518.2,38.48Z"/><path class="cls-8" d="M450.86,38.23s1.88-7.15,1.37-10a8.66,8.66,0,0,0-1.8-4.26s-1.66-1-1.52,2.67-.58,4.91-.58,4.91,1.44-.36,1.08-.79-5.56-11.84-8.08-13.43-8.37,4-7.87,8.37,9,17.83,9.74,17.83S450,40.1,450.86,38.23Z"/><path class="cls-13" d="M440.75,43.86s4.11-6.71,11-6.28l16.46,25.26s1.73,2.82,4.76,1.88,24.55-9.17,24.55-9.17-.29,16.24-.87,16.38-28.44,12.49-30.75,11.55S440.75,43.86,440.75,43.86Z"/><path class="cls-4" d="M495.61,60.1s.07-5.12,4.11-5.41,7.22-.39,7.22-.39l-7.46,52.14s-11,0-15.93,3.18Z"/><path class="cls-16" d="M518.87,56.34s-4.13,40.94-11.93,46.05c0,0,6.42,3.05,9.77,3.23s7.22-22.09,7.22-22.09Z"/><path class="cls-4" d="M535.81,110.25a23.31,23.31,0,0,1-6.16,1.4c-8.35.86-17.61-1.4-17.61-1.4s6.3-17.39,6.84-29.42,0-26.58,0-26.58a61.64,61.64,0,0,1,11.69,1.9,3.26,3.26,0,0,1,.6.21h0a3.5,3.5,0,0,1,2.06,2.83l.21,4.09Z"/><path class="cls-8" d="M552.5,123.86s-2.54,4.4-3.26,4.83-.58,1.88,3.9,0,18.77-.43,21.22-.58,1.88-1.91,1.88-1.91-9.09-1.41-11.4-3.43-8.08-6.92-8.08-6.92l-5.63,5.77Z"/><path class="cls-13" d="M535.81,110.25a23.31,23.31,0,0,1-6.16,1.4l-.55-.3c2.54-1.66,2.13-6.63,0-9s.15-5.95,2.08-10.63-3.37-14.58-4.45-23.59c-1.06-8.8,4.21-11.69,4.44-11.82h0l2.27,6.92Z"/><path class="cls-4" d="M548.91,122.74s8.27-1,10.58-6c0,0-9.09-26.32-11.4-30.8s-13.43-26.37-13.43-26.37-1.65-2.7-3.47-3.2-3.6,10.09-1.58,15.86S537.4,90,538.41,92,548.91,122.74,548.91,122.74Z"/><path class="cls-9" d="M521.57,37s-.3-1.16-1.56.59-.36,2.05-.36,2.05-.18-.46.36-1.13A13.5,13.5,0,0,1,521.57,37Z"/><path class="cls-8" d="M185.59,13.57s1.54,14.15,1.25,17.23-.38,3.46-1.25,3.66S169,30.79,169,30.79l-3.46-16.36,14.05-4.91S185.23,10.08,185.59,13.57Z"/><path class="cls-9" d="M170.87,22.61s.69-3.46,2.3-3.64,8.18-.81,10.66-5.18c0,0,2.27,2.85,2.15,3.68l.6-6s-5.09-4.05-5.22-4-11.16,9.68-11.16,9.68Z"/><path class="cls-12" d="M169.42,20s-2.41-1.15-1.35,3.08c.8,3.19,2.79,1.54,2.79,1.54L169,30.79l-1.34,3.66s-.29-3.38-.87-4.15-8.66-9.53-8.85-11.55S162.4.09,162.4.09l2,4.33s11.07-7,17.52-3.37,6.85,11.73,4.1,16.84c0,0-.63-4.9-2.66-5.87a11.57,11.57,0,0,1-9.24,5.68c-3.56.29-3.27,4.91-3.27,4.91Z"/><path class="cls-9" d="M168.38,21.36s1.17-.68,1.62.36l.45,1S169.37,21,168.38,21.36Z"/><path class="cls-17" d="M179.07,68.47l1.76-4.42,2.19-.37-2.68,6L185,74.65l-2.17.36-3.23-3.69-1.85,4.54-2.18.37,2.77-6.18-4.51-4.83,2.17-.36Z"/><path class="cls-18" d="M550.07,131.19v1.51h1.27V133h-1.27v4a1.58,1.58,0,0,0,.19.88.73.73,0,0,0,.65.28,4,4,0,0,0,.55,0l0,.26a1.91,1.91,0,0,1-.58.06,1,1,0,0,1-.87-.34,1.75,1.75,0,0,1-.27-1.07v-4h-1v-.28h1v-1.51Z"/><path class="cls-18" d="M553.07,134a2.34,2.34,0,0,1,.81-1,2,2,0,0,1,1.18-.38,1.66,1.66,0,0,1,1.33.51,2.33,2.33,0,0,1,.44,1.54v3.64h-.28v-3.65a2.06,2.06,0,0,0-.37-1.33,1.41,1.41,0,0,0-1.15-.43,1.74,1.74,0,0,0-1.25.51,2.61,2.61,0,0,0-.71,1.32v3.57h-.28v-7.93h.28Z"/><path class="cls-18" d="M560.58,138.39a2.25,2.25,0,0,1-1.24-.36,2.5,2.5,0,0,1-.89-1,3.09,3.09,0,0,1-.32-1.41v-.23a3.23,3.23,0,0,1,.31-1.42,2.45,2.45,0,0,1,.85-1,2.09,2.09,0,0,1,1.18-.36,2,2,0,0,1,1.53.67,2.53,2.53,0,0,1,.59,1.75v.29h-4.19v.3a2.8,2.8,0,0,0,.29,1.26,2.25,2.25,0,0,0,.79.91,2,2,0,0,0,1.09.33,2.22,2.22,0,0,0,1-.19,1.94,1.94,0,0,0,.7-.58l.2.14A2.11,2.11,0,0,1,560.58,138.39Zm-.1-5.51a1.82,1.82,0,0,0-1.38.61,2.58,2.58,0,0,0-.67,1.55h3.89V135a2.36,2.36,0,0,0-.24-1.06,1.85,1.85,0,0,0-.66-.76A1.71,1.71,0,0,0,560.48,132.87Z"/><path class="cls-18" d="M565.54,135.18l1.78-2.48h.35l-2,2.72,2.06,2.86h-.35l-1.89-2.62-1.89,2.62h-.35l2.06-2.86-2-2.72h.35Z"/><path class="cls-18" d="M572.56,138.28a3.9,3.9,0,0,1-.1-1,2.25,2.25,0,0,1-.9.83,2.79,2.79,0,0,1-1.3.29A1.8,1.8,0,0,1,569,138a1.4,1.4,0,0,1-.47-1.1,1.42,1.42,0,0,1,.69-1.23,3.34,3.34,0,0,1,1.84-.47h1.38v-.82a1.37,1.37,0,0,0-.44-1.09,1.86,1.86,0,0,0-1.26-.39,2,2,0,0,0-1.27.39,1.18,1.18,0,0,0-.51,1h-.28a1.43,1.43,0,0,1,.6-1.16,2.28,2.28,0,0,1,1.46-.47,2.14,2.14,0,0,1,1.44.45,1.62,1.62,0,0,1,.55,1.27V137a3.57,3.57,0,0,0,.14,1.25v0Zm-2.3-.18a2.51,2.51,0,0,0,1.35-.35,2.17,2.17,0,0,0,.85-1v-1.33h-1.29a3,3,0,0,0-1.83.48,1.17,1.17,0,0,0-.52,1,1.11,1.11,0,0,0,.41.87A1.51,1.51,0,0,0,570.26,138.11Z"/><path class="cls-18" d="M578.8,135.54a3.44,3.44,0,0,1-.56,2.07,1.8,1.8,0,0,1-1.53.77,2.41,2.41,0,0,1-1.13-.26,1.93,1.93,0,0,1-.77-.71v3h-.28V132.7h.28v1a2,2,0,0,1,.78-.82,2.19,2.19,0,0,1,1.11-.28,1.82,1.82,0,0,1,1.54.75,3.46,3.46,0,0,1,.56,2.11Zm-.28-.11a3.23,3.23,0,0,0-.48-1.88,1.54,1.54,0,0,0-1.34-.68,2,2,0,0,0-1.19.36,2,2,0,0,0-.71,1v2.61a1.77,1.77,0,0,0,.71.9,2.17,2.17,0,0,0,1.2.32,1.53,1.53,0,0,0,1.33-.68A3.48,3.48,0,0,0,578.51,135.43Z"/></g></g></svg>