<svg xmlns="http://www.w3.org/2000/svg" viewBox="0 0 503.23 128.45"><defs><style>.cls-1{fill:#f59415;}.cls-2{fill:#050505;}</style></defs><title>logo_svg4</title><g id="Layer_2" data-name="Layer 2"><g id="X"><path d="M203.44,105.32c-4.66,0-8.07-1.35-10.14-4s-3-6.64-3.09-12V47.33H179.15v-5h11.07V26.19h5V42.34h13.61v5H195.26V88.87c0,4,.64,7,1.9,8.85s3.2,2.61,6.12,2.61a42.11,42.11,0,0,0,5.78-.49l1-.14.81,4.6-.79.29A21,21,0,0,1,203.44,105.32Z"/><path class="cls-1" d="M194.26,27.19V43.34h13.61v3H194.26V88.87q0,6.37,2.07,9.42t6.94,3a42.94,42.94,0,0,0,5.92-.5l.5,2.82a20.43,20.43,0,0,1-6.25.66q-6.53,0-9.35-3.63t-2.88-11.44V46.33H180.15v-3h11.07V27.19Z"/><path d="M262.7,104.21V64.07c0-6.14-1.28-10.71-3.7-13.59s-6.25-4.26-11.52-4.26a17.74,17.74,0,0,0-12.72,5.22A27,27,0,0,0,227.4,65v39.19h-5v-87h5V53.1a25.27,25.27,0,0,1,7.05-7.65,22.4,22.4,0,0,1,13.19-4.22c6.69,0,11.76,2,15.06,5.8s4.93,9.56,5,17.11v40.07Z"/><path class="cls-1" d="M226.4,57.29a25,25,0,0,1,8.63-11,21.33,21.33,0,0,1,12.62-4q9.63,0,14.3,5.45t4.73,16.46v39.06h-3V64.07q-.06-9.62-3.93-14.23t-12.28-4.62a18.63,18.63,0,0,0-13.42,5.5A27.92,27.92,0,0,0,226.4,64.9v38.31h-3v-85h3Z"/><path d="M307,105.32a25.19,25.19,0,0,1-13.85-4.06,27.87,27.87,0,0,1-9.84-11.1,34.22,34.22,0,0,1-3.54-15.56V72.11a35.85,35.85,0,0,1,3.42-15.65,27.4,27.4,0,0,1,9.48-11.19,23.48,23.48,0,0,1,13.23-4A22,22,0,0,1,323,48.71c4.39,4.92,6.62,11.46,6.62,19.42v4.15H284.73v2.26a29.2,29.2,0,0,0,3,13.06A23.31,23.31,0,0,0,295.81,97,20.06,20.06,0,0,0,307,100.33a23,23,0,0,0,9.84-1.91,20,20,0,0,0,7.14-5.9l.59-.75,3.69,2.62-.56.81C323,101.91,316,105.32,307,105.32Zm17.65-38a24.35,24.35,0,0,0-2.47-10.59A19,19,0,0,0,315.41,49a17.36,17.36,0,0,0-9.56-2.74,18.66,18.66,0,0,0-14.1,6.19A26.45,26.45,0,0,0,285,67.3Z"/><path class="cls-1" d="M307,104.32a24.1,24.1,0,0,1-13.31-3.9,26.77,26.77,0,0,1-9.49-10.71,33.07,33.07,0,0,1-3.43-15.11V72.11a34.7,34.7,0,0,1,3.32-15.22,26.31,26.31,0,0,1,9.13-10.79,22.39,22.39,0,0,1,12.67-3.87,20.94,20.94,0,0,1,16.38,7.14q6.36,7.14,6.36,18.76v3.15H283.73v3.26A30.06,30.06,0,0,0,286.8,88a24.17,24.17,0,0,0,8.47,9.75,20.94,20.94,0,0,0,11.7,3.53,23.83,23.83,0,0,0,10.26-2,20.89,20.89,0,0,0,7.5-6.18l2.1,1.49Q320.13,104.32,307,104.32Zm-1.11-59.09A19.54,19.54,0,0,0,291,51.73q-6.09,6.5-7.14,16.57h41.72v-.72A25.27,25.27,0,0,0,323,56.26,19.85,19.85,0,0,0,316,48.13,18.26,18.26,0,0,0,305.86,45.22Z"/><polygon points="379.82 104.21 360.03 76.81 340.29 104.21 334.12 104.21 356.97 72.5 335.22 42.34 341.45 42.34 360.08 68.19 378.66 42.34 384.89 42.34 363.14 72.5 385.99 104.21 379.82 104.21"/><path class="cls-1" d="M360.08,69.9l19.09-26.56h3.76l-21,29.16L384,103.21h-3.71L360,75.1l-20.25,28.11h-3.71L358.2,72.5l-21-29.16h3.76Z"/><path d="M410.66,105.32c-5.76,0-10.48-1.6-14-4.76a16,16,0,0,1-5.4-12.5c0-5.83,2.65-10.55,7.89-14s11.94-5.15,20.33-5.23h13.78V61c0-4.76-1.44-8.33-4.39-10.92s-7.28-3.9-12.87-3.9a20.92,20.92,0,0,0-13.06,4c-3.42,2.63-5.09,5.77-5.09,9.61v1l-5-.18v-1c0-5.17,2.29-9.6,6.8-13.18A25.58,25.58,0,0,1,416,41.23c6.67,0,12.06,1.71,16,5.08s6.1,8.25,6.22,14.38V89.32c0,6.4.49,10.77,1.46,13l.08.19v1.71h-5.18l-.21-.72a34.7,34.7,0,0,1-1.09-8.16,25.25,25.25,0,0,1-8.28,6.72A31.09,31.09,0,0,1,410.66,105.32Zm9.74-31.54c-8.3,0-14.7,1.65-19,4.89-3.45,2.59-5.13,5.71-5.13,9.55a10.85,10.85,0,0,0,4,8.54,15.32,15.32,0,0,0,10.41,3.57,26,26,0,0,0,13.94-3.61,22.39,22.39,0,0,0,8.63-9.93v-13Z"/><path class="cls-1" d="M435.33,103.21a41.51,41.51,0,0,1-1.11-11,24,24,0,0,1-9.68,8.91,30,30,0,0,1-13.89,3.15q-8.3,0-13.36-4.51A15,15,0,0,1,392.23,88q0-8.24,7.44-13.2t19.78-5.06h14.77V61q0-7.52-4.73-11.67T416,45.22q-8.19,0-13.67,4.21t-5.48,10.4l-3-.11q0-7.3,6.42-12.39A24.5,24.5,0,0,1,416,42.24q9.68,0,15.38,4.84t5.87,13.64V89.32q0,9.85,1.55,13.39v.5Zm-24.68-1.88a26.86,26.86,0,0,0,14.47-3.76A23.3,23.3,0,0,0,434.23,87V72.78H420.39q-12.84,0-19.64,5.09-5.53,4.15-5.53,10.35a11.89,11.89,0,0,0,4.37,9.3A16.21,16.21,0,0,0,410.65,101.33Z"/><path d="M455.36,127.23V42.34h5v8.24a22.43,22.43,0,0,1,6.85-6.17,24.51,24.51,0,0,1,12.45-3.18c7.31,0,13.14,2.84,17.34,8.45s6.23,13.33,6.23,23.2v.94c0,9.5-2.09,17.19-6.22,22.83a20.31,20.31,0,0,1-17.24,8.65,27,27,0,0,1-12.58-2.88A22.23,22.23,0,0,1,460.34,97v30.22Zm5-39.09a18.05,18.05,0,0,0,7.15,8.94,22.38,22.38,0,0,0,12.32,3.24,15.34,15.34,0,0,0,13.46-6.88c3.26-4.68,4.91-11.67,4.91-20.79,0-8.34-1.66-14.94-4.94-19.59s-7.67-6.85-13.54-6.85a20,20,0,0,0-12.19,3.7,20.67,20.67,0,0,0-7.18,10.56Z"/><path class="cls-1" d="M502.23,73.83q0,14-6,22.24a19.28,19.28,0,0,1-16.43,8.24,25.85,25.85,0,0,1-12.12-2.77,20.76,20.76,0,0,1-8.3-7.64v32.31h-3V43.34h3V54a22,22,0,0,1,8.35-8.74,23.42,23.42,0,0,1,12-3q10.51,0,16.54,8.05t6,22.6Zm-3-1.16q0-12.89-5.12-20.17a16.55,16.55,0,0,0-14.36-7.28,20.85,20.85,0,0,0-12.78,3.9,21.61,21.61,0,0,0-7.58,11.21v28a19,19,0,0,0,7.61,9.6,23.25,23.25,0,0,0,12.86,3.4A16.41,16.41,0,0,0,494.09,94Q499.18,86.72,499.18,72.67Z"/><polygon class="cls-2" points="118.21 128.45 79.1 84.73 39.77 128.45 0 128.45 59.07 63.73 1.32 0 40.82 0 79.1 42.88 117.16 0 156.76 0 99.14 63.72 158.08 128.45 118.21 128.45"/><path class="cls-1" d="M79.11,50.39,119.4,5H145.5L92.39,63.74l54.38,59.71H120.44L79.11,77.24,37.54,123.45H11.33l54.5-59.71L12.6,5h26Z"/></g></g></svg>