<svg xmlns="http://www.w3.org/2000/svg" viewBox="0 0 495.22 477.27"><defs><style>.cls-1{isolation:isolate;}.cls-2{fill:#e6e6e6;}.cls-3{opacity:0.05;}.cls-4{fill:#f3f5f8;}.cls-18,.cls-5{fill:#737373;}.cls-6{fill:#ccc;}.cls-7{opacity:0.1;}.cls-8{fill:#f59415;}.cls-9{fill:#f4ece4;}.cls-10{fill:#fbd29d;}.cls-11{fill:#262626;}.cls-12{fill:#bfbfbf;}.cls-13{fill:#4d4d4d;}.cls-14{fill:#404040;}.cls-15{fill:#f9bc6c;}.cls-16{fill:#dc8109;}.cls-17{fill:#f7a63b;}.cls-18{mix-blend-mode:soft-light;}.cls-19{fill:#595959;}.cls-20{fill:#e0a494;}.cls-21{fill:#d9d9d9;}.cls-22{fill:#c47308;}</style></defs><title>QC2_1</title><g class="cls-1"><g id="Layer_2" data-name="Layer 2"><g id="Layer_1-2" data-name="Layer 1"><g id="Positive_Feedback" data-name="Positive Feedback"><path class="cls-2" d="M172.09,333"/><path class="cls-2" d="M173.83,354.13"/><path class="cls-3" d="M180.17,406.17c-59.78,4-59.24,17.11-87.88,17.11-43.78,0-132.2,38.26-30.85,49.83,137.18,15.66,143.8-18,218.18-16.68s141.63,15.79,193,7.32c46-7.59,18.56-48.79-72.9-45.79S223.59,403.23,180.17,406.17Z"/><path class="cls-4" d="M200.24,258.89c41.78,27.32,107.53,120,138.92,49.93s-2.59-104.88,46.73-115.44,99.41-70.76,72.65-83.28-86,42.83-92.53,5.55,80.33-83.38,15.44-86.87S275.53,115.59,160.12,83.42C58,54.94,19.56,311.51,109,253.62,192,200,200.24,258.89,200.24,258.89Z"/><circle class="cls-4" cx="266.4" cy="52.44" r="22.04"/><circle class="cls-4" cx="322.43" cy="15.7" r="15.7"/><circle class="cls-4" cx="203.91" cy="44.27" r="13.25"/><path class="cls-5" d="M254.54,387v26a7.26,7.26,0,0,1-7.23,7.23H140.51a7.22,7.22,0,0,1-7.18-7.23v-6.92L122.88,400l10.45-6.13V387a7.2,7.2,0,0,1,7.18-7.23h106.8A7.23,7.23,0,0,1,254.54,387Z"/><rect class="cls-6" x="150.52" y="387.56" width="38.2" height="9.51"/><rect class="cls-6" x="148.75" y="403.53" width="87.05" height="11.2"/><path class="cls-7" d="M254.54,387v26a7.26,7.26,0,0,1-7.23,7.23H206.8a6.79,6.79,0,0,1-.26-1.9V379.78h40.77A7.23,7.23,0,0,1,254.54,387Z"/><path class="cls-8" d="M338.37,343.81v74.58a8.26,8.26,0,0,1-8.24,8.24h-112a8.24,8.24,0,0,1-6.61-3.35,8.16,8.16,0,0,1-1.63-4.89V343.81a8.26,8.26,0,0,1,8.24-8.24h112A8.26,8.26,0,0,1,338.37,343.81Z"/><rect class="cls-9" x="234.99" y="352.45" width="39.12" height="12.67"/><rect class="cls-9" x="234.99" y="374.76" width="80.62" height="34.99"/><path class="cls-7" d="M218.09,409.75a17,17,0,0,1-6.61,13.53,8.16,8.16,0,0,1-1.63-4.89V395.07A17.16,17.16,0,0,1,218.09,409.75Z"/><circle class="cls-10" cx="198.9" cy="409.75" r="17.17"/><path class="cls-8" d="M197.45,420.16a2.21,2.21,0,0,1-1.67-.76l-6.3-7.28a2.2,2.2,0,0,1,3.34-2.88l4.38,5.07,8.51-13a2.2,2.2,0,1,1,3.69,2.41L199.3,419.16a2.2,2.2,0,0,1-1.7,1Z"/><path class="cls-10" d="M77.82,437.89s-.29,4.67,1,6.17-12,1.62-12,1.62,3.78-6.93,2.13-10S77.82,437.89,77.82,437.89Z"/><path class="cls-11" d="M95.51,455.74,66,453.5c-1.9-3.25-1.48-6.47.73-9.68,4.83.7,9.4.58,13.49-1,3.61,3.47,9.18,6.4,15.6,9.09C97.85,453,97.36,454.27,95.51,455.74Z"/><rect class="cls-12" x="65.84" y="454.61" width="29.66" height="1.27" transform="translate(126.68 915.3) rotate(-175.66)"/><path class="cls-10" d="M30.14,437.4s-1.47,4.44-.61,6.22-12.05-1.52-12.05-1.52,5.43-5.74,4.61-9.09S30.14,437.4,30.14,437.4Z"/><path class="cls-11" d="M42.68,459.19l-28-9.72c-1-3.63.22-6.63,3.19-9.17,4.49,1.92,8.94,3,13.3,2.48,2.6,4.28,7.23,8.54,12.75,12.78C45.65,457.09,44.84,458.24,42.68,459.19Z"/><rect class="cls-12" x="13.63" y="454.28" width="29.66" height="1.27" transform="translate(-94.01 893.96) rotate(-160.83)"/><path class="cls-13" d="M19.43,437l11.67,1.32,23.57-65.22V305.25l-29,3.53c.74,12.38,4,39,9.26,64.56Z"/><path class="cls-13" d="M47.93,303.33l31.43,1.92,5.24,64.6L79,438.31l-12.72-.88L64.9,368.91C55.67,343.69,48.22,318.91,47.93,303.33Z"/><path class="cls-12" d="M23.64,309.08c6.76-33.66,6.13-66,7.13-94.07,17.46-2.87,33.5-3.76,45.32,1.25q4.38,46,4.35,92C72.53,314.78,48.8,314,23.64,309.08Z"/><path class="cls-12" d="M72.48,215,87.17,197l-6.73-49.46,9.15-2.4c4.11,22.49,12.3,48.75,11.76,56.35,0,5.69-13.46,24.52-23.39,37.21Z"/><path class="cls-12" d="M31.79,214.84,30.32,243C18.32,229.44.45,206.18,0,202.24c.26-5.82,16.68-38.21,27.68-61.69l7.29,5L16.35,199.62Z"/><path class="cls-10" d="M45.12,197.28c.84,3.94,2.09,10.22.35,15.41-5.31,8.53,25.58,8.66,14.64-.52-2.12-4.1-1.73-8.47-1.45-14.83Z"/><path class="cls-10" d="M42.44,202.35c2,3.88,13.46,7.55,18.42,7,5.45-.65,7.09-29.41,5.1-29.86l-20.24-7.54-9.37,11A113.6,113.6,0,0,0,42.44,202.35Z"/><path class="cls-8" d="M39.29,94.23l14.24,19.26a1.58,1.58,0,0,0,1.77.56L78,106.46a1.58,1.58,0,0,1,1.79,2.42L65.88,128.37a1.58,1.58,0,0,0,0,1.86l14.24,19.26a1.58,1.58,0,0,1-1.75,2.45l-22.84-7.21a1.58,1.58,0,0,0-1.76.59L39.88,164.8a1.58,1.58,0,0,1-2.87-.9l-.2-23.95a1.58,1.58,0,0,0-1.1-1.49l-22.84-7.21a1.58,1.58,0,0,1,0-3l22.72-7.59a1.58,1.58,0,0,0,1.08-1.51l-.2-23.95A1.58,1.58,0,0,1,39.29,94.23Z"/><path class="cls-14" d="M51.38,182.49c4.64,2.25,10.89,2.95,17.63,3.19,3.54-3.35-.94-6-2.24-10.34-5.32-6.53-9.33-7.75-17.88-6.63-8,2.45-6.93,2.93-10.54,7.34-2.12,4.57-4.11,8.43-3.44,13.38,1,7.35,3.91,10.62,9.58,15.1,3.24-2.37,3.46-2.46,3-6.34-2.77-1.94-4.57-4.26-4.4-7.34A3.55,3.55,0,0,1,46,188,4.28,4.28,0,0,1,48,191.68C51,189.51,51.6,186.2,51.38,182.49Z"/><path class="cls-10" d="M27.68,140.55,31.58,135c3.59-1.48,6.76-2.64,9-.26a8.83,8.83,0,0,1,2,7.33L35,145.55Z"/><path class="cls-10" d="M80.43,147.59c-3.14-1.11-6.5-1.09-7.87-2.4-1.13-1.79-2.26-3.58-1.79-5.62.46-1.81,2.63-2.14,5.48-3.17,6.08.79,10.45,3.22,13.32,8.79Z"/><path class="cls-9" d="M333.81,151.17V227a25.15,25.15,0,0,1-24,25.12l7.05,20.05a3.31,3.31,0,0,1-5.11,3.79l-36.27-23.8H182.67a25.2,25.2,0,0,1-25.08-23.14c0-.66-.09-1.32-.09-2V151.17A25.19,25.19,0,0,1,182.67,126h126A25.19,25.19,0,0,1,333.81,151.17Z"/><path class="cls-8" d="M302.21,126H182.67a25.19,25.19,0,0,0-25.17,25.17v71.67A23.4,23.4,0,0,1,138.86,200V129.53a23.4,23.4,0,0,1,23.36-23.36H279.15A23.38,23.38,0,0,1,302.21,126Z"/><path class="cls-15" d="M289.54,178.94l-4.7,25.41a23.32,23.32,0,0,1-23,19.17H237.94a10.06,10.06,0,0,1-10.1-10V179.71a10.05,10.05,0,0,1,4-8c4.44-8.17,9.59-15.38,12.67-21.94,1.22-3.28,12.93-5.79,14.28,4.31-.26,4.63-2.38,10-5.53,15.63h28.5A7.86,7.86,0,0,1,289.54,178.94Z"/><rect class="cls-16" x="207.17" y="175.87" width="20.71" height="41.42" rx="2.82" ry="2.82"/><path class="cls-17" d="M204.2,148.24h-24a5.1,5.1,0,0,1-5.1-5.1h0a5.1,5.1,0,0,1,5.1-5.1h24a5.1,5.1,0,0,1,5.1,5.1h0A5.1,5.1,0,0,1,204.2,148.24Z"/><path class="cls-18" d="M333.81,151.17V227a25.15,25.15,0,0,1-24,25.12l7.05,20.05a3.31,3.31,0,0,1-5.11,3.79l-36.27-23.8H182.67a25.2,25.2,0,0,1-25.08-23.14c0-.66-.09-1.32-.09-2V151.17A25.19,25.19,0,0,1,182.67,126h126A25.19,25.19,0,0,1,333.81,151.17Z"/><polygon class="cls-19" points="465.63 430.46 452.86 431.08 446.94 364.95 439.71 323.23 436.15 302.72 434.54 293.3 433.88 289.57 472.62 288.29 464.43 357.47 465.63 430.46"/><path class="cls-19" d="M452,289.59l-.09.26-3,8-.22.62-2.34,6.39-6.74,18.34a.34.34,0,0,1,0,.13L424.54,364.7l-2.25,44.47-1.19,23.45H408.46l-3.66-66.34,6.92-63.38.18-1.5.13-1.32.22-2.07,22.3-4.72L449.84,290h.09Z"/><path class="cls-15" d="M474,290.3a6.9,6.9,0,0,1-1.72,1.37,20.54,20.54,0,0,1-4.41,2.16,64.86,64.86,0,0,1-9.48,2.51l-.22,0c-2.87.57-6,1.1-9.12,1.5-4.45.66-9,1.15-13.44,1.5-10.53.88-20,1.06-23.54.71a5.23,5.23,0,0,1-1.23-.22c.88-6.13,1.68-12.65,2.34-19.61h0c0-.22,0-.44,0-.66.22-2.25.44-4.54.66-6.92.13-1.23.22-2.42.31-3.7v0c.09-1.15.18-2.34.26-3.53.48-6.3.88-12.78,1.15-19.53v0c.22-5.51.35-11.11.44-16.88.09-8.86,0-18-.31-27.42l17.76-4.28,12.34-3,6.3.84,15.74,2c-.93,4.72-.88,13-.26,23.54v0q.33,6.35.93,13.62c.09,1.06.18,2.12.26,3.22a3.33,3.33,0,0,1,0,.66v0c.13,1.28.26,2.6.35,3.92.09.93.18,1.9.26,2.82s.18,2,.31,3c1.06,11.33,2.29,23.49,3.48,35.39C473.47,285.72,473.73,288.05,474,290.3Z"/><path class="cls-10" d="M437.18,189.3c-.61,3.8.37,6.89-3.67,7.69-.1,5,5.28,7.16,9.64,7.69,8.19-.67,12-4.76,10.68-8.78-5.11-1.86-3-3.63-4.23-6.6Z"/><path class="cls-10" d="M456.6,173.55c0,2.44.35,5.42-.85,8.31-2.44,6.12-7.11,12-12.49,12a8.26,8.26,0,0,1-4-1.12,12.42,12.42,0,0,1-2-1.36,8,8,0,0,1-.62-.58c-4.55-4.22-6.9-12-6.9-17.24a13.46,13.46,0,0,1,13.56-13.77C455.28,159.66,456.6,165.95,456.6,173.55Z"/><path class="cls-9" d="M448.35,234.31h-8.43a1.92,1.92,0,0,1-1.91-1.46l-2.53-16.19a1.32,1.32,0,0,1,1.46-1.46h8.43a1.92,1.92,0,0,1,1.91,1.46l2.53,16.19A1.32,1.32,0,0,1,448.35,234.31Z"/><path class="cls-16" d="M442.64,217.51a.89.89,0,0,1-1,1,1.29,1.29,0,0,1-1.28-1,.89.89,0,0,1,1-1A1.29,1.29,0,0,1,442.64,217.51Z"/><path class="cls-16" d="M442.27,219.6a.34.34,0,0,1-.37.37.49.49,0,0,1-.49-.37.34.34,0,0,1,.37-.37A.49.49,0,0,1,442.27,219.6Z"/><path class="cls-10" d="M446.29,233.78c-1.39.78-3.83.54-4.89.29a11.28,11.28,0,0,1-4.54-3.52,12.4,12.4,0,0,1-.78-5.79c.45-1.36,11,2,12.63,1.1.37,0,1,1.19.72,1.84Z"/><path class="cls-11" d="M410.4,438c.25,2.69-7.11,7.49-12,11.07-3.19,2.25-3.23,3.18-.43,5.06,3.56,1.41,8,.52,11-.39,1.67-.43,12.84-9,13-12.24-.1-1.29-.76-4.91-2.11-4.56C416.13,436.34,414.09,436.31,410.4,438Z"/><path class="cls-10" d="M410.79,432.65l-.69,6.67a11.3,11.3,0,0,0,9.1.56,1.88,1.88,0,0,0,1.18-2l-.68-5.22Z"/><path class="cls-11" d="M464.83,436.46c-.25,2.69,7.11,7.49,12,11.07,3.19,2.25,3.23,3.18.43,5.06-3.56,1.41-8,.52-11-.39-1.67-.43-12.84-9-13-12.24.1-1.29.76-4.91,2.11-4.56C459.1,434.76,461.15,434.74,464.83,436.46Z"/><path class="cls-10" d="M464.44,431.08l.69,6.67a11.3,11.3,0,0,1-9.1.56,1.88,1.88,0,0,1-1.18-2l.68-5.22Z"/><path class="cls-16" d="M494.4,248.29a11.23,11.23,0,0,1-1.28,1.67c-1.76,1.76-4.28,2.91-6.35,2.2a171,171,0,0,1-16-6.52c-.44-.18-.88-.4-1.32-.62-.71-.26-1.41-.62-2.07-.93s-1-.48-1.45-.71l.22-.44.79-1.63,1.15-2.29.71-1.45,1.32-2.64.31-.66,10,4.19-12.78-17.72v0l-3-4.19c-.35-6.57-.31-14.06,3.31-19.35,6.66,6.74,16.84,26.8,26.93,46.63A4.6,4.6,0,0,1,494.4,248.29Z"/><path class="cls-10" d="M449.44,227.7l-3.15,6.08c6.49,2.61,13.43,6.05,20.16,9.36l4-8.12Z"/><path class="cls-14" d="M455.75,178.79l.83-3.23s.06-6.47.47-11a6.63,6.63,0,0,0-2.63-5.68c-1.57-1.26-.57-1.39-2-2.92-1.79-1.85-2.87-2.28-2.9-3.34,0,0-1.23,1.21-2.06,1.18s.42-.53.45-1.34a3.51,3.51,0,0,0-.07-1.11s-.85,1.39-1.89,1.55-.55-.14-.55-.14.26-1.42-.1-1.85c0,0-1.83,2.29-6.84,2.92s-4.6,3.45-4.6,3.45-6.95.42-4.17,15.93c.57,5.05.54,3.76.54,3.76l1.07,2.32s-.7-7.14.59-9-.44-7.15,4.63-7,8.93,1.79,16.76-.32c.47.38.3,5,1.33,6.57S455.75,178.79,455.75,178.79Z"/><path class="cls-20" d="M456.67,171.79s1.4-.79,1.84.58-.79,2.83-.77,4-1.32,4.85-1.39,3.51C456.35,179.75,456.67,171.79,456.67,171.79Z"/><path class="cls-20" d="M429.73,173.2s-1.48-.64-1.77.77,1.08,2.73,1.18,3.93,1.86,4.48,1.79,3.14C430.93,180.88,429.73,173.2,429.73,173.2Z"/><path class="cls-2" d="M464.22,277l-9.4,6.29-.19,2.88c-.19,2.88-2.66,4.54-5.54,3.71l-85.64-24.57a6.88,6.88,0,0,1-4.84-6.69l1.57-23.36a4.11,4.11,0,0,1,5.54-3.71l85.64,24.57a6.84,6.84,0,0,1,4.84,6.69l-.19,2.88Z"/><polygon class="cls-15" points="409.63 259.72 377.85 250.6 378.34 243.32 410.12 252.44 409.63 259.72"/><polygon class="cls-15" points="437.09 279.33 377.08 262.11 377.57 254.83 437.58 272.05 437.09 279.33"/><path class="cls-10" d="M424.58,289.57c-.12-.12-19.27-15.09-24.73-21.62l-.12-.12,2.07-1.78,5.33-4.63,20.71,22.08Z"/><path class="cls-10" d="M430.86,288.93a7.43,7.43,0,0,1-1.78,1.45,5.78,5.78,0,0,1-3.51,1.2,5,5,0,0,1-3.56-4.47,2.92,2.92,0,0,1,0-.58l1-.5h0a44.46,44.46,0,0,0,4.71-2.53c1-.74,4.14.69,5.28,1.78C434,286.54,432.18,287.56,430.86,288.93Z"/><path class="cls-16" d="M401.58,252.36l6.16,8.52-.62.54-5.25,4.71-2,1.82-.33.29c-2.81-3.1-5.13-6.45-7.15-9a13,13,0,0,1-1.57-13.6c0-.08,0-.12.08-.21,9.34-19.06,18.81-38.74,24.85-43.87,3.74,6.27,4.12,14.17,3.92,21.54Z"/><path class="cls-3" d="M464.21,277l-4.72,11.72-1.15,2.87v4.76l-.22,0-9.34,2.12-7.89,1.76-5.07.66-8.07,1.1s-12.08-.48-15.87-.62l.13-1.32a5.23,5.23,0,0,1-1.23-.22c.88-6.13,1.68-12.65,2.34-19.61h0l5.42,3.17s2.7,4.21,5.79,4.87c.53.09,2.71,1.17,3.2,1.3,1.41.26,3.6-2,3.69-1.91a6.6,6.6,0,0,0,1.84-2.41c.4,0,.91.4,1.35.4h0c18.16,6.55,19.84,1.84,20.32-2.4Z"/><path class="cls-3" d="M493.13,250c-1.76,1.76-4.28,2.91-6.35,2.2a171,171,0,0,1-16-6.52c-.44-.18-.88-.4-1.32-.62.09,1,.18,2,.31,3a6.85,6.85,0,0,1-3-1.67c-2-2-12.61-7.1-14.81-8.29s-7.05-2.12-10.58-3.22a9.16,9.16,0,0,1-1.32-.57,7.16,7.16,0,0,1-2.16-1.9,8,8,0,0,1-1.06-1.9s.31.13.84.31a52.91,52.91,0,0,0,7.76,2.51,5.77,5.77,0,0,1,1,.22,24.26,24.26,0,0,1,2.51.66h0c3.83,1.1,9.39,3,11.72,4.36a66.35,66.35,0,0,0,6.26,2.73l.35.13c.62.26,1.23.48,1.9.75,5.16,2,11,4.19,13.18,5.07A76.66,76.66,0,0,0,493.13,250Z"/><path class="cls-21" d="M404.88,168.31l-12.71-4,1.33-4.2,12.7,4ZM379.54,158a28.25,28.25,0,0,1-7.77-12l4.15-1.5a23.93,23.93,0,0,0,6.54,10.16Zm-10.67-25.48c-.42-3.89-.65-8.31-.7-13.52l4.41,0c0,5.06.27,9.34.67,13.09Zm3.86-26.82-4.41-.1.07-3c.09-3.39.17-6.83.22-10.29l4.41.06c0,3.47-.13,6.92-.22,10.33Zm-201.55-4.68a62.79,62.79,0,0,1-11.08-1l.77-4.34a58.17,58.17,0,0,0,12.78.86l.19,4.4Q172.49,101.07,171.18,101.07ZM87,100.14l-2.67-3.5a85.71,85.71,0,0,1,11.44-7.47l2.08,3.89A81.3,81.3,0,0,0,87,100.14Zm100.47-1-1-4.29q2-.47,4.12-1.08a69.45,69.45,0,0,0,8.15-2.93l1.74,4.05A73.85,73.85,0,0,1,191.77,98Q189.55,98.62,187.42,99.11Zm-40.51-2.62c-2.61-.93-5.12-1.91-7.58-2.88-1.65-.65-3.28-1.29-4.89-1.89L136,87.59c1.64.61,3.29,1.26,5,1.92,2.42,1,4.89,1.92,7.44,2.83Zm-37.27-7.94-.92-4.31a37.52,37.52,0,0,1,8-.85h0a40,40,0,0,1,6,.47l-.67,4.36a35,35,0,0,0-5.37-.42h0A33.4,33.4,0,0,0,109.64,88.55Zm102.86,0-2.33-3.74a119.75,119.75,0,0,0,10.68-7.55l2.72,3.47A124.21,124.21,0,0,1,212.5,88.51Zm156-9.38c-.16-4.84-.48-9.12-1-13.09l4.37-.54c.5,4.1.83,8.51,1,13.48ZM233.84,72l-3-3.27c3.26-3,6.46-6,9.63-9.1l3.08,3.15C240.39,65.89,237.15,69,233.84,72Zm19.24-18.61L250,50.23c3.19-3.17,6.37-6.32,9.57-9.36l3,3.19C259.41,47.09,256.25,50.21,253.08,53.36Zm112-.07a59,59,0,0,0-4.65-11.94l3.89-2.07a63.24,63.24,0,0,1,5,12.83ZM272.37,35.21l-2.85-3.36a129.6,129.6,0,0,1,10.74-8.26l2.49,3.64A125.91,125.91,0,0,0,272.37,35.21ZM353,31.1a45.4,45.4,0,0,0-10-7.72l2.19-3.83a49.66,49.66,0,0,1,11,8.48ZM294,20.76l-1.85-4a59.23,59.23,0,0,1,13.07-4.36l.88,4.32A54.79,54.79,0,0,0,294,20.76Zm37.28-2.46a53.8,53.8,0,0,0-12.53-2.42l.29-4.4a58.33,58.33,0,0,1,13.56,2.61Z"/><path class="cls-21" d="M423.83,170.79c-1.08,0-2.82-.52-5.83-1.43l1.27-4.22c1.7.51,2.81.84,3.53,1l.09-.25c1.37.5,3.43,1.25,2.74,3.36C425.27,170.33,424.85,170.79,423.83,170.79Z"/></g><path class="cls-22" d="M251,386v2.6h2.19v.48H251v6.84a2.72,2.72,0,0,0,.33,1.51,1.25,1.25,0,0,0,1.12.49,6.84,6.84,0,0,0,1-.08l.08.45a3.28,3.28,0,0,1-1,.11,1.79,1.79,0,0,1-1.5-.58,3,3,0,0,1-.46-1.84v-6.9h-1.78v-.48h1.78V386Z"/><path class="cls-22" d="M256.16,390.83a4,4,0,0,1,1.39-1.77,3.43,3.43,0,0,1,2-.65,2.87,2.87,0,0,1,2.3.88,4,4,0,0,1,.76,2.65v6.28h-.48v-6.29a3.54,3.54,0,0,0-.63-2.29,2.44,2.44,0,0,0-2-.74,3,3,0,0,0-2.16.88,4.49,4.49,0,0,0-1.23,2.28v6.16h-.48V384.55h.48Z"/><path class="cls-22" d="M269.11,398.39a3.87,3.87,0,0,1-2.14-.63,4.3,4.3,0,0,1-1.53-1.72,5.31,5.31,0,0,1-.55-2.43v-.4a5.57,5.57,0,0,1,.53-2.45,4.23,4.23,0,0,1,1.47-1.73,3.61,3.61,0,0,1,2-.62,3.37,3.37,0,0,1,2.63,1.15,4.36,4.36,0,0,1,1,3v.51h-7.21v.52a4.83,4.83,0,0,0,.49,2.17,3.89,3.89,0,0,0,1.36,1.57,3.36,3.36,0,0,0,1.88.57,3.83,3.83,0,0,0,1.65-.32,3.35,3.35,0,0,0,1.21-1l.34.24A3.63,3.63,0,0,1,269.11,398.39Zm-.18-9.5a3.14,3.14,0,0,0-2.38,1,4.45,4.45,0,0,0-1.15,2.66h6.71v-.12a4.06,4.06,0,0,0-.41-1.82,3.19,3.19,0,0,0-1.14-1.31A2.93,2.93,0,0,0,268.93,388.9Z"/><path class="cls-22" d="M277.64,392.86l3.07-4.27h.61l-3.38,4.69,3.56,4.94h-.6l-3.26-4.52-3.25,4.52h-.6l3.56-4.94L274,388.59h.6Z"/><path class="cls-22" d="M289.74,398.22a6.7,6.7,0,0,1-.18-1.76,3.86,3.86,0,0,1-1.56,1.43,4.81,4.81,0,0,1-2.23.51,3.11,3.11,0,0,1-2.15-.72,2.53,2.53,0,0,1,.38-4,5.75,5.75,0,0,1,3.18-.81h2.37v-1.41a2.36,2.36,0,0,0-.76-1.88,3.2,3.2,0,0,0-2.17-.67,3.5,3.5,0,0,0-2.2.68,2,2,0,0,0-.88,1.67l-.48,0a2.46,2.46,0,0,1,1-2,3.94,3.94,0,0,1,2.53-.82,3.7,3.7,0,0,1,2.47.78,2.79,2.79,0,0,1,.94,2.19V396a6.17,6.17,0,0,0,.25,2.15v.08Zm-4-.3a4.32,4.32,0,0,0,2.33-.6,3.75,3.75,0,0,0,1.46-1.7v-2.29h-2.22a5.2,5.2,0,0,0-3.16.82,2,2,0,0,0-.89,1.66,1.91,1.91,0,0,0,.7,1.49A2.61,2.61,0,0,0,285.77,397.91Z"/><path class="cls-22" d="M300.49,393.49a5.93,5.93,0,0,1-1,3.58,3.1,3.1,0,0,1-2.64,1.33,4.16,4.16,0,0,1-1.95-.44,3.34,3.34,0,0,1-1.33-1.23v5.19h-.48V388.59h.48v1.72a3.52,3.52,0,0,1,1.34-1.41,3.76,3.76,0,0,1,1.92-.49,3.14,3.14,0,0,1,2.66,1.29,6,6,0,0,1,1,3.63Zm-.49-.19a5.57,5.57,0,0,0-.82-3.24,2.66,2.66,0,0,0-2.31-1.17,3.35,3.35,0,0,0-2.05.63,3.47,3.47,0,0,0-1.22,1.8v4.5a3.05,3.05,0,0,0,1.22,1.54,3.74,3.74,0,0,0,2.07.55,2.64,2.64,0,0,0,2.29-1.17A6,6,0,0,0,300,393.31Z"/></g></g></g></svg>