<svg width="142" height="143" viewBox="0 0 142 143" fill="none" xmlns="http://www.w3.org/2000/svg">
<g clip-path="url(#clip0_8616_73164)">
<path d="M44.1889 88.0422L55.3111 83.5491C54.4272 80.8975 53.6292 78.209 52.9172 75.4837C52.2052 72.7584 51.6282 70.0454 51.1863 67.3446L44.1889 71.985L44.1889 88.0422ZM61.4982 82.6653H81.091C82.6132 78.5896 83.7917 74.5139 84.6265 70.4382C85.4613 66.3625 85.8787 62.8024 85.8787 59.758C85.8787 51.803 84.7247 44.8056 82.4168 38.7657C80.1089 32.7258 76.4015 27.0052 71.2946 21.6036C66.1877 27.0052 62.4803 32.7258 60.1724 38.7657C57.8645 44.8056 56.7105 51.803 56.7105 59.758C56.7105 62.8024 57.1279 66.3625 57.9627 70.4382C58.7975 74.5139 59.976 78.5896 61.4982 82.6653ZM71.2946 58.7268C69.3304 58.7268 67.624 58.0025 66.1755 56.5539C64.7269 55.1053 64.0026 53.3989 64.0026 51.4347C64.0026 49.4705 64.7269 47.7641 66.1755 46.3156C67.624 44.867 69.3304 44.1427 71.2946 44.1427C73.2588 44.1427 74.9652 44.867 76.4138 46.3156C77.8624 47.7641 78.5867 49.4705 78.5867 51.4347C78.5867 53.3989 77.8624 55.1053 76.4138 56.5539C74.9652 58.0025 73.2588 58.7268 71.2946 58.7268ZM98.4004 88.0422L98.4004 71.985L91.403 67.3446C90.961 70.0454 90.384 72.7584 89.672 75.4837C88.96 78.209 88.1621 80.8975 87.2782 83.5491L98.4004 88.0422ZM71.2946 12.9121C78.4148 19.1484 83.669 26.0722 87.0572 33.6834C90.4454 41.2946 92.1395 49.9616 92.1395 59.6843V59.9789L92.1395 60.2735L101.862 66.7554C102.746 67.3446 103.421 68.0935 103.888 69.0019C104.354 69.9103 104.588 70.9047 104.588 71.985L104.661 97.2493L83.8163 88.9261H58.7729L37.928 97.2493L38.0017 71.985C38.0017 70.9047 38.2349 69.9103 38.7014 69.0019C39.1679 68.0935 39.8431 67.3446 40.727 66.7554L50.4497 60.2735C50.4497 60.1753 50.462 60.0894 50.4865 60.0157C50.5111 59.9421 50.5234 59.8562 50.5234 59.758C50.5234 50.0352 52.2052 41.356 55.5689 33.7202C58.9325 26.0844 64.1744 19.1484 71.2946 12.9121Z" fill="white"/>
<path d="M58.0364 107.487C58.0364 104.05 59.264 101.079 61.7192 98.575C64.1744 96.0707 67.1207 94.8185 70.5581 94.8185C73.9954 94.8185 76.9417 96.0706 79.3969 98.575C81.8521 101.079 83.0797 104.05 83.0797 107.487C83.0797 110.041 82.159 113.073 80.3176 116.584C78.4762 120.095 75.2475 124.895 70.6317 130.984C66.0159 124.895 62.7627 120.095 60.8722 116.584C58.9816 113.073 58.0364 110.041 58.0364 107.487ZM64.2972 107.561C64.3463 108.985 64.8865 110.753 65.9177 112.864C66.9489 114.976 68.4957 117.456 70.5581 120.304C72.6204 117.456 74.1672 114.976 75.1984 112.864C76.2296 110.753 76.7698 108.985 76.8189 107.561C76.9171 105.793 76.3524 104.271 75.1248 102.994C73.8972 101.718 72.3749 101.055 70.558 101.006C68.7412 101.055 67.2189 101.718 65.9913 102.994C64.7637 104.271 64.199 105.793 64.2972 107.561Z" fill="#F59415"/>
</g>
<defs>
<clipPath id="clip0_8616_73164">
<rect width="100" height="100" fill="white" transform="translate(0.289322 71.6904) rotate(-45)"/>
</clipPath>
</defs>
</svg>
