<?xml version="1.0" encoding="UTF-8" standalone="no"?><!DOCTYPE svg PUBLIC "-//W3C//DTD SVG 1.1//EN" "http://www.w3.org/Graphics/SVG/1.1/DTD/svg11.dtd"><svg width="100%" height="100%" viewBox="0 0 404 375" version="1.1" xmlns="http://www.w3.org/2000/svg" xmlns:xlink="http://www.w3.org/1999/xlink" xml:space="preserve" xmlns:serif="http://www.serif.com/" style="fill-rule:evenodd;clip-rule:evenodd;stroke-linejoin:round;stroke-miterlimit:2;"><path d="M399.311,374.413l-395.586,-0c-2.049,-0 -3.725,-1.675 -3.725,-3.724c-0,-2.048 1.676,-3.724 3.725,-3.724l395.586,-0c2.049,-0 3.725,1.676 3.725,3.724c0,2.049 -1.676,3.724 -3.725,3.724Z" style="fill:#fffbf8;fill-rule:nonzero;"/><path d="M269.36,369.876l-209.419,-0c-8.911,-0 -16.135,-7.223 -16.135,-16.135l0,-306.45c0,-8.911 7.224,-16.135 16.135,-16.135l209.419,0c8.911,0 16.135,7.224 16.135,16.135l-0,306.45c-0,8.912 -7.224,16.135 -16.135,16.135Z" style="fill:#262626;fill-rule:nonzero;"/><rect x="58.123" y="45.585" width="213.054" height="295.545" style="fill:#fff;fill-rule:nonzero;"/><path d="M164.65,29.518c-5.323,0 -9.638,-4.316 -9.638,-9.639c0,-5.323 4.315,-9.638 9.638,-9.638c5.324,-0 9.639,4.315 9.639,9.638c-0,5.323 -4.315,9.639 -9.639,9.639Zm45.906,-7.43l-17.227,-0c-1.523,-12.414 -13.78,-22.088 -28.679,-22.088c-14.898,0 -27.155,9.674 -28.678,22.088l-17.227,-0c-15.681,-0 -28.392,12.712 -28.392,28.392l0,5.008l148.595,0l-0,-5.008c-0,-15.68 -12.711,-28.392 -28.392,-28.392Z" style="fill:#f9af6a;fill-rule:nonzero;"/><path d="M114.29,55.488l16.775,-33.4l-12.32,-0c-3.534,-0 -6.914,0.651 -10.035,1.831l-15.856,31.569l21.436,0Z" style="fill:#dcc8a6;fill-rule:nonzero;"/><path d="M213.507,55.488l13.967,-27.809c-4.725,-3.511 -10.578,-5.591 -16.918,-5.591l-1.709,-0l-16.776,33.4l21.436,0Z" style="fill:#dcc8a6;fill-rule:nonzero;"/><path d="M236.238,38.368c-1.136,-2.402 -2.599,-4.616 -4.33,-6.591l-11.91,23.711l7.64,0l8.6,-17.12Z" style="fill:#dcc8a6;fill-rule:nonzero;"/><path d="M238.948,55.488l-11.31,0l2.085,-4.15l9.225,-0l-0,4.15Zm-18.95,0l-6.491,0l2.084,-4.15l6.492,-0l-2.085,4.15Zm-27.927,0l-77.781,0l2.084,-4.15l77.782,-0l-2.085,4.15Zm-99.217,0l-2.501,0l0,-4.15l4.585,-0l-2.084,4.15Z" style="fill:#c9a77f;fill-rule:nonzero;"/><path d="M114.29,55.488l-21.436,0l2.084,-4.15l21.436,-0l-2.084,4.15Z" style="fill:#ceab8c;fill-rule:nonzero;"/><path d="M213.507,55.488l-21.436,0l2.085,-4.15l21.435,-0l-2.084,4.15Z" style="fill:#ceab8c;fill-rule:nonzero;"/><path d="M227.638,55.488l-7.64,0l2.085,-4.15l7.64,-0l-2.085,4.15Z" style="fill:#ceab8c;fill-rule:nonzero;"/><rect x="119.139" y="149.463" width="107.566" height="1.613" style="fill:#e7d8c0;fill-rule:nonzero;"/><rect x="119.139" y="156.935" width="107.566" height="1.614" style="fill:#e7d8c0;fill-rule:nonzero;"/><rect x="119.139" y="164.407" width="107.566" height="1.614" style="fill:#e7d8c0;fill-rule:nonzero;"/><rect x="118.916" y="138.61" width="56.083" height="5.341" style="fill:#1c2439;fill-rule:nonzero;"/><path d="M104.08,165.909l-0,-1l-26.299,-0l0,-25.299l25.299,-0l-0,26.299l1,-0l-0,-1l-0,1l1,-0l-0,-28.299l-29.299,-0l0,29.299l29.299,-0l-0,-1l-1,-0Z" style="fill:#e2cfb5;fill-rule:nonzero;"/><path d="M79.363,155l9.54,8.556l22.157,-31.466c0.477,-0.677 0.314,-1.613 -0.363,-2.09c-0.677,-0.477 -1.613,-0.315 -2.09,0.363l-20.213,28.706l-7.028,-6.303c-0.617,-0.553 -1.565,-0.501 -2.118,0.116c-0.553,0.616 -0.502,1.565 0.115,2.118Z" style="fill:#e0ab6c;fill-rule:nonzero;"/><rect x="119.139" y="242.043" width="107.566" height="1.614" style="fill:#e7d8c0;fill-rule:nonzero;"/><rect x="119.139" y="249.516" width="107.566" height="1.613" style="fill:#e7d8c0;fill-rule:nonzero;"/><rect x="119.139" y="256.988" width="107.566" height="1.614" style="fill:#e7d8c0;fill-rule:nonzero;"/><rect x="118.916" y="231.191" width="60.979" height="5.341" style="fill:#1c2439;fill-rule:nonzero;"/><rect x="185.088" y="231.191" width="27.893" height="5.341" style="fill:#1c2439;fill-rule:nonzero;"/><path d="M104.08,258.602l-0,-1l-26.299,-0l0,-25.3l25.299,-0l-0,26.3l1,-0l-0,-1l-0,1l1,-0l-0,-28.3l-29.299,-0l0,29.3l29.299,-0l-0,-1l-1,-0Z" style="fill:#e2cfb5;fill-rule:nonzero;"/><path d="M79.363,247.691l9.54,8.558l22.157,-31.467c0.477,-0.678 0.314,-1.613 -0.363,-2.09c-0.677,-0.477 -1.613,-0.315 -2.09,0.363l-20.213,28.707l-7.028,-6.304c-0.617,-0.553 -1.565,-0.502 -2.118,0.115c-0.553,0.617 -0.502,1.565 0.115,2.118Z" style="fill:#e0ab6c;fill-rule:nonzero;"/><rect x="119.139" y="288.333" width="107.566" height="1.614" style="fill:#e7d8c0;fill-rule:nonzero;"/><rect x="119.139" y="295.806" width="107.566" height="1.613" style="fill:#e7d8c0;fill-rule:nonzero;"/><rect x="119.139" y="303.279" width="107.566" height="1.613" style="fill:#e7d8c0;fill-rule:nonzero;"/><rect x="118.916" y="277.481" width="32.345" height="5.342" style="fill:#1c2439;fill-rule:nonzero;"/><path d="M104.08,304.892l-0,-1l-26.299,-0l0,-25.3l25.299,-0l-0,26.3l1,-0l-0,-1l-0,1l1,-0l-0,-28.3l-29.299,-0l0,29.3l29.299,-0l-0,-1l-1,-0Z" style="fill:#e2cfb5;fill-rule:nonzero;"/><path d="M79.363,293.982l9.54,8.557l22.157,-31.467c0.477,-0.678 0.314,-1.613 -0.363,-2.09c-0.677,-0.477 -1.613,-0.315 -2.09,0.363l-20.213,28.707l-7.028,-6.303c-0.617,-0.553 -1.565,-0.502 -2.118,0.115c-0.553,0.617 -0.502,1.565 0.115,2.118Z" style="fill:#e0ab6c;fill-rule:nonzero;"/><path d="M104.08,119.619l-0,-1l-26.299,-0l0,-25.299l25.299,0l-0,26.299l1,-0l-0,-1l-0,1l1,-0l-0,-28.299l-29.299,0l0,29.299l29.299,-0l-0,-1l-1,-0Z" style="fill:#e2cfb5;fill-rule:nonzero;"/><rect x="119.139" y="103.173" width="107.566" height="1.613" style="fill:#e7d8c0;fill-rule:nonzero;"/><rect x="119.139" y="110.645" width="107.566" height="1.614" style="fill:#e7d8c0;fill-rule:nonzero;"/><rect x="119.139" y="118.117" width="107.566" height="1.614" style="fill:#e7d8c0;fill-rule:nonzero;"/><rect x="118.916" y="92.32" width="39.763" height="5.341" style="fill:#1c2439;fill-rule:nonzero;"/><rect x="164.02" y="92.32" width="48.961" height="5.341" style="fill:#1c2439;fill-rule:nonzero;"/><path d="M79.363,108.71l9.54,8.556l22.157,-31.466c0.477,-0.677 0.314,-1.613 -0.363,-2.09c-0.677,-0.477 -1.613,-0.315 -2.09,0.363l-20.213,28.706l-7.028,-6.303c-0.617,-0.553 -1.565,-0.501 -2.118,0.115c-0.553,0.617 -0.502,1.566 0.115,2.119Z" style="fill:#e0ab6c;fill-rule:nonzero;"/><rect x="119.139" y="195.753" width="107.566" height="1.613" style="fill:#e7d8c0;fill-rule:nonzero;"/><rect x="119.139" y="203.225" width="107.566" height="1.614" style="fill:#e7d8c0;fill-rule:nonzero;"/><rect x="119.139" y="210.698" width="107.566" height="1.613" style="fill:#e7d8c0;fill-rule:nonzero;"/><rect x="118.916" y="184.901" width="19.14" height="5.341" style="fill:#1c2439;fill-rule:nonzero;"/><rect x="144.435" y="184.901" width="44.362" height="5.341" style="fill:#1c2439;fill-rule:nonzero;"/><path d="M104.08,212.311l-0,-1l-26.299,-0l0,-25.299l25.299,-0l-0,26.299l1,-0l-0,-1l-0,1l1,-0l-0,-28.299l-29.299,-0l0,29.299l29.299,-0l-0,-1l-1,-0Z" style="fill:#e2cfb5;fill-rule:nonzero;"/><path d="M79.363,201.401l9.54,8.557l22.157,-31.466c0.477,-0.678 0.314,-1.613 -0.363,-2.09c-0.677,-0.477 -1.613,-0.315 -2.09,0.363l-20.213,28.707l-7.028,-6.304c-0.617,-0.553 -1.565,-0.502 -2.118,0.115c-0.553,0.617 -0.502,1.565 0.115,2.118Z" style="fill:#e0ab6c;fill-rule:nonzero;"/><path d="M314.76,362.03c0,-0 -11.572,5.786 -12.017,7.677c-0.446,1.892 21.587,0.446 22.477,-0.222c0.89,-0.668 -1.113,-9.681 -1.113,-9.681l-9.347,2.226Z" style="fill:#765f4b;fill-rule:nonzero;"/><path d="M371.674,361.872c0,-0 11.661,5.606 12.136,7.491c0.475,1.884 -21.578,0.781 -22.479,0.127c-0.9,-0.654 0.962,-9.697 0.962,-9.697l9.381,2.079Z" style="fill:#765f4b;fill-rule:nonzero;"/><path d="M310.977,131.468c0,-0 -1.503,1.53 -3.005,5.564c-2.465,6.619 -8.114,17.287 -15.133,24.814c-7.754,8.316 -14.243,9.125 -23.591,6.231c-9.346,-2.893 -13.575,-3.56 -13.575,-3.56l2.671,13.576c-0,-0 17.433,16.394 33.308,7.64c16.873,-9.304 25.668,-34.718 25.668,-34.718l-6.343,-19.547Z" style="fill:#f9af6a;fill-rule:nonzero;"/><path d="M311.088,215.703l2.893,146.661l10.683,-0l11.572,-134.42l25.594,134.641l10.459,-0.444l-10.015,-148.366l-51.186,1.928Z" style="fill:#262626;fill-rule:nonzero;"/><path d="M343.469,124.124c-0,-0 14.206,2.634 19.102,6.639c4.896,4.006 -0.074,30.861 -0.074,30.861l-48.071,-0c-0,-0 -0.928,-25.444 -0.074,-28.858c0.742,-2.967 2.114,-5.563 4.896,-6.899c2.782,-1.335 8.309,-2.522 11.424,-2.633c3.116,-0.111 12.797,0.89 12.797,0.89Z" style="fill:#e7f3f7;fill-rule:nonzero;"/><path d="M342.69,101.906l0.148,23.59l-11.275,8.606l-5.193,-7.567l0.742,-14.243l15.578,-10.386Z" style="fill:#fabba0;fill-rule:nonzero;"/><path d="M341.8,102.5c0,0 3.837,-2.38 5.267,-7.419c1.557,-5.489 3.268,-16.655 -1.632,-22.403c-6.009,-7.047 -24.402,-10.609 -30.897,-6.639c-4.006,2.448 -5.416,10.905 2.262,14.354c7.678,3.45 20.993,2.782 20.993,3.45c-0,0.668 1.039,18.137 4.007,18.657Z" style="fill:#262626;fill-rule:nonzero;"/><path d="M315.464,79.725c0,0 -3.189,26.039 1.41,32.864c4.6,6.824 13.056,3.19 18.695,-0.371c5.637,-3.561 6.929,-5.815 7.269,-8.531c0.297,-2.374 -0.445,-5.787 -0.445,-5.787c0,-0 4.748,-0.445 3.413,-5.192c-1.074,-3.818 -6.38,-0.742 -6.38,-0.742c-0,0 2.819,-7.715 0.149,-10.386c-2.671,-2.671 -24.111,-1.855 -24.111,-1.855Z" style="fill:#fbc9b3;fill-rule:nonzero;"/><path d="M316.909,96.25c-4.364,0 -4.876,-1.842 -4.911,-4.303l9.82,-0c-0.034,2.461 -0.547,4.303 -4.909,4.303Zm12.907,0c-4.362,0 -4.875,-1.842 -4.909,-4.303l9.819,-0c-0.035,2.461 -0.548,4.303 -4.91,4.303Zm16.547,-5.49l-34.851,-0.063c-0.343,-0 -0.511,0.382 -0.559,0.669c-0.039,0.225 -0.033,0.455 -0.028,0.682c0.005,0.239 0.015,0.479 0.033,0.718c0.019,0.237 0.046,0.474 0.084,0.708c0.038,0.23 0.087,0.459 0.151,0.684c0.063,0.222 0.14,0.439 0.236,0.649c0.096,0.21 0.208,0.412 0.34,0.601c0.135,0.195 0.29,0.376 0.461,0.541c0.184,0.176 0.386,0.333 0.601,0.469c0.24,0.152 0.495,0.278 0.757,0.384c0.303,0.121 0.617,0.214 0.934,0.287c0.371,0.085 0.748,0.142 1.127,0.179c0.419,0.041 0.839,0.057 1.26,0.057c5.414,-0 5.964,-2.824 5.985,-5.532l0.937,0.002c0.02,2.707 0.572,5.53 5.985,5.53c5.399,-0 5.962,-2.808 5.985,-5.508l10.561,0.019c0.296,-0 0.537,-0.24 0.538,-0.537c0.001,-0.297 -0.24,-0.538 -0.537,-0.539Z" style="fill:#6d6d6d;fill-rule:nonzero;"/><path d="M321.77,124.346l8.16,25.334l18.546,-24.628c0,0 13.946,3.486 17.508,7.27c2.222,2.362 -3.932,47.328 -3.71,57.565c0.16,7.364 1.484,28.635 1.484,28.635l-52.521,0.297c-0,0 -2.374,-82.677 -1.819,-84.903c0.557,-2.225 7.234,-8.79 12.352,-9.57Z" style="fill:#d8a45e;fill-rule:nonzero;"/><path d="M359.381,128.686c0,0 3.116,1.039 8.012,4.6c7.638,5.555 17.451,16.858 21.438,26.78c5.24,13.037 1.391,25.148 -6.675,35.904c-8.068,10.757 -15.579,14.837 -15.579,14.837l-1.491,-14.81c-0,-0 13.064,-12.341 12.025,-24.359c-0.895,-10.352 -24.184,-22.254 -24.184,-22.254l6.454,-20.698Z" style="fill:#d8a45e;fill-rule:nonzero;"/><path d="M350.024,125.751c-0.951,-0.437 -1.548,-0.699 -1.548,-0.699l-18.546,24.628l-8.16,-25.334c-0.456,0.07 -0.928,0.2 -1.404,0.354l8.674,29.58l20.984,-28.529Z" style="fill:#e2cfb5;fill-rule:nonzero;"/><path d="M365.916,196.991c-0.323,-1.085 -0.799,-2.278 -1.845,-2.712c-0.872,-0.363 -1.873,-0.072 -2.734,0.315c-2.046,0.921 -3.84,2.392 -5.145,4.217c-0.644,0.9 -1.185,1.944 -1.153,3.051c0.043,1.536 1.15,2.805 2.204,3.922c2.159,2.289 4.431,4.598 7.31,5.872c0.324,0.142 0.669,0.275 1.023,0.248c0.681,-0.054 1.176,-0.67 1.479,-1.284c1.817,-3.679 -0.057,-9.993 -1.139,-13.629Z" style="fill:#fabba0;fill-rule:nonzero;"/><path d="M316.726,102.817l15.578,-0c0,-0 -1.335,5.341 -8.308,5.638c-6.973,0.297 -7.27,-5.638 -7.27,-5.638Z" style="fill:#fff;fill-rule:nonzero;"/><path d="M277.463,102.02l-15.381,1.24l-15.379,1.24l11.239,-40.214c0.285,-0.985 1.545,-1.087 1.985,-0.16l17.536,37.894Z" style="fill:#fcd7c7;fill-rule:nonzero;"/><path d="M298.92,368.164l-30.76,2.481l-21.522,-266.94l30.761,-2.48l21.521,266.939Z" style="fill:#e0ab6c;fill-rule:nonzero;"/><path d="M297.87,355.135l-30.76,2.48l-0.693,-8.58l30.761,-2.48l0.692,8.58Z" style="fill:#d3eaf0;fill-rule:nonzero;"/><path d="M296.477,337.856l-30.761,2.48l-0.691,-8.58l30.76,-2.48l0.692,8.58Z" style="fill:#d3eaf0;fill-rule:nonzero;"/><path d="M265.156,75.425l-5.229,-11.299c-0.44,-0.927 -1.7,-0.825 -1.985,0.16l-3.352,11.991l10.566,-0.852Z" style="fill:#e0ab6c;fill-rule:nonzero;"/><path d="M292.487,368.683l-1.051,-13.029l6.434,-0.519l-0.539,-6.678l1.589,19.707l-6.433,0.519Zm-1.742,-21.609l-0.702,-8.7l6.434,-0.518l0.701,8.699l-6.433,0.519Z" style="fill:#b0894d;fill-rule:nonzero;"/><path d="M277.107,101.249l-0.001,-0l0.293,-0.024l-0.292,0.024Z" style="fill:#293863;fill-rule:nonzero;"/><path d="M270.673,101.768l-8.035,-26.14l2.518,-0.203l-5.229,-11.299l17.179,37.123l0.001,-0l-6.141,0.495l-0.031,0.002l-0.262,0.022Z" style="fill:#d9bcb3;fill-rule:nonzero;"/><path d="M296.217,334.638l-0.432,-5.362l-6.433,0.518l-18.386,-228.05l6.141,-0.495l0.292,-0.024l18.818,233.413Zm-25.544,-232.87l0.262,-0.022l-0.262,0.022Z" style="fill:#b0894d;fill-rule:nonzero;"/><path d="M291.436,355.654l-0.691,-8.58l6.433,-0.519l0.153,1.902l0.539,6.678l-6.434,0.519Z" style="fill:#b6cdd8;fill-rule:nonzero;"/><path d="M290.043,338.374l-0.691,-8.58l6.433,-0.518l0.432,5.362l0.26,3.218l-6.434,0.518Z" style="fill:#b6cdd8;fill-rule:nonzero;"/><path d="M262.638,75.628l-3.73,-12.137c0.017,-0.001 0.035,-0.001 0.053,-0.001c0.378,-0 0.761,0.204 0.966,0.636l5.229,11.299l-2.518,0.203Z" style="fill:#b0894d;fill-rule:nonzero;"/><path d="M246.822,175.826c-0.707,-2.25 0.736,-4.587 1.625,-4.907c2.11,-0.761 4.423,-0.951 6.63,-0.547c1.087,0.2 2.203,0.574 2.949,1.391c1.036,1.133 1.124,2.816 1.143,4.351c0.04,3.147 0.012,6.386 -1.172,9.303c-0.132,0.328 -0.29,0.663 -0.562,0.889c-0.527,0.436 -1.328,0.379 -1.955,0.107c-4.809,-2.086 -7.322,-6.336 -8.658,-10.587Z" style="fill:#fabba0;fill-rule:nonzero;"/></svg>